<?xml version="1.0" encoding="utf-8"?>
<!-- Generator: Adobe Illustrator 19.1.0, SVG Export Plug-In . SVG Version: 6.00 Build 0)  -->
<svg version="1.1" id="Layer_1" xmlns="http://www.w3.org/2000/svg" xmlns:xlink="http://www.w3.org/1999/xlink" x="0px" y="0px"
	 viewBox="194 -104 1000 1000" style="enable-background:new 194 -104 1000 1000;" xml:space="preserve">
<style type="text/css">
	.st0{fill:#64C3CC;}
</style>
<g>
	<path class="st0" d="M326.1,270.9c0-3.3,2.3-11,5.7-12.2c14.7-4.9,30.5,130.5,42.8,161.6c0.8,1.9,18.7-37.4,28-68.1
		c-10.2-4.4-35.1-97.8,2.1-118.7c7.3-4.1,25.4,21.9,11.7,82.2c-1.2,5.1,23.4,43.3,33.7,41.6c18.6-2.9,41.6-54.5,41.5-57.2
		C480.2,107,497.1,56.4,523.2,47.9c20.1-6.5,21.5,125.8-6.5,182.3c-0.6,1.2,6.1,72.5,6.1,72.5c12.8-1.4,58.6-71.8,58.6-71.8
		c-7.3-26.6-14.9-200.7,23.6-198.2c29.3,1.9,21.2,114.8,0.6,157.3c0,0,13.5,97.8,14.8,98.5c2.6,1.3,65.4-110,68.4-130
		c0.1-0.7-37.3-41.7-0.9-80.2c4.2-4.4,21.4,8.9,14.1,41c-2.7,11.7,16.4,27,27.1,39.2c9.4,10.8,12.7,127.6,24.7,128.3
		c17.4,1,42.7-132,42.7-132c-6.8-3.3-38.9-17.9-28.3-69.4c1.4-7,11.8-42.8,19.9-42.5c11.6,0.4,27.2,26.3,15.3,85.7
		c5.2,20.4,34.1,46.8,64-74.1c0.9-3.7-4.8-40.3,7.7-44.2c22.8-7.1,26.2,93.8,44,94.7c25.1,1.3,8.9-109.9,23.2-116.9
		c9.4-4.6,20,94.5,40.4,128c3.4-3.7,45.5-142.2,128.3-155.6c1.7-0.3,4.9,10.4,0.8,9.4c-57.1-13.6-129.6,145.8-125.1,158.5
		c17.7,50.1,73.7,216.6-4.4,227c-2.6,0.3-62.8,8.5-16.8-189c0.9-3.7-26.3-82.8-26-83.9c-18.1,86.2-68.5-18-68.5-17.4
		c-16.3,108.6-69.8,89.2-70.3,92.9c-1,6.4-21.6,141-52,139.1c-35.9-2.3-50.2-94.9-33.9-134.3c-6.7,3.9-21.4-1.4-21.6-3
		c2.4,19.6-69,134.6-69,134.6c84.3,21.7,81.6,112.5,25,105.5c-53.1-6.7-66.6-160.9-66.7-160.6c-6.5,11.9-51,67-51,67
		c94.6,79.5,59.6,152.8,33.5,147.8c-58.4-11.2-68.4-144-71.8-143.4c-1.9,0.3-34.1,91.4-86.9,46.1c-3.6,15.1-22.9,64.9-29.7,73.5
		c0,0,63.9,195.5-2.9,189.4c-43.6-4-35.6-141.2-17.5-171.6c0,0-25.9-111.9-27.1-117.9c-0.2-0.8-29.6,97.6-68.2,70.3
		c-0.8-0.5,2.8-1.9,3-1.4C269.5,408.6,327.4,393.7,326.1,270.9z M972.8,174.5c-0.6,0.9-33,181.8,6,176.1
		C1052.1,339.9,973.4,175.2,972.8,174.5z M523.7,313.3c8.9,42.3,24.7,143.6,46.4,133.5C619.4,423.9,549.3,307.7,523.7,313.3z
		 M375.8,615.6c42.3,1.2-11.9-141.7-17-157.5C345.9,475.5,332.3,614.4,375.8,615.6z M621.9,301.1c0,0,28.6,96.4,54.5,83.8
		C701.4,372.8,662.3,299.4,621.9,301.1z M516.6,218.2c32.5-114.3,12.1-166.4,6.8-165.3C503.5,57.2,512,206.5,516.6,218.2z
		 M606.4,38.2c-24.3-1.7-5.1,144.5-2.6,139.7C622,142.6,624.7,39.5,606.4,38.2z M788.6,49.2c-9.1,0.3,7.1,70.3,11.8,73.5
		C802,119.1,809.8,48.6,788.6,49.2z M406.3,241.2c-18.4,5.5,6.6,62.7,7,63.2C413.7,303.8,421.9,245,406.3,241.2z M691.2,84.8
		c-4-0.3,5.6,23.3,6.4,24.8C698.2,107.9,702.1,85.7,691.2,84.8z"/>
	<path class="st0" d="M431.9,751.2c0,0-12.7,7.7-18.2,10.6c-0.6,0.3-3.8-3.3-1.6-4.1c8.1-2.7,19.3-12.9,19.3-12.9
		c-8.1-17.3-6.2-113.7,23.3-107.6c38.6,8,1.1,88.2,1.1,88.2c11.4,37.4,29.4,50.5,36.8,49.1c29-5.7,39.6-67.3,39.8-74.5
		c-41.2-53.8-64-217.6-20-219.6c32.2-1.4,37,127.7,31.3,170.2c12.2,44.3,45.7,72.2,57.5,68.6c5.7-1.8,18.2-14.7,23.9-59.1
		c0.7-5.8-20.1-64.1,1.2-71.3c21.6-7.3,25.1,97.5,40,90.7c23.7-10.8,10.4-114.1,27-117.3c9.8-1.9,24,90,40.3,116.3l37.8-88.1
		c-33.1-24.6-27.5-82.7,0.2-83.2c6.4-0.1,17.8,7.3,13,52.3c-0.8,7.5,37.6,39.1,39.3,37.5c5-5,38.9-41.3,38.3-43.5
		c-9.9-21.4-16.4-88,23.4-96c26.2-5.3,6.3,69.8,3.4,75.4c3,4.8,29.2,80.4,90.3,77.7c41-1.8,137-33.7,141.4-220.8
		c0-0.7,5.4,1.5,5.4,2.8c-2,198.9-159,311.2-261.5,167.1l-38.4,42c22.4,26.8,21.7,95.5-12.9,94.3c-27.6-1-6.2-61.5-7.4-67.3
		c-0.6-3.2-30.5-33.6-30.5-33.6c-5.7,14.7-39.1,92.2-39.1,92.2c40.1,112.3,5.2,166.1-10.8,164.8c-11.7-0.9-43.2-25.9-12.9-126
		c-2.4-2.3-24.8-83.6-24.8-83.6c-13.7,77.8-58.5,33.4-58.9,23.1c-10.1,115-86.5,44.7-89.3,41.7c-1.2-1.3-3.6,5.4-3.8,6.4
		C508.6,827.3,444.3,785.7,431.9,751.2z M716.4,732.5c-25.4,75-1.9,117.1,8.6,114.6C731.9,845.4,766,827.8,716.4,732.5z
		 M538.5,635.6c4.8-4-1-157.2-27.6-151.2C487.5,489.6,533.4,633.6,538.5,635.6z M453.4,640.3c-19.9-2.8-3.1,70.5,2.2,73.2
		C462,708,479.5,644,453.4,640.3z M817.6,690.3c8.2-2.8,23.4-29.9-5.6-54.5C794.2,683.1,813.8,691.6,817.6,690.3z M887.6,461.4
		c-17.8-5.3-3.3,59.1-1.7,56.7C887.4,516.1,904.7,466.5,887.6,461.4z M767.9,511.9c-16.7,7.5,7.4,42.5,11.7,44.2
		C779.9,555.4,787.6,503.1,767.9,511.9z"/>
	<path class="st0" d="M883.8,353.6c-0.8-1.1-18.4,42.7-45.4,10.9c-0.5,22.3-7.7,45.4-21.6,43.9c-25.7-2.6-22.8-47.9-28.8-47.6
		c-4.9,0.3-9.5,61.7-24,61.4c-6.9-0.1-14-5.8-15.1-1.3c-5.8,22.9-24.8,14.7-28,15.5c-4.6,1.2-7.9,32-23.1,32.6
		c-6.8,0.3-21.5-11.3-23.7-8.5c-13.8,28.7-24.2,27.4-27.6,27.7c-0.8,0.1-1.3-1.8-0.6-2.2c1.6-0.8,3.2-1.6,4.8-2.1
		c8.9-1.5,18.2-22.9,21-29c1.4-3-0.6-38.4,21.3-53.2c8.9-6,15.6,0.6,17.5-1.1c2.1-1.9,4.8-5.4,11.4,0c3.9,6.7,7.7,13.6,11.5,20.4
		c0.5,1,0.9,2.1,1.5,3c2.3,3.4,4.5,3.4,6.8,0.1c14.2-16.8-5.4-61.5,12.2-66.2c12-3.2,9.2,27,17.3,27.3c7.7,0.3,11.1-45.4,25.4-44.7
		c15.8,0.8,23.5,63.4,27.4,57.4c17.1-25.6-1.4-98.3,47.2-92c-3.4-18.7,0.9-95,25.2-93.2c15.6,1.2,1.9,83,0.4,90.5
		c-1.8,8.9,21.3,81.8,50.9,73.5c0.7,0,4.2,2.2,0.3,3.8C942.9,381.7,911,393.7,883.8,353.6z M864.9,367.1c6.1,0.4,18.4-17.7,16-21
		c-0.8-1.2-6.9-23.7-8.6-31.3c-1.2-5.3-1.2-5.3-1.2-5.3C842.2,303.3,859.6,366.8,864.9,367.1z M893,280.7c0.2,0.5,0.5,1,0.8,1.5
		c0.3-0.4,0.7-0.9,0.8-1.3c0.9-3.5,11.1-61.7,1.6-64.1C881,212.8,890.2,274.7,893,280.7z M703.6,404.2c-3.4,2-9.7,8.3-9.6,8.9
		c-6.6,11.9-9.9,32.2,0.5,39.6c6.3,4.4,6.3,4.4,7.7,4.3c4.6-0.4,8.6-8.2,11.8-20.4C718.2,420.8,706.9,402.2,703.6,404.2z"/>
	<path class="st0" d="M323.3,193.9c-0.6,8.5-6.9,15-14.1,14.5c-7.2-0.5-12.5-7.8-11.9-16.3c0.6-8.5,6.9-15,14.1-14.5
		C318.6,178.1,323.9,185.4,323.3,193.9z"/>
</g>
</svg>
