<?xml version="1.0" encoding="utf-8"?>
<!-- Generator: Adobe Illustrator 19.1.0, SVG Export Plug-In . SVG Version: 6.00 Build 0)  -->
<svg version="1.1" id="Layer_1" xmlns="http://www.w3.org/2000/svg" xmlns:xlink="http://www.w3.org/1999/xlink" x="0px" y="0px"
	 viewBox="0 0 800 800" enable-background="new 0 0 800 800" xml:space="preserve">
<g>
	<path fill="#0E3556" d="M112,265.4c0.3-2.6,3-8.6,5.9-9.2c12.3-2.4,11,108.1,17.7,134.4c0.4,1.6,18.9-28.1,29.6-51.9
		c-7.8-4.6-18.1-82.3,14-95.2c6.3-2.5,18.2,20.3,0.9,67.3c-1.5,4,14.3,37.2,22.8,37c15.3-0.4,39.1-39.5,39.3-41.7
		c10.8-156.5,29.7-195.4,51.6-199.6c16.8-3.2,4.3,103.4-24.1,145.9c-0.6,0.9-2.6,58.9-2.6,58.9c10.4,0.2,54.5-51.7,54.5-51.7
		c-3.2-22.1,8.8-162.9,39.5-157c23.4,4.5,5.1,94.6-15.8,126.6c0,0,0.7,80.1,1.7,80.7c1.9,1.3,64-81.7,68.5-97.5
		c0.1-0.5-25.6-37.4,7.6-64.6c3.8-3.1,16.3,9.4,7.1,34.5c-3.3,9.1,10.4,23.4,17.7,34.3c6.5,9.7-3,103.9,6.5,105.7
		c13.9,2.6,48-101.8,48-101.8c-5.1-3.3-29.4-18.4-15.6-58.8c1.9-5.5,13.9-33.2,20.4-32.2c9.3,1.5,19.1,23.9,3.4,70.5
		c2,17,22.6,41.1,59.2-53c1.1-2.9,0.3-32.9,10.8-34.7c19.1-3.3,11.4,78.2,25.6,80.8c20.1,3.7,18.5-87.5,30.7-91.6
		c8.1-2.7,6.3,78.1,19.2,107.2c3.1-2.7,51.4-109.7,119.3-111.9c1.4,0,2.8,8.9-0.3,7.7c-44.5-16.9-120.9,101.4-116.4,111.3
		c18.3,40.5,36.2,185.1-27.7,185.3c-2.1,0-51.4,0.3,6.1-153.8c1.1-2.9-12.6-69.3-12.3-70.2c-23.5,67.5-53.2-21.6-53.3-21.1
		c-24.4,85.6-65.4,64.5-66.2,67.4c-1.4,5-31.9,111.2-56.2,106.5c-28.7-5.6-30.5-81.5-13.3-111.5c-5.8,2.5-17-3.4-17-4.6
		c-0.1,16-69.5,101.1-69.5,101.1c65.5,26.2,53.9,99,9.2,87.4c-42-10.8-36.9-136.3-37-136.1c-6.5,8.9-48,48.6-48,48.6
		c67.8,73.7,32.1,129.1,11.7,122.4c-45.8-15.1-40.1-122.9-42.9-122.7c-1.5,0.1-36.9,70-74.7,28c-4.4,11.7-25.2,49.8-31.5,56
		c0,0,31.2,163.9-22,152c-34.6-7.7-14-117.3,3.7-139.8c0,0-9.2-92.7-9.6-97.6c0-0.7-34,75.4-62.1,49.5c-0.6-0.5,2.4-1.2,2.6-0.8
		C52.2,370.3,100.3,364.3,112,265.4z M638.9,254.2c-0.5,0.7-45.2,146.2-10.2,142.9C688.5,391.4,639.3,254.9,638.9,254.2z M266.5,320
		c2.8,35,5,118.1,23.5,112.2C332.1,418.9,287.7,318.1,266.5,320z M116.2,547.8c33.9,5.3,5.1-115.2,2.7-128.5
		C106.7,432,81.4,542.3,116.2,547.8z M346.8,320.3c0,0,13,80.5,35.2,73.1C403.3,386.2,379.5,323.2,346.8,320.3z M270.7,242.7
		c38-88.6,27-132.6,22.6-132.2C276.8,111.9,268.2,232.8,270.7,242.7z M361.5,107.3c-19.3-3.9-19.1,115.7-16.6,112.1
		C363.2,192.9,376.1,110.2,361.5,107.3z M507,135c-7.3-0.7-1.6,57.3,1.9,60.4C510.5,192.6,524.1,136.7,507,135z M179.6,249.8
		c-15.4,2.5-1.2,51.1-0.9,51.6C179.1,300.9,191.8,254.5,179.6,249.8z M424.9,153.5c-3.2-0.7,2.1,19.3,2.6,20.6
		C428.1,172.9,433.6,155.4,424.9,153.5z"/>
	<path fill="#0E3556" d="M147.3,662.7c0,0-11,4.9-15.7,6.6c-0.5,0.2-2.7-3.1-0.9-3.4c6.8-1.4,16.9-8.4,16.9-8.4
		c-4.7-14.8,6.8-92.1,29.9-84.1c30.2,10.4-8.3,71-8.3,71c5.3,31.3,18.4,43.7,24.5,43.3c23.9-1.6,38.9-50,39.7-55.8
		c-27.5-47.5-28.9-181.7,6.7-178.7c26.1,2.2,16.5,106.6,7.5,140.1c5.2,36.9,29.3,62.8,39.1,61.1c4.8-0.8,16.2-10,25.3-45.1
		c1.2-4.6-9.5-53.6,8.3-57.2c18.1-3.6,10.1,81,22.8,77.1c20.2-6.2,20.2-90.7,33.9-91.6c8.1-0.5,10,74.8,20.4,97.7l39.5-66.9
		c-24-23.2-13.5-69.4,8.8-66.9c5.1,0.6,13.5,7.7,5,43.4c-1.4,5.9,26.2,35.4,27.7,34.2c4.6-3.5,35.6-29.2,35.3-31
		c-5.7-18.2-4.1-72.5,28.8-74.8c21.7-1.5-2.2,56.8-5.1,61c1.9,4.2,29,71.2,64.5,71.9c11,0.2,103.1-0.1,136.6-162.9
		c0.1-0.6,4.1,1.8,4,2.8C737.3,587.4,582.7,680,515.2,553.4l-35.2,29.8c15.2,23.9,7.6,79.1-20.1,74.5c-22.1-3.7,1.4-50.1,1.1-54.9
		c-0.2-2.7-21.1-30.2-21.1-30.2c-6.1,11.3-41,70.1-41,70.1c20.6,94.5-13.1,134.1-25.8,131.4c-9.3-2-32-25.3,2.7-102.7
		c-1.7-2.1-11.3-69.8-11.3-69.8c-19.1,61.1-50.5,20.8-49.8,12.5c-20,91.5-74.2,27-76.2,24.3c-0.9-1.2-3.4,4-3.7,4.7
		C201.2,731.8,153.7,691.7,147.3,662.7z M378.1,677.1c-28.2,57.7-13.7,94-4.9,93C378.9,769.5,408.1,758.9,378.1,677.1z M245.1,580.7
		c4.3-2.7,15.5-126.5-6.5-124.5C219.1,458,241.1,578.6,245.1,580.7z M176.1,575.7c-15.7-4.3-9.8,56.4-5.8,59.1
		C176,631,196.7,581.3,176.1,575.7z M463.9,653.6c6.8-1.4,21.9-21.6,1.1-44.4C445.8,645.4,460.7,654.3,463.9,653.6z M543.9,476.8
		c-13.7-6.1-8.8,47.2-7.2,45.4C538,520.7,557.1,482.6,543.9,476.8z M442.4,505c-14.2,4.3,1.6,34.9,4.8,36.8
		C447.5,541.2,459.2,499.9,442.4,505z"/>
	<path fill="#0E3556" d="M552,389.7c-0.5-1-19.2,32.4-37.6,4.1c-2.7,17.9-10.9,35.7-21.9,33.1c-20.4-4.8-13.3-40.9-18.2-41.3
		c-3.9-0.3-14,48.6-25.6,46.9c-5.6-0.8-10.6-6.2-12-2.6c-7.1,17.8-21.5,9.3-24.2,9.6c-3.9,0.5-9.7,25-22,23.8
		c-5.5-0.5-16.1-11.3-18.2-9.3c-14.1,21.6-22.3,19.5-25.1,19.4c-0.6,0-0.9-1.6-0.3-1.8c1.3-0.5,2.7-1,4.1-1.2
		c7.3-0.3,17-16.6,19.9-21.2c1.5-2.3,3.5-30.9,22.7-40.6c7.8-3.9,12.5,2.1,14.2,0.9c1.9-1.3,4.4-3.8,9.2,1.2
		c2.4,5.8,4.8,11.7,7.1,17.6c0.3,0.8,0.5,1.8,0.9,2.5c1.5,3,3.3,3.2,5.5,0.8c13.2-12,2-50,16.7-52c10-1.4,4.6,22.7,11.1,23.8
		c6.1,1,13.6-35.4,25-33.3c12.6,2.3,12.3,53.4,16.1,49c16.4-18.8,9-79.2,47.5-69.1c-0.8-15.4,10.5-76.3,29.9-72.3
		c12.4,2.6-7.1,67-9.1,72.8c-2.4,6.9,8.7,68,33.4,64.4c0.5,0.1,3.2,2.2-0.2,3.1C596.6,418.4,569.7,424.8,552,389.7z M535.3,398.6
		c4.9,1,16.6-12.3,15.1-15.3c-0.6-1.1-3.1-19.8-3.7-26.1c-0.4-4.4-0.4-4.4-0.4-4.4C523.8,344.9,531.2,397.8,535.3,398.6z M566.9,332
		c0.1,0.4,0.3,0.9,0.5,1.3c0.3-0.3,0.7-0.6,0.8-1c1.1-2.7,15.3-48.5,7.9-51.4C564.3,276.1,565.3,326.9,566.9,332z M401.8,411.7
		c-2.9,1.2-8.6,5.7-8.6,6.2c0.1,5.2-0.9,21.7,3.6,21.9C406.4,440.1,406.4,409.6,401.8,411.7z M406.1,441.8c-0.4-1.6-0.6-2.4-0.8-3.3
		c-1,0.4-12.6,6.1-12.3,7.8c0.6,2.6,1.4,5.1,2.2,7.6C397.8,459.2,403.5,445.8,406.1,441.8z"/>
	
		<ellipse transform="matrix(0.9805 0.1967 -0.1967 0.9805 41.656 -17.1936)" fill="#0E3556" cx="107.4" cy="201.1" rx="10.6" ry="12.5"/>
</g>
</svg>
