<?xml version="1.0" standalone="no"?>
<!DOCTYPE svg PUBLIC "-//W3C//DTD SVG 1.1//EN" "http://www.w3.org/Graphics/SVG/1.1/DTD/svg11.dtd" >
<svg xmlns="http://www.w3.org/2000/svg">
<metadata></metadata>
<defs>
<font id="typnic_headlineheadline" horiz-adv-x="1677" >
<font-face units-per-em="2048" ascent="1679" descent="-369" />
<missing-glyph horiz-adv-x="747" />
<glyph horiz-adv-x="0" />
<glyph horiz-adv-x="682" />
<glyph horiz-adv-x="0" />
<glyph horiz-adv-x="0" />
<glyph unicode="&#xd;" horiz-adv-x="868" />
<glyph unicode=" "  horiz-adv-x="747" />
<glyph unicode="&#x09;" horiz-adv-x="747" />
<glyph unicode="&#xa0;" horiz-adv-x="747" />
<glyph unicode="!" horiz-adv-x="741" d="M152 1264q0 90 16 122q11 27 76 27h250q55 0 63 -6q29 -15 29 -76q0 -14 -2 -52t-2 -67q0 -19 3 -64.5t3 -66.5q0 -19 -4 -47q-3 -19 -6 -81t-11 -91q-4 -20 -11.5 -138.5t-16.5 -164.5q-8 -51 -33 -76q-16 -6 -66 -6q-17 0 -50 1t-46 1h-90q-31 0 -44.5 12t-14.5 50 q-19 58 -19 170q0 6 -1 33t-1 38q-20 94 -20 254q0 27 1 77.5t1 62.5v43q-4 8 -4 45zM162 186q0 69 57 121q33 28 56.5 40t68.5 22q96 0 159.5 -38t67.5 -118q0 -134 -53 -182q-52 -43 -139 -43q-103 0 -166 49q-29 27 -37 63q-14 54 -14 86z" />
<glyph unicode="&#x22;" horiz-adv-x="1179" d="M164 1309q0 41 12 59q20 45 123 45q72 -4 84 -4q134 0 145 -29q7 -21 7 -65q0 -11 -4.5 -33t-4.5 -39q0 -10 2 -18v-31q0 -28 -8 -55t-8 -49q0 -19 -12.5 -67.5t-12.5 -84.5q0 -17 -4 -54t-4 -40q-5 -16 -11 -66t-26 -71q-2 -2 -13 -5.5t-34.5 -6.5t-52.5 -3 q-86 0 -127 21q-16 45 -16 168q0 12 -6.5 37.5t-6.5 39.5l-6 121l-12 103q-1 26 -2 53t-1.5 43t-0.5 31zM645 1286q0 29 6 59.5t6 38.5q30 33 78 33q7 0 63.5 -1t63.5 -1q112 0 119 -14q3 -7 16 -17t13 -63q0 -17 -4.5 -58t-4.5 -59q0 -29 -4 -60t-4 -40q0 -41 -4 -65 t-12.5 -53.5t-13.5 -61.5q-5 -25 -5 -39q0 -11 -5 -41t-5 -47t-3 -37t-3 -37q-7 -13 -39 -23q-13 0 -49 -2t-57 -2q-66 0 -101 17q-6 21 -8 56t-18 91q-4 14 -5 35t-1 23l-9 167q0 35 -4 97t-4 71q-2 10 -2 33z" />
<glyph unicode="#" horiz-adv-x="1605" d="M104 360q0 3 2.5 19t2.5 24v21q0 18 2 49q3 53 53 53q10 0 23.5 -1t31.5 -1q32 0 55 2q14 0 39 -1t41 -1q10 19 35 125.5t27 130.5q-10 2 -31 2q-20 0 -50.5 -2t-53.5 -2q-59 0 -68 15q-1 12 -3.5 33t-2.5 32q0 7 2 21.5t2 21.5q0 9 -2 20t-2 17q0 36 31 43q21 6 57 6 q21 0 58 -1t61 -1q23 0 51 4q6 14 17.5 57.5t19.5 65.5q4 10 6.5 39t5.5 35q2 8 9 24t9 21q0 1 0.5 9t2 13t4.5 12.5t9.5 14.5t16.5 14q19 19 66 19q63 -2 149 -2q38 0 51 -10.5t13 -36.5q0 -42 -33 -158q-6 -20 -13 -42t-10 -32t-5.5 -22t-2.5 -25q58 -4 78 -4q50 0 111 6 l20 74l9 45t20 55q3 11 10.5 52t13.5 59q12 35 50 39q13 0 37 -1t40 -1q9 0 44 3t59 3q80 0 80 -35q0 -11 -16 -70t-21 -98q-4 -26 -17.5 -66.5t-13.5 -56.5q20 -4 27 -4q36 0 81.5 1t47.5 1q27 0 39 -6q8 -11 8 -31q0 -9 -2 -29t-2 -30t1 -29t1 -28q0 -34 -12 -46 q-27 -8 -70 -8h-172q-2 -11 -17 -70t-26.5 -111.5t-11.5 -68.5q14 -4 22 -4l6 1q6 1 15 1h137q26 0 26 -43q0 -7 -1 -21t-1 -22q0 -16 2 -24q2 -12 2 -47q0 -23 -18 -41q-16 -8 -39 -8q-25 0 -71 2t-52 2q-12 0 -32.5 -3.5t-30.5 -3.5q-3 0 -8.5 1.5t-8.5 1.5 q-16 -26 -25 -79t-20 -89q-4 -14 -13 -67t-24 -73q-11 -16 -63 -16q-24 0 -67.5 4t-53.5 4q-11 0 -29.5 -2t-25.5 -2q-55 0 -60 39q15 76 33 135q3 4 21 74t18 72q-8 8 -45 8q-12 0 -39 -1t-41 -1q-50 0 -72 -9q-19 -86 -26 -110q-3 -9 -12.5 -56t-19.5 -87.5t-15 -45.5 q-24 -24 -72 -24q-18 0 -47 2t-39 2h-10q-32 -4 -45 -4q-7 0 -39 4q-6 1 -18.5 1.5t-17.5 1.5t-10 8t-5 20q0 23 28 141q2 9 19.5 64t17.5 83q-15 3 -37 3q-18 0 -53 -1.5t-59 -1.5q-27 0 -40.5 8.5t-13.5 32.5zM666 541q0 -7 2 -11l196 -2q17 34 23 86q2 19 19.5 86 t17.5 80q-36 -4 -50 -4q-17 0 -50 3t-58 3q-3 0 -19.5 -1t-19.5 -1q-4 -3 -13.5 -39t-21 -90t-14.5 -67q-2 -7 -7 -21t-5 -22z" />
<glyph unicode="$" horiz-adv-x="1472" d="M139 119q0 25 17 60.5t22 56.5q15 20 37.5 51.5t31.5 43.5t22 26.5t26 23.5q13 10 20 10q20 0 51.5 -18.5t51.5 -24.5q13 -1 40 -10.5t58 -22.5t41 -16q15 -6 99.5 -17.5t117.5 -11.5q17 0 39.5 6.5t44.5 8.5q33 5 63.5 26t30.5 49q0 2 1 13t1 18q0 34 -29 54.5t-79 23.5 q-75 4 -187 15t-141 20q-8 3 -53.5 11.5t-58.5 12.5q-5 1 -12.5 3t-10.5 2.5t-7 2t-6 3t-5 3t-5.5 4.5t-5.5 6t-8 9q-48 4 -115 80q-8 9 -11 20.5t-7 18.5l-25 45q-31 51 -34 119q0 4 -2 39.5t-2 40.5q0 64 19 129.5t50 87.5q2 15 6.5 25.5t8.5 15t24.5 22.5t34.5 31 q81 76 242 106q86 14 96 19q-4 40 -4 65q0 88 12 121q23 10 156 10q79 0 90 -16q2 -10 2 -33q0 -18 -3 -47t-3 -45q0 -36 6 -57q5 -1 43.5 -6.5t78 -13.5t72.5 -19q81 -23 138 -47q34 -14 45 -25t14 -39q-2 -22 -25.5 -61.5t-23.5 -54.5q-3 -10 -18 -29t-21 -39 q-10 -44 -47 -70q-32 -4 -37 -4q-17 0 -39 11q-24 11 -81.5 29.5t-80.5 21.5q-19 4 -51.5 9t-52.5 9q-32 4 -47 4q-14 0 -45 -2t-45 -2q-7 -2 -29 -4.5t-39 -9t-35 -21.5q-33 -29 -33 -59q0 -23 10.5 -43t28.5 -29q35 -18 162 -30q72 -7 135 -11q35 -3 70 -9t80 -16t67 -14 q144 -26 219 -153q13 -24 27 -80t19 -94q2 -16 2 -88q0 -22 -8 -49.5t-11 -47.5q-4 -26 -30 -73.5t-46 -71.5q-25 -30 -52 -49t-46 -29.5t-27 -21.5q-14 -8 -51 -25t-49 -20q-8 -2 -65.5 -11t-79.5 -20q-2 -10 -2 -35q0 -21 1 -68t1 -63q-8 -29 -86 -29q-13 0 -45 -1t-56 -1 q-60 0 -67 35q-2 8 -2 31q0 12 1 39.5t1 42.5q0 31 -2 45q-7 4 -21.5 6t-38 3.5t-35.5 2.5q-37 3 -63.5 7.5t-40 8t-36 11t-40.5 12.5q-70 19 -94 31q-57 32 -61 34q-11 4 -25 14.5t-22 10.5q-1 6 -6 16.5t-5 14.5z" />
<glyph unicode="%" horiz-adv-x="1771" d="M102 1081q0 52 28 111t67 86q26 37 95.5 65.5t129.5 28.5q182 0 266 -84q27 -32 44 -58.5t32.5 -76.5t15.5 -109q-1 -6 -5.5 -41t-8.5 -55.5t-16 -50.5t-29 -49t-54.5 -47t-74.5 -45q-21 -5 -85.5 -16t-84.5 -11q-58 0 -137.5 31t-108.5 74q-33 49 -48.5 83t-16.5 76 q-9 65 -9 88zM215 45q0 21 18.5 45.5t48.5 55.5t44 53q9 13 34 49.5t45.5 64t38.5 49.5q56 64 142.5 187.5t113.5 148.5q28 26 66.5 83t48.5 65q21 20 76 106.5t96 132.5q31 35 176 234q10 17 33.5 31t42.5 16q39 0 133.5 -2t122.5 -2q11 -3 19.5 -10t17 -17t12.5 -14 q-1 -26 -18 -51.5t-63 -79t-81 -100.5q-10 -14 -54.5 -77.5t-59.5 -82.5q-33 -41 -118.5 -155.5t-133.5 -168.5q-42 -73 -119 -165t-96 -132q-6 -10 -50 -62.5t-61 -80.5q-30 -54 -88 -125q-19 -23 -34.5 -32t-41.5 -9q-73 0 -123 4q-6 0 -40 -2t-54 -2q-68 0 -84 14 q-10 10 -10 31zM371 1059q0 -47 8 -60q10 -23 26 -29.5t44 -6.5q12 0 28 9.5t23 22.5q12 18 12 58q0 17 -4 33.5t-4 17.5q-23 35 -55 35q-15 0 -43 -11q-35 -16 -35 -69zM993 293q0 107 27 162q26 49 53.5 81.5t73.5 59.5q77 41 215 41q54 0 104 -19t84 -46.5t55.5 -52.5 t30.5 -44q33 -38 33 -184q0 -85 -51 -164q-22 -29 -34.5 -43.5t-37.5 -34t-53 -31.5q-95 -26 -186 -26q-106 0 -201 65q-46 33 -79.5 106t-33.5 130zM1262 299q0 -31 16.5 -52.5t50.5 -21.5q24 0 53 23q21 25 21 55q0 56 -12 68q-26 30 -50 30q-20 0 -42 -12t-29 -29 q-8 -20 -8 -61z" />
<glyph unicode="&#x26;" horiz-adv-x="1871" d="M152 418q0 33 24 155q12 48 47.5 107.5t73.5 97.5q77 74 121 107q-4 8 -9 13t-15 14t-21 20q-40 45 -60 57q-10 20 -10 64v157q0 56 8 95q20 10 109 10q14 0 73.5 -1t75.5 -1q62 0 162.5 -2t122.5 -2q25 -2 74 -2q24 0 50.5 1t55.5 1q7 0 58 1t65 1q42 -2 58 -8t22 -23 q4 -10 4 -33q0 -13 -1 -40t-1 -40v-92q0 -74 -6 -80q-19 -12 -68 -12h-55q-21 0 -52 1t-42 1q-4 0 -24 -1t-46 -1q-19 0 -43 2t-35 2q-22 0 -57 -4q0 -7 36 -41.5t56 -50.5q45 -35 90 -80q11 -10 58.5 -58t86.5 -83t60 -43q8 13 16.5 24t12 17t13 23.5t26.5 51.5 q4 8 13.5 34t18.5 46t15 27q18 18 94 18h149q90 0 103 -30q0 -2 1 -9.5t1 -9.5q0 -47 -49 -164t-99 -186q-5 -7 -11.5 -16t-9.5 -12.5t-7 -10t-6 -10t-5 -10t-5.5 -12.5t-6.5 -15q20 -30 83 -89t67 -65q18 -23 55 -54.5t53 -49.5q2 -2 19.5 -17t27.5 -27.5t15 -27.5 q-4 -25 -20 -38t-36 -13q-35 0 -89.5 -1t-63.5 -1q-11 0 -28 1t-25 1q-15 0 -49.5 -1t-57.5 -1q-60 0 -96 39q-53 56 -96 82q-7 0 -20.5 -12.5t-34 -30t-38.5 -25.5q-11 -5 -41 -22t-49 -25q-9 -3 -43 -18t-65 -21q-103 -18 -209 -18q-101 0 -139 6q-79 13 -175.5 56 t-117.5 81q-42 27 -74.5 88t-44.5 109q-18 67 -18 129zM555 444q0 -63 55 -118q23 -22 66 -37t84 -15q71 0 149 33q19 10 41 27q6 3 15.5 12t13.5 12q-6 6 -22 21t-28 27t-18 20q-21 27 -122 115.5t-119 105.5q-24 -11 -48 -36t-38 -48q-29 -52 -29 -119z" />
<glyph unicode="'" horiz-adv-x="696" d="M164 1217v88q0 55 10.5 76.5t48.5 31.5q10 4 35 4q12 0 38 -2t38 -2h61q85 0 111 -11.5t26 -49.5q0 -103 -18 -250q0 -2 -19.5 -116t-19.5 -163q0 -35 -14.5 -76.5t-34.5 -44.5q-12 0 -39 -3t-51 -3q-5 0 -21 -1t-26 -1q-68 0 -80 35q-10 31 -10 102q0 15 -11.5 107 t-11.5 125q0 28 -6 72t-6 82z" />
<glyph unicode="(" horiz-adv-x="884" d="M186 571q0 109 2 138q0 45 5 118.5t12 106.5q22 106 33 147.5t36 102.5q8 21 24.5 53.5t23.5 50.5q9 29 26 49q14 15 58 88q8 19 30 41q16 19 62 58q16 8 32 8q36 0 82 -21q23 -10 105 -59q1 -1 8 -5t10 -6t8.5 -7t8 -9t4.5 -11t2 -15q-18 -68 -64 -185 q-11 -25 -17.5 -46t-13.5 -52t-12 -49q-21 -76 -26.5 -115t-10.5 -127q0 -4 -2.5 -15t-5 -33.5t-2.5 -55.5v-125q0 -113 24.5 -242t59.5 -233q12 -38 31.5 -88.5t29 -79t9.5 -41.5q0 -28 -47 -47q-12 -6 -26 -17t-26 -16q-9 -4 -25.5 -13t-24.5 -12.5t-21.5 -8.5t-27.5 -7 t-30 -2l-28 6q-39 11 -129 151.5t-117 237.5q-39 137 -54.5 217.5t-15.5 169.5z" />
<glyph unicode=")" horiz-adv-x="882" d="M127 -66q0 14 8 34t23 54.5t26 69.5l15 45t22 72t8 45q3 18 12 54.5t15 64.5t6 43q0 46 10 108q9 62 9 119q0 48 -5 120t-6 93l-26 172q-2 9 -17 50.5t-16 54.5t-7.5 24t-8.5 27q-3 19 -14.5 57.5t-29.5 90t-20 57.5q-4 16 -4 20q0 14 12.5 25t41 26t42.5 25q43 29 58 33 q44 14 69 14q7 0 14.5 -2t17 -5.5t13.5 -4.5q36 -35 58 -68.5t32 -42.5q11 -9 26 -32t24.5 -41.5t24.5 -49t18 -35.5q7 -13 14 -33.5t14 -33.5q20 -44 47 -134t33 -132q8 -70 8 -115q0 -10 2 -34.5t2 -43.5q0 -15 -3 -55t-3 -70q0 -183 -28 -264q-3 -32 -11.5 -63.5 t-20.5 -62.5t-14 -38q0 -11 -4 -21.5t-11.5 -24t-10.5 -20.5q-5 -12 -11 -31.5t-16 -35.5q-12 -17 -38 -64t-54 -79q-65 -109 -125 -109q-35 0 -70.5 16t-70.5 41l-35 25q-45 18 -45 65z" />
<glyph unicode="*" horiz-adv-x="1105" d="M100 1024q0 28 22.5 78t47.5 90q8 12 24.5 19.5t24.5 7.5q30 -9 103.5 -51t97.5 -46v43v95q0 49 2 69q3 54 30.5 69t92.5 15q93 0 113 -15t20 -91v-187q9 3 50.5 24t55.5 27q19 6 54 26t55 24q8 -9 15.5 -13t15.5 -14q7 -7 23 -36t20 -34q11 -12 22.5 -40.5t11.5 -49.5 q0 -11 -6 -20q-11 -15 -105 -54t-110 -57q9 -20 62.5 -102.5t56.5 -112.5q-2 -5 -3.5 -18.5t-6 -24t-15.5 -20.5q-30 -28 -74 -50t-73 -22q-44 0 -55 20q-11 16 -60.5 108t-58.5 114q-9 -13 -64.5 -112t-68.5 -110q-23 -20 -66 -20q-30 0 -76 27t-51 28q-37 33 -37 54 q0 18 6.5 34.5t19.5 37.5t17 30l84 133q-22 14 -110 53t-103 56q-4 4 -4 18z" />
<glyph unicode="+" horiz-adv-x="1120" d="M113 649v66q0 34 4 51.5t20 21.5q24 9 70 9q17 0 66 -1t65 -1q45 0 63 4q2 10 2 137q0 9 -1 27.5t-1 27.5v13q0 68 17 81q11 9 129 9h65q26 0 56.5 -3.5t33.5 -3.5q19 -19 19 -40q0 -19 -2 -29l-4 -225q29 -1 49 -2t28 -2t9 -1q13 0 72 3.5t79 3.5q19 0 28.5 -4.5 t16.5 -20.5q11 -22 11 -41q0 -4 -1 -55.5t-1 -55.5q0 -12 1 -37t1 -38q0 -5 -5.5 -12t-13 -13t-8.5 -8q-16 -8 -53 -8q-23 0 -70 2t-74 2q-41 0 -65 -6q-4 -90 -4 -160q0 -14 2 -34.5t2 -26.5q0 -53 -21 -64q-18 -10 -75 -10h-125q-73 0 -84 8q-11 5 -11 76q0 26 2.5 86 t2.5 82q0 41 -5 49q-12 2 -41 2q-25 0 -87.5 -3t-84.5 -3q-35 0 -51 6.5t-22 26.5q-4 46 -4 114z" />
<glyph unicode="," horiz-adv-x="643" d="M90 -326q4 25 29 80q2 5 26 54t29 69q2 10 11.5 27.5t11.5 23.5q24 63 24 86q-10 3 -25 13t-28 14q-8 3 -14 10.5t-14 24t-9 18.5q-18 38 -18 82q0 54 22 103q7 17 35.5 45t44.5 36q41 23 104 23q34 0 78.5 -13.5t59.5 -25.5q14 -10 40 -52t31 -77q0 -4 1 -12.5t1 -12.5 q0 -89 -47 -192q-6 -13 -27 -52t-26 -59q-4 -16 -18 -44t-15 -31q-29 -79 -59 -129q-17 -25 -43 -25q-35 0 -66 -2q-46 -4 -79 -4q-49 0 -60 22z" />
<glyph unicode="-" horiz-adv-x="1026" d="M113 555q0 9 2 44t2 73q0 6 -2 35t-2 38l2 43q3 37 22.5 47.5t61.5 10.5q1 0 41.5 -6t103.5 -6q34 0 77.5 1t72.5 2l30 1l49 -4q25 -5 35 -5q24 0 36 5.5t28 5.5q22 0 57 -2t51 -2q7 0 15.5 0.5t22.5 1.5l28 2q20 0 29.5 -1t19.5 -7t14 -19t4 -35v-135q0 -56 -3 -75 t-15 -31q-28 -35 -43 -39q-20 0 -74 -2t-80 -2q-31 0 -41 2l-350 -2q-138 2 -149 3q-35 5 -42 28q-3 11 -3 30z" />
<glyph unicode="." horiz-adv-x="643" d="M113 164q0 46 16 92.5t43 67.5q4 2 19 15.5t36 20.5q62 23 99 23q90 0 145 -49q26 -21 42.5 -63t16.5 -83q0 -49 -20 -92t-51 -67q-52 -39 -133 -39t-130.5 31t-70.5 75q-12 24 -12 68z" />
<glyph unicode="/" horiz-adv-x="774" d="M59 -100q0 25 7 67t12 58q3 6 6.5 25.5t7.5 29.5q11 33 25.5 91t23.5 99.5t24 111.5t17 77q6 31 31 123.5t31 130.5q4 15 11.5 55t15 71.5t16.5 51.5l10 67q11 20 21.5 59.5t19.5 86t10 51.5q8 34 21 89.5t23 96.5t18 66q12 40 34.5 51.5t92.5 11.5q10 0 31.5 1.5 t33.5 1.5q5 0 55 -5q16 -2 24 -4t18.5 -6.5t15 -13.5t4.5 -23q0 -2 -2 -13q-10 -49 -25 -130q-2 -8 -9 -32.5t-12.5 -46.5t-6.5 -34q-1 -19 -13 -57.5t-14 -50.5q-28 -144 -43 -195q-15 -48 -78 -307q-1 -5 -8 -47t-10 -55q-38 -132 -41 -162q-6 -65 -31 -156 q-14 -37 -23 -97t-18 -89q-20 -63 -38.5 -84t-65.5 -21q-25 0 -79 3t-83 3q-60 0 -60 50z" />
<glyph unicode="0" horiz-adv-x="1542" d="M133 684q0 97 37 221q17 61 25.5 88t27 66.5t45 72t68.5 72.5q30 28 100.5 72t106.5 51q15 3 58.5 13t84 15t98.5 5q38 0 58 -2q53 -5 152.5 -34t131.5 -54q33 -20 50 -37q17 -19 51.5 -53t52 -52.5t39 -54t35.5 -76.5q55 -175 55 -319q0 -121 -14 -201 q-2 -13 -10.5 -34.5t-10.5 -30.5q-54 -232 -215 -338q-80 -58 -147 -84q-61 -19 -64 -21q-53 -20 -149 -20q-32 0 -64 4q-12 2 -40.5 6.5t-40 6t-33 6t-40 9t-40.5 11.5q-85 18 -121 47q-89 67 -142.5 126t-87.5 144q-51 140 -51 264q0 2 -1.5 18t-3 41.5t-1.5 51.5z M547 616q0 -188 92 -282q16 -14 52 -27.5t71 -13.5q21 0 69 12q51 12 81 50t55 100q30 72 30 198q0 71 -17 166.5t-48 128.5q-37 37 -70 53.5t-84 16.5q-126 0 -196 -139q-16 -32 -25.5 -107.5t-9.5 -155.5z" />
<glyph unicode="1" horiz-adv-x="1077" d="M80 1026q0 32 53 68q47 31 159 96.5t163 99.5q16 12 23.5 15.5t11.5 5t18 1.5t27 1q10 0 31.5 2t31.5 2q18 0 33 -6q6 -2 16 -2q5 0 14.5 1t14.5 1q8 0 52 3t71 3q32 0 49.5 -10.5t30.5 -38.5q2 -78 2 -152q0 -167 -4 -196v-43q0 -20 2 -61.5t2 -63.5q0 -21 -1 -55 t-1 -58v-39q0 -9 2 -29.5t2 -33.5q0 -26 -2 -60.5t-2 -40.5q-5 -20 -5 -59q0 -24 2.5 -74.5t2.5 -71.5q0 -145 -11 -188q-9 -28 -25 -36.5t-57 -8.5q-11 0 -54.5 1t-49.5 1q-7 0 -60 -1t-87 -1q-66 0 -78 31q-2 29 -2 59v31q0 6 1 24.5t1 32.5q0 36 -2 124t-2 124 q0 28 3 64.5t3 60.5q0 28 -3 79t-3 70q0 6 1 19t1 22q0 5 -1 13t-1 16q0 15 3 55t3 45q0 7 -4 19q-28 0 -62 -31q-10 -9 -61 -41q-62 -35 -94 -35q-43 0 -82 72q-7 10 -22.5 44.5t-18.5 39.5q-29 39 -35 90z" />
<glyph unicode="2" horiz-adv-x="1497" d="M143 1155q0 59 45 80q64 33 103 43q15 4 50.5 16t63.5 19.5t48 9.5q17 1 49.5 11t46.5 12q88 14 182 14q88 0 147.5 -6t135.5 -29q84 -26 149 -84q2 -2 13.5 -11.5t16 -14t11 -12.5t10.5 -15q12 -25 32 -53t26 -45q22 -74 22 -154q0 -36 -10 -94q-16 -98 -108 -201 q-5 -7 -18 -19t-31 -27t-21 -17q-19 -17 -57.5 -40.5t-57.5 -41.5q-17 -16 -27 -24t-16 -11t-22 -11.5t-35 -19.5q-4 -2 -27 -14t-45 -24.5t-47 -27t-40.5 -27t-16.5 -20.5q5 0 18 -1t21 -1q34 0 131.5 9.5t138.5 9.5q70 0 86 -2h7q7 0 18.5 0.5t25.5 1t31.5 0.5h32.5 q78 0 88 -6q22 -11 22 -66q0 -22 -3 -44l-3 -23q0 -2 2 -4t2 -15q0 -8 2 -36t2 -36q0 -6 1 -17t1 -17q0 -39 -10 -56q-61 -12 -135 -12h-68h-34q-13 0 -62.5 -1t-66.5 -1q-5 0 -19 1t-22 1q-6 0 -19 -1t-24 -1q-43 2 -213 2q-46 0 -134 -3t-133 -3q-160 0 -233 12 q-1 3 -10 15.5t-9 19.5q0 11 2.5 43t2.5 53v170q0 6 12.5 25t13.5 22q3 9 53.5 42.5t110 72.5t76.5 55q16 15 46.5 29t49.5 35q14 15 73.5 50t71.5 46q14 14 78.5 59.5t75.5 71.5q1 4 8 22t12 34.5t5 25.5q0 40 -13 66q-13 24 -39 36.5t-79 12.5q-32 0 -71 -9.5t-50 -9.5 q-42 0 -144 -41q-2 -1 -35.5 -9.5t-44.5 -14.5q-52 -27 -96 -27q-20 0 -38 26.5t-46 96.5q-2 5 -9 20t-11.5 27t-5.5 23q-1 10 -7 31t-6 28z" />
<glyph unicode="3" horiz-adv-x="1423" d="M113 115q0 26 16 65q11 27 41 88l29 62q4 12 7 15t7.5 5.5t9.5 9.5q11 14 17.5 17.5t19.5 3.5q28 0 127 -41q34 -15 111 -29q51 -9 75 -16q38 -10 76 -10q79 0 134.5 18.5t66.5 44.5q0 1 6.5 15t12 29t5.5 24q0 33 -18 62t-35 36q-65 29 -145 29q-39 0 -85 -4t-69 -4 q-3 0 -15 6t-15 6q-19 8 -25 26.5t-6 53.5q0 40 -1 73.5t-2 53t-1 24.5q7 23 28 41.5t49.5 35t32.5 19.5q17 12 60.5 36t68.5 42t25 31q0 8 -37 8q-22 0 -78 -4t-78 -4h-241q-87 0 -103 6q-20 7 -24 18t-4 37q0 20 2 43t2 29q0 17 -4 45.5t-4 71.5q0 9 3.5 31.5t4.5 29.5 q33 17 147 17q31 0 86 -2t82 -2q38 0 133.5 2t122.5 2q31 0 71 -3t64 -3q2 0 50 4t90 4q57 0 75 -2q14 -1 36.5 -2t33.5 -2t26 -9t27 -24q0 -7 1 -22t1 -23q0 -15 -1 -48.5t-1 -50.5q0 -11 2 -48.5t2 -51.5t-18 -39q-31 -39 -136 -103t-118 -83q9 -3 41.5 -10t67 -19 t61.5 -31q79 -58 113 -100q29 -34 50 -102.5t21 -120.5q0 -28 -10 -80t-12 -72q-13 -71 -69.5 -139t-129.5 -102q-68 -35 -76 -39q-9 -4 -42.5 -13.5t-45.5 -11.5q-150 -20 -170 -20q-23 0 -70 4t-71 4q-38 0 -66 4t-68 14t-63 15q-5 1 -30.5 2.5t-38.5 7.5q-54 22 -102 37 t-67 20.5t-24 12.5q-22 29 -22 49z" />
<glyph unicode="4" horiz-adv-x="1609" d="M117 424q0 27 2 74.5t2 58.5q10 58 88 152q109 142 135 188q4 6 24.5 32t24.5 32q7 12 23 29t18 24q6 18 49 73q24 29 51.5 68t40.5 55q32 47 68 78q42 23 111 23q16 0 68.5 -2t80.5 -2q12 0 37 2t39 2q19 0 60 -3t57 -3q8 0 29.5 2t33.5 2q71 0 84 -19q6 -25 6 -143 q0 -35 -1 -100.5t-1 -90.5q0 -14 1 -45t1 -49q0 -26 -1 -80t-1 -80q0 -18 2 -131q24 -8 54 -8q5 0 17 1t19 1l6 -1q6 -1 11 -1q8 0 28 1t29 1q17 0 28 -16.5t11 -38.5q0 -8 -3 -26t-3 -23q0 -11 2 -37.5t2 -40.5q0 -13 -1 -40t-1 -40q0 -71 -35 -78q-24 0 -55.5 -1t-38.5 -1 q-5 0 -25 2t-28 2q-3 0 -8 -1t-7 -1q-4 -12 -4 -43v-63q0 -13 1 -36.5t1 -31.5q0 -31 -6 -37q-29 -16 -82 -16q-14 0 -39.5 1t-36.5 1q-3 0 -8 -1t-8 -1q-8 0 -35 1t-39 1h-43q-10 0 -27 -1t-22 -1q-32 0 -42.5 8.5t-10.5 32.5q0 9 2 41t2 57q0 28 -4 86q-35 4 -117 4 q-48 0 -91.5 -2t-53.5 -2h-168q-4 0 -29 0.5t-61 1t-68 0.5q-16 0 -48.5 1t-41.5 1q-19 0 -30.5 13.5t-18.5 46.5q0 17 -3 64t-3 73zM524 561q16 -8 56 -8h151q90 0 119 2q4 36 4 57q0 14 -1 39.5t-1 34.5q0 5 1 14t1 13q0 7 1 15t1 20q2 178 4 213v2q0 28 -16 34 q-18 -7 -61 -71.5t-54 -75.5q-24 -25 -67 -89t-66 -89t-46.5 -63t-25.5 -48z" />
<glyph unicode="5" horiz-adv-x="1472" d="M154 106q0 22 8 46q2 7 15 38.5t13 38.5q2 4 6 7t7.5 6t8.5 14t9 29q8 29 32.5 53t41.5 31q30 0 96.5 -25t93.5 -29q1 0 73 -16t112 -16q48 0 74.5 1.5t64.5 12t65 31.5q44 37 44 121q0 29 -29 71q-41 58 -158 58q-61 0 -127 -21q-9 -3 -57.5 -24.5t-77.5 -22.5 q-58 -4 -164 -4q-45 0 -78 26q-32 27 -32 89q0 6 2 36.5t2 47.5q0 27 -3 67t-3 49q0 17 3 59.5t3 75.5q0 19 -3 85t-3 110q0 25 1 52t1 40q0 26 24.5 47t48.5 21h74q15 0 51.5 1t61.5 1q15 0 45 -1t45 -1q44 0 85 -2t44 -2q14 0 70 2t59 2h174q50 -4 57 -4q9 0 45.5 2 t79.5 2q39 0 59.5 -13.5t20.5 -50.5v-82q0 -122 -6 -143q-5 -27 -68 -27h-55q-14 0 -42 -1t-42 -1q-16 0 -50 2t-54 2q-13 0 -40 -1t-42 -1h-289v-151q6 -6 20 -6q5 0 42.5 12t74.5 14q31 1 80 8t70 7q107 0 219 -33q92 -27 155 -96q46 -46 58 -80q5 -15 16.5 -42.5 t13.5 -31.5q19 -54 21 -90q2 -16 2 -49q0 -224 -117 -355q-34 -40 -78 -57q-11 -4 -37.5 -26t-43.5 -25q-13 -2 -54.5 -14.5t-66.5 -16.5q-98 -16 -191 -16q-112 0 -268 26q-15 2 -36.5 8.5t-27.5 6.5q-5 0 -17 3.5t-27 8.5t-19 6q-7 2 -33 10.5t-49 16.5t-48.5 19.5 t-40.5 25.5t-15 28z" />
<glyph unicode="6" horiz-adv-x="1484" d="M113 535q0 25 3 48.5t11 60t10 48.5q21 49 35 83t17.5 43.5t10.5 24.5t21 44q13 25 55.5 80.5t65.5 97.5q9 15 75 85t75 87q15 22 47 43t41 29q16 2 43 2h43q16 0 46 1t46 1q23 0 66.5 -1t70.5 -1q56 0 80 -6q16 -22 16 -50q-2 -11 -25 -36t-51.5 -52t-35.5 -37 q-5 -6 -40.5 -39t-41.5 -40q-20 -21 -48 -44.5t-44.5 -40t-24.5 -32.5q20 2 54 10t74.5 12.5t102.5 4.5q93 0 222 -50q66 -26 122.5 -99t86.5 -157t30 -155q0 -96 -18 -164q-10 -32 -39.5 -91t-50.5 -91q-4 -7 -11 -14t-16 -14.5t-14 -12.5q-8 -9 -21 -18.5t-18 -14.5 q-18 -18 -66 -47q-12 -7 -31.5 -19t-30.5 -17.5t-37 -13.5t-65 -14q-93 -16 -182 -16q-5 0 -44 -1t-60 -1q-53 0 -121.5 18.5t-93.5 22.5q-19 3 -59 20.5t-54 30.5q-12 13 -48.5 41t-51.5 49q-7 11 -37 53t-43 65.5t-27 73t-14 105.5q0 22 -3 54.5t-3 50.5zM514 475 q0 -32 10.5 -70t20.5 -51q15 -27 39 -48t45 -25q16 -3 37.5 -9t42 -10t45.5 -4q36 0 69 10q150 54 150 211q0 51 -18.5 95.5t-34.5 58.5q-40 29 -76 42t-103 13q-71 0 -122 -23t-64 -47q-41 -68 -41 -143z" />
<glyph unicode="7" horiz-adv-x="1372" d="M102 1106q0 103 11 172l32 29q24 8 45 8q5 0 21 -1t27 -1h413q14 0 29 -1t22 -1q4 0 24.5 2t49.5 2q39 0 130.5 -2t119.5 -2q33 0 76 2t55 2q36 -9 54 -28t18 -64q0 -49 -2 -88v-88q0 -34 -27 -101q-4 -9 -10.5 -28.5t-13.5 -34.5q-13 -29 -42 -86t-42 -86 q-3 -6 -35.5 -78.5t-40.5 -97.5q-17 -49 -62 -142q-26 -52 -145 -311q-23 -50 -42 -65.5t-69 -16.5h-98q-13 0 -36 -1t-34 -1q-19 0 -53 1t-49 1q-4 0 -19 -1t-20 -1q-27 0 -43.5 10.5t-23.5 42.5q9 32 47 111.5t72 143.5l34 63q3 15 37.5 81t54.5 93q7 20 68 147l76 139 q6 15 34.5 58.5t28.5 62.5q-16 0 -70 -6t-77 -6q-8 0 -28.5 3t-33.5 3q-21 0 -68 -3t-63 -3h-192q-66 0 -125 12q-15 24 -15 156z" />
<glyph unicode="8" horiz-adv-x="1562" d="M123 387q0 104 43 168q22 36 36 55t40.5 42t60.5 38q51 21 64 41q-13 13 -40 27t-51.5 34.5t-42.5 55.5q-43 84 -43 156q0 61 17 100q4 6 16.5 35t16.5 35q5 11 29.5 33t27.5 26q43 52 164 88q62 21 137 33q63 10 215 10q57 0 151 -13.5t140 -27.5q55 -17 111.5 -53 t80.5 -64l39 -55q4 -9 11.5 -21.5t9.5 -17.5t4.5 -14t3.5 -19q0 -5 4 -41t4 -53q0 -44 -12 -72q-23 -60 -62 -102q-26 -28 -62 -48t-40 -32q10 -8 39.5 -23t63 -40t65.5 -64q29 -37 52.5 -95.5t23.5 -119.5q0 -52 -6 -94t-21.5 -75t-29.5 -56t-42 -47.5t-47.5 -38.5 t-56.5 -39q-12 -5 -38 -17t-48.5 -22t-40.5 -16q-100 -37 -383 -37q-125 0 -201 18q-57 15 -87 23.5t-71.5 27t-78.5 43.5q-53 36 -70.5 55t-42.5 68q-27 45 -37 68q-2 16 -6.5 45t-7 51t-2.5 41zM551 408q0 -35 8 -68q9 -41 47.5 -68t79.5 -36t84 -9q21 0 38.5 1.5t33 4 t22.5 3.5q77 11 121 67q29 42 29 90q0 36 -17 82q-33 82 -133 98q-35 7 -82 7q-13 0 -38.5 -1t-34.5 -1q-8 -7 -34 -12.5t-38 -10.5q-86 -38 -86 -147zM584 963q0 -29 8 -50t18 -29.5t21 -18t14 -15.5q62 -35 135 -35q97 0 133 31q40 31 53 60t13 67q0 49 -54 91t-124 42 q-78 0 -144 -31q-25 -12 -49 -47.5t-24 -64.5z" />
<glyph unicode="9" horiz-adv-x="1519" d="M102 829q0 50 13 91q2 9 8.5 52t18 75t32.5 53q20 19 33.5 41t35.5 46t72 60q38 25 100 51t87 29q14 2 83.5 16.5t112.5 14.5q25 0 68 -2t53 -2q92 -3 184 -26.5t146 -57.5q61 -38 113 -86q58 -67 91 -167.5t33 -199.5q0 -63 -10 -102q-22 -102 -44 -173t-60 -143 l-137 -223q-15 -27 -32 -50.5t-29 -35.5l-11 -12q-20 -24 -34.5 -37.5t-39.5 -25t-55 -11.5q-18 0 -46.5 -2t-33.5 -2q-64 0 -162 4q-13 0 -45 -2t-49 -2q-42 0 -45 43q0 15 27.5 52.5t61 77.5t40.5 52q11 21 66 84t57 86q-9 -1 -40 -11t-77 -17t-110 -7q-16 0 -46.5 4 t-44.5 5q-75 13 -133 41q-184 99 -221 258q-2 9 -10.5 40.5t-14.5 63t-6 57.5zM514 838q0 -123 100 -170q34 -15 93 -15h30q78 0 162 52q28 29 46 76t18 81q0 73 -52 133q-16 31 -63 49.5t-96 18.5q-17 0 -32.5 -1t-25.5 -2.5t-23 -5t-18.5 -5t-19.5 -6.5t-19 -7t-31.5 -24 t-33.5 -31q-22 -36 -33 -86q-2 -16 -2 -57z" />
<glyph unicode=":" horiz-adv-x="684" d="M133 164q0 46 16.5 92.5t43.5 67.5q4 2 19 15.5t36 20.5q62 23 98 23q91 0 146 -49q26 -21 42.5 -63t16.5 -83q0 -49 -20.5 -91.5t-51.5 -67.5q-52 -39 -133 -39t-130.5 31t-70.5 75q-12 24 -12 68zM133 813q0 129 133 184l10 5q10 4 20.5 7t18.5 3q10 0 27.5 -2.5 t26.5 -3.5q91 -7 136.5 -60.5t45.5 -124.5q0 -51 -22.5 -96t-61.5 -68q-6 -4 -17.5 -11.5t-16 -10t-14 -5t-22.5 -3.5q-8 0 -38 -2t-42 -2q-53 0 -145 59q-18 11 -28.5 53t-10.5 78z" />
<glyph unicode=";" horiz-adv-x="684" d="M119 -309q0 19 20.5 58t24.5 50q13 41 41.5 98.5t36.5 82.5q13 40 14 45q-11 1 -24 5.5t-21.5 10t-19 12.5t-13.5 8q-10 3 -28 43q-17 39 -17 82q0 18 3 35.5t6.5 29t11 25t11 19t11.5 16t8 11.5q16 27 66 43t98 16q45 0 100 -26t72 -68q7 -16 18 -57.5t11 -61.5 q0 -35 -8 -61.5t-25 -65t-27 -72.5q-6 -19 -53 -121.5t-53 -119.5q-20 -49 -38 -60.5t-56 -11.5q-19 0 -57 -1t-54 -1q-32 0 -45.5 8.5t-13.5 28.5zM133 817q0 79 57 135t154 56q23 0 40.5 -3t38.5 -9.5t30 -8.5q2 -2 30.5 -21.5t36.5 -35.5q7 -13 20 -50t13 -49 q0 -86 -49 -143q-6 -7 -15 -13t-20.5 -12t-17.5 -10q-50 -32 -115 -32q-94 0 -150 61q-39 39 -39 59q0 15 -7 39t-7 37z" />
<glyph unicode="&#x3c;" horiz-adv-x="1077" d="M133 629v51q0 38 3 60t6.5 28.5t11.5 15.5q9 11 55.5 38t75.5 34q14 3 57 26t61 29q37 13 149.5 63t145.5 68q16 8 60.5 26t52.5 22q31 14 66 14q49 0 49 -68q0 -12 -1 -41.5t-1 -50.5q0 -12 1 -35.5t1 -38.5q0 -28 -8 -41q-21 -27 -215 -99t-207 -81q4 -6 14 -12t27 -13 t33.5 -13t41.5 -15t43 -16q151 -58 187 -64q84 -17 84 -100q-2 -51 -2 -86q0 -16 1 -41t1 -35q0 -37 -15 -47q-19 -14 -34 -14q-10 0 -84 24q-38 13 -88 33.5t-107.5 45t-81.5 34.5q-211 88 -280 133q-10 6 -42.5 20t-46.5 33q-14 39 -14 113z" />
<glyph unicode="=" horiz-adv-x="1183" d="M143 311v2q0 2 0.5 8t1 16t0.5 31v48v43q0 32 6 52.5t18.5 28.5t23.5 10.5t30 2.5q15 0 45 -2t45 -2q19 0 29 2h135h146q165 0 198 -2q13 0 41 2t41 2h15q25 0 62 -3.5t50 -4.5q8 -13 8 -74q0 -20 1 -58t1 -53q0 -44 -8.5 -67t-34.5 -29q-18 0 -70.5 1t-99.5 1 q-15 0 -115.5 -4t-119.5 -4q-60 0 -168 1t-160 1q-2 0 -15 -1t-22 -1q-84 0 -84 53zM145 973q0 42 18.5 53.5t86.5 11.5q8 0 83 -1t111 -1q4 2 17 2q11 0 33.5 -4t35.5 -4l240 6h6q31 0 58 -3t49 -3q19 0 51.5 2t42.5 2q41 -7 50 -24t9 -68v-90q0 -62 -11.5 -82t-33.5 -20 q-5 0 -16.5 1t-16.5 1h-22q-20 0 -78 -1t-78 -1q-25 -2 -405 -2q-28 4 -49 4h-11q-1 0 -15 -2t-35 -3.5t-40 -1.5q-55 0 -66.5 22t-11.5 126q0 19 -1 45.5t-1 34.5z" />
<glyph unicode="&#x3e;" horiz-adv-x="1079" d="M152 270v131q0 45 8 66q21 25 92 51q30 13 106.5 39t100.5 41q13 8 68 25.5t67 25.5q-11 8 -89 36t-163.5 57t-101.5 36q-65 30 -72 41q-12 20 -14 45q-2 8 -2 33q0 10 1 33t1 35q0 4 -1 18.5t-1 28.5q0 8 1 27t1 28q0 16 15 26.5t32 10.5q12 0 28.5 -5.5t47.5 -19 t57 -22.5q20 -2 81.5 -31.5t84.5 -36.5q26 -13 77.5 -33t77.5 -34q6 -3 69 -26.5t81 -39.5q16 -9 54.5 -26t43.5 -19q36 -18 39 -72q4 -50 4 -112q0 -10 -2 -26.5t-2 -25.5q0 -11 1 -24t1 -25q-24 -30 -82 -53.5t-69 -32.5q-10 -9 -52.5 -26.5t-50.5 -22.5q-61 -35 -131 -55 q-32 -4 -61 -25q-7 -3 -27 -15.5t-36.5 -20t-33.5 -11.5q-39 -11 -82 -35q-7 -7 -53 -21.5t-65 -14.5q-24 0 -37 16q-12 14 -12 61z" />
<glyph unicode="?" horiz-adv-x="1275" d="M92 1208q0 10 8 27t9 22q50 40 157.5 85.5t196.5 56.5q35 3 99 13.5t100 10.5q58 0 110 -6q28 -3 88 -16t72 -15q19 -4 34.5 -10t24.5 -12t26.5 -17.5t29.5 -19.5q51 -31 88 -88.5t49 -126.5q8 -58 8 -104q0 -47 -17 -88t-51 -95q-8 -13 -15.5 -21.5t-17.5 -17.5 t-14.5 -12.5t-20 -14.5t-22.5 -16q-15 -11 -30 -19t-23 -12t-36.5 -16t-43.5 -18q-9 -4 -45 -13t-64.5 -19.5t-33.5 -20.5q-5 -9 -11.5 -62.5t-15.5 -62.5q-18 -18 -41 -21q-31 -2 -82 -2q-30 0 -71 2t-56 2q-25 0 -47 11q-33 17 -33 116q0 18 1 56.5t1 60.5q0 53 -2 57 q1 1 11 22.5t23 39t28 22.5q24 9 65 25t71 27t54 16q101 21 101 80q0 34 -29 57q-33 19 -88 19q-86 0 -197 -33q-40 -11 -83.5 -29t-71.5 -29.5t-43 -11.5q-50 0 -84 60l-37 73q-29 52 -29 88zM381 158q0 13 4 45q12 87 78 123q8 4 21.5 11.5t25 13t25.5 9.5q3 0 28 3.5 t37 3.5q58 0 105 -27q26 -15 53 -50.5t33 -62.5q4 -12 4 -37q0 -68 -47 -131q-24 -34 -64 -51.5t-84 -17.5q-86 0 -137 22q-29 9 -47 41q-35 53 -35 105z" />
<glyph unicode="@" horiz-adv-x="1904" d="M143 573q0 8 2 38.5t2 43.5q4 155 46 240q0 49 40 131q3 7 13.5 20.5t15.5 20.5q7 16 44.5 66.5t53.5 66.5q138 118 185 133q20 20 59 25q43 36 152.5 61t210.5 25q116 0 199 -19.5t190 -62.5q161 -67 221 -152q7 -10 36.5 -40t37.5 -52q10 -28 33.5 -64.5t31.5 -58.5 q35 -92 37 -143q1 -17 6.5 -46t5.5 -48q0 -154 -14 -203q-7 -28 -27.5 -74t-27.5 -69q-9 -30 -54 -86q-110 -127 -266 -127q-69 0 -137 28q-65 29 -100 117q-2 -3 -8.5 -14t-9.5 -16.5t-10 -15.5t-12 -16.5t-12 -13.5t-14 -12q-80 -57 -176 -57q-81 0 -140.5 18t-76.5 33 q-37 29 -68 63q-9 5 -18 14t-19 26t-16 27.5t-17.5 36t-15.5 32.5q-26 119 -26 169t11.5 118.5t25.5 113.5q8 22 48 79t58 70q99 80 229 80q62 0 109 -13.5t67.5 -30t39 -31.5t28.5 -17q3 0 6.5 14.5t10.5 32.5t18 25q27 8 98 8q54 0 107 -16q26 -46 26 -68q0 -20 -2 -87.5 t-2 -109.5v-153v-150q0 -26 13.5 -43.5t35.5 -17.5q37 10 54 29q13 16 35 100q20 82 20 156q0 23 -5.5 60t-6.5 48q-1 17 -4.5 34.5t-7.5 28t-9 24t-6 16.5q-57 161 -199 239q-6 3 -35 13t-52.5 19t-24.5 13q-23 4 -69.5 13t-81.5 13.5t-72 4.5q-19 0 -66 -9.5t-68 -9.5 q-25 0 -51 -7t-38 -12t-44 -22t-37 -20q-108 -73 -167 -143q-47 -51 -77 -162.5t-30 -231.5q0 -63 21 -153.5t49 -134.5q20 -41 38 -63t38.5 -38.5t31.5 -29.5q39 -49 139 -79t193 -30q79 0 158 14q40 8 96 25l23 11.5t23.5 10.5t14.5 3q28 0 35 -27q3 -12 7.5 -19t7.5 -16 q5 -15 12 -32.5t11 -26.5t6.5 -21.5t2.5 -25.5q0 -16 -17 -27t-47 -22t-44 -19q-21 -3 -89 -19t-118 -18q-12 -2 -70 -2q-67 0 -147 8.5t-98 18.5l-70 18q-39 25 -79.5 48t-68.5 40.5t-63 44.5q-41 31 -92 107t-70 127q-29 59 -52.5 149t-23.5 135zM817 639q0 -88 39 -135 q33 -41 92 -41q39 0 60 11t59 48q7 5 11.5 55t4.5 93q0 56 -8 92q-22 21 -35 30t-37 16t-61 7q-48 -8 -84 -35q-31 -46 -31 -65q0 -14 -5 -39t-5 -37z" />
<glyph unicode="A" d="M82 53q6 17 15.5 44.5t16.5 47.5t11 29q27 50 96 248q4 12 18.5 40.5t18.5 45.5q6 21 19.5 52t13.5 32q22 47 35.5 97.5t27.5 78.5q11 23 21 48t21.5 56t17.5 48q4 12 15 35t15 34q1 4 11 36.5t18 49.5q3 7 35 94q5 30 16 50.5t22.5 34t14.5 20.5q19 37 103 37 q26 0 90 -1t106 -1q16 0 53 1t68 1q49 0 86 -11q25 -7 40 -27.5t36 -72.5q56 -130 86 -213q7 -19 23 -58t28 -71t20 -61q8 -30 68.5 -170.5t63.5 -149.5q8 -35 14 -49q25 -52 62 -157t48 -128q23 -49 37 -94q0 -14 -15 -32.5t-28 -18.5q-24 0 -79 2t-78 2q-5 0 -27 -1 t-43 -1h-100q-19 0 -43 6q-24 24 -33 64q-3 15 -16 48t-17 44t-8 28t-7 26.5t-7 12.5q-16 0 -48 -2t-47 -2q-7 0 -38.5 2t-55.5 2q-48 0 -177.5 -1t-160.5 -1q-14 -49 -38.5 -108.5t-26.5 -67.5q-8 -30 -23 -42.5t-47 -12.5q-34 0 -101 2t-110 2q-12 0 -28.5 -2t-30.5 -2 q-6 0 -56 4q-22 2 -22 53zM668 557q30 -6 110 -6q155 0 205 4q-11 48 -57 172.5t-58 165.5q-1 3 -5 17.5t-6.5 22.5t-6.5 19t-8 17t-8 8l-17 -10q-14 -20 -40 -107.5t-36 -107.5z" />
<glyph unicode="B" horiz-adv-x="1646" d="M193 80v156q0 28 2 65t2 82q0 17 -2 86t-2 86q0 19 3 51t3 45q0 29 -3 83.5t-3 86.5q0 14 2 42.5t2 45.5v52q0 11 1 24t1 27q0 31 -3 62.5t-3 47.5q0 62 2 99v16q0 34 8 47q27 27 86 27q19 0 81 -3t93 -3q28 0 90 4t98 4q24 0 78 -1t86 -1q40 0 123.5 1t130.5 1 q53 0 111 -15q2 -1 36 -7.5t47 -11.5t42 -22.5t55 -44.5q35 -36 57.5 -90t22.5 -114q0 -30 -7 -83t-22 -83q-22 -41 -57.5 -80t-71.5 -53q57 -22 111 -64t75 -94q29 -72 29 -197q0 -25 -11 -70t-22 -73q-39 -102 -129 -156q-99 -59 -297 -59q-41 0 -103.5 3t-80.5 3l-18 -1 q-18 -1 -81.5 -2t-174.5 -1q-21 0 -88 -1t-105 -1q-71 0 -125 4q-32 3 -47.5 14t-18.5 24.5t-3 41.5zM606 422q0 -99 2 -109q12 -2 64 -2q23 0 91 -1t99 -1q18 0 41 1t27 1q27 0 51.5 7.5t38.5 9.5q26 4 42.5 33t16.5 61q0 113 -129 113q-4 0 -24 -1.5t-25 -1.5 q-56 -6 -117 -6q-20 0 -62.5 2t-64.5 2q-31 0 -47 -2q-4 -10 -4 -106zM606 928q0 -45 4 -127q16 0 49.5 -2t53.5 -2q25 0 45 4q12 0 37 -1t41 -1h41q43 0 53 2q24 1 32.5 1.5t25 4.5t23.5 11t15 21t12 35q2 8 2 25q0 56 -31 76.5t-96 23.5h-129q-8 0 -38.5 -1t-49.5 -1 q-13 0 -37 1t-32 1q-15 0 -19 -2q0 -3 1 -9t1 -9q0 -8 -2 -25t-2 -26z" />
<glyph unicode="C" horiz-adv-x="1558" d="M139 659q0 75 21 140q5 20 9.5 39.5t10 43t8.5 38.5q2 9 17 35t18 38q6 19 10 26t8.5 8.5t6.5 4.5l2 10q17 51 108 134t156 108q190 78 344 78q110 0 242 -23q30 -4 68 -15t62.5 -20t59 -23t37.5 -15q38 -15 60 -35.5t22 -42.5q0 -26 -14 -62.5t-31 -56.5 q-11 -13 -23 -42.5t-30 -47.5q-20 -32 -32.5 -42.5t-29.5 -10.5q-47 0 -86 20q-39 21 -95.5 39t-92.5 21q-60 6 -84 6q-39 0 -107 -15q-89 -28 -148.5 -96t-68.5 -143q-2 -16 -7 -55t-5 -50q0 -115 47 -198q30 -55 96 -101q24 -20 81.5 -39.5t97.5 -19.5q102 0 157 16 q82 22 127 47q50 31 88 31q7 0 11.5 -3t14.5 -15t19 -21q10 -10 22 -33.5t23 -37.5q20 -29 41 -82t21 -78q0 -16 -9.5 -27.5t-30.5 -24.5t-22 -14q-12 -10 -49.5 -24.5t-66.5 -20.5q-8 -2 -18 -3t-14 -2t-11 -4t-17 -9q-65 -36 -205 -41q-24 0 -35 -3t-22 -3 q-67 0 -173.5 17t-174.5 50q-21 11 -53.5 26.5t-51 25.5t-45 26.5t-51.5 36.5q-17 16 -28 27t-22.5 26t-16 21t-20.5 30t-23 35q-36 51 -59 121t-28 105t-5 47q-11 27 -11 122z" />
<glyph unicode="D" horiz-adv-x="1660" d="M195 319q0 5 2 29t2 37q-2 16 -2 115q0 22 3 68t3 71q0 16 -1 78.5t-1 122.5l2 131q0 29 2 78.5t2 76.5v86q0 36 6 56q34 43 70 43h59q19 0 68.5 2t60.5 2q1 0 88 -6q5 0 16 1t19 1q33 -2 70 -2q15 0 62.5 2t94.5 2q92 0 137 -4q21 -2 52.5 -8.5t44.5 -6.5q55 0 133 -39 q122 -59 170 -112q15 -21 42 -54t39 -50t26.5 -49.5t23.5 -74.5q4 -21 11.5 -54.5t9.5 -48t4.5 -51t3.5 -91.5q0 -114 -11 -148q-7 -19 -9 -38.5t-5 -32.5q-4 -18 -10.5 -37.5t-18.5 -47.5t-16 -38q-12 -35 -34 -67.5t-38 -49t-53.5 -51t-50.5 -47.5q-61 -58 -171.5 -85.5 t-273.5 -35.5l-430 -2q-15 1 -76.5 1.5t-89.5 6.5q-34 9 -34 76q0 12 1 39.5t1 42.5q0 20 -2 80t-2 83zM606 348q13 -10 66 -10h166q61 0 139 33q78 35 110 153q15 75 15 121q0 94 -19 156q-15 44 -35 72t-65 57q-9 5 -22 9.5t-29.5 9t-24.5 7.5q-29 11 -139 11 q-136 0 -154 -11q-2 -18 -6 -157q0 -29 -1 -82t-1 -78t1 -77t1 -79q0 -43 -1 -86.5t-1 -48.5z" />
<glyph unicode="E" horiz-adv-x="1478" d="M195 117q0 16 1 95.5t1 84.5q4 29 4 82q0 26 -2 81t-2 85q0 29 3 83t3 83q0 24 -3 86t-3 108q0 28 -1 97t-1 104q0 134 12 178q10 9 33 18t32 9h93q23 0 87 -2t85 -2q13 0 93 1t101 1q144 0 199 2q42 0 128 -1t134 -1q80 0 98 -13q15 -11 15 -57v-98q-1 -8 -1 -48.5 t-2 -74t-6 -41.5q-12 -10 -59 -10q-38 0 -156 3t-174 3q-18 0 -60.5 -3t-70.5 -3q-19 0 -67.5 2t-71.5 2h-23q-4 -36 -4 -92q0 -40 2 -58q23 0 76 -2t80 -2q18 0 54.5 2t56.5 2q16 0 49 -2t47 -2q25 0 59.5 2t44.5 2q21 0 31 -9t10 -32q0 -16 1 -44.5t1 -41.5t-2 -47t-2 -57 q0 -14 1 -27.5t1 -17.5q0 -37 -47 -37h-78q-25 1 -42.5 2.5t-28.5 1.5q-27 0 -54 -2t-88 -2q-34 0 -86.5 1t-64.5 1h-19q-2 -20 -2 -92v-35q0 -41 6 -51q21 8 41 8q16 0 50 1t53 1h37q41 0 87.5 -2t71.5 -2q48 0 119 3t111 3q21 0 46 -2t32 -2q22 0 31 -17t10 -67v-94 q0 -110 -15 -129q-8 -10 -13 -15t-19.5 -9.5t-36.5 -4.5q-9 0 -22 -2t-23 -2q-14 0 -46 -1t-36 -1q-29 0 -92 3t-95 3q-19 0 -59.5 -3t-61.5 -3q-26 0 -38 2q-20 2 -56 2q-26 0 -63.5 -3t-55.5 -3q-39 0 -125 1t-153 1q-74 0 -88 12q-12 24 -12 107z" />
<glyph unicode="F" horiz-adv-x="1484" d="M188 604q2 16 2 55q0 6 -1 25t-1 35q0 19 3.5 56t3.5 54q0 27 -5 150q0 9 -1 64.5t-1 93.5q0 140 13 163l55 7q10 2 35 2h39q25 0 49 1t29 1q16 0 26 -2q307 0 432 -2q43 0 133 4l119 -2q14 -4 35 -4q5 0 55 4q12 0 31.5 1t26.5 1q42 0 58.5 -14t16.5 -54q0 -11 -1 -53.5 t-1 -75.5q2 -68 2 -92q0 -61 -14 -78q-31 -8 -72 -8q-13 0 -36 -1t-37 -1q-40 0 -117.5 2t-116.5 2q-20 0 -74 -2t-96 -2q-28 0 -83 1t-83 1q-2 -12 -2 -94q0 -126 4 -142q47 -6 246 -6q49 0 111.5 1t64.5 1q4 0 11.5 1t11.5 1q37 0 80 -16q18 -22 18 -141q0 -37 -2 -81.5 t-4.5 -72.5t-3.5 -29q-12 -12 -68 -12q-25 0 -70.5 1t-56.5 1q-13 0 -38 -2t-40 -2q-6 0 -22 2t-25 2q-1 0 -12 -2t-31 -2q-16 0 -62 1t-71 1h-33q-6 -18 -6 -108q0 -146 4 -220q-15 -20 -49 -20q-5 0 -19 1t-22 1q-18 0 -42 -1t-38 -1q-8 0 -28 1t-35 1q-19 0 -64 -1 t-65 -1q-40 0 -53 22q-4 18 -8 60q0 131 2 203q0 12 -2.5 38.5t-2.5 40.5q0 13 2.5 42t2.5 47q0 61 -2 77q-5 29 -5 76z" />
<glyph unicode="G" horiz-adv-x="1626" d="M139 702q4 11 7 23t4 21t4 35t6 46q4 14 8.5 25.5t7 21t4.5 25.5q33 85 45.5 112t31 46t32.5 39q18 24 26 32q6 6 14 17t15 18q33 35 58.5 57t53.5 37.5t47 23t62 23.5t76 29q66 29 195 29q22 0 61 -1t59 -1q16 0 146 -21q1 0 4 -1t4 -1q76 -15 161.5 -50.5t92.5 -37.5 q43 -40 43 -71q0 -18 -8 -39q-6 -18 -29 -56.5t-29 -52.5q-6 -15 -14 -27.5t-16.5 -25.5t-12.5 -19q-20 -36 -51 -36q-59 15 -88 30q-47 25 -118.5 42.5t-137.5 17.5q-114 0 -164 -31q-85 -51 -121.5 -103.5t-56.5 -154.5q0 -1 -1 -13t-2 -28.5t-1 -28.5q0 -22 5 -50t5 -36 q0 -43 32 -101t63 -89q40 -43 100.5 -62.5t114.5 -19.5q15 0 32 -2t25 -2q18 0 49 8q10 3 37.5 7.5t38.5 10.5q14 31 14 74v39q0 49 -6 57q-32 0 -57 1t-31 1q-19 0 -46.5 -1t-37.5 -1q-17 5 -26 14t-13 29q-2 10 -2 88v99q0 19 6.5 32t7.5 19q6 7 17 8.5t51 1.5q25 0 94 1 t74 1q12 -2 39 -2q34 0 59 2q54 0 156 -4q17 -1 28.5 -9.5t22.5 -10.5q33 -21 33 -84q0 -70 -2 -192.5t-2 -129.5q0 -8 4 -39.5t4 -50.5q0 -25 -4 -61q-2 -23 -2 -76q0 -10 -12 -26.5t-33 -24.5q-8 -3 -60 -31.5t-84 -36.5q-191 -51 -223 -51q-21 0 -93 -3t-85 -3 q-31 0 -70.5 6.5t-97.5 19t-72 15.5q-25 3 -67.5 26t-53.5 27q-112 38 -192 145q-69 97 -84 127q-10 20 -17.5 37.5t-14 38.5t-10 32t-10 39t-9.5 38q0 11 -4.5 30t-4.5 25z" />
<glyph unicode="H" d="M195 193q0 23 2 70t2 69q0 6 -1 17t-1 16v643q2 51 2 176q0 15 -1 39t-1 37q0 10 4 18t15 20t13 15h228q5 0 21 -3t24 -3q15 0 36.5 1t28.5 1q32 0 41.5 -14.5t9.5 -67.5q0 -11 -1 -43t-1 -43v-191q0 -4 1 -15t1 -15q0 -7 -1 -23.5t-1 -28.5q0 -14 7 -32h243q10 0 23.5 1 t17.5 1q7 0 23.5 -1t30.5 -1h38q34 0 54 6q0 10 -1 33t-1 30q0 17 2 49.5t2 51.5q0 8 -1 28.5t-1 32.5q2 18 2 61q0 16 -1 46.5t-1 44.5q0 75 18 88q20 4 57 4q1 0 7 -0.5t23.5 -1t45.5 -0.5q58 4 84 4q14 0 40 -1t40 -1q16 -1 34.5 -1h27t19 -1t14.5 -3.5t8 -7t5 -11 t1 -17.5l2 -131l-2 -113q-4 -70 -4 -92q0 -67 2 -98q2 -66 2 -199l-2 -123l2 -94l-4 -219q0 -31 2 -74t2 -55q0 -32 -13 -54q-22 -12 -63 -12q-14 0 -49.5 2t-57.5 2q-33 0 -89 -4t-79 -4q-50 0 -67 14q-4 20 -4 58v196q-1 13 -1 69t-1.5 103t-5.5 60q-5 0 -27 2t-41 2 q-4 0 -19 1t-26 1q-7 0 -57 -4q-14 -2 -62 -2q-16 0 -62.5 1t-64.5 1q-46 0 -76 -6q4 -14 4 -70q0 -29 -1 -75.5t-1 -57.5q0 -10 1 -103t1 -102q0 -3 -1 -15.5t-2 -20.5t-2.5 -18.5t-4.5 -17t-8 -8.5q-21 -12 -51 -12q-8 0 -24.5 1t-26.5 1q-13 0 -68 -2t-88 -2 q-120 0 -133 20q-8 49 -8 74q0 45 -4 103z" />
<glyph unicode="I" horiz-adv-x="802" d="M182 37q2 12 2 74q0 18 4 30q-1 4 -2 18t-2 19l2 516q0 37 1 107t1 106q0 14 -2 42.5t-2 43.5v115q1 16 2 32.5t1.5 25.5t0.5 16q0 10 -1 30.5t-1 30.5q0 25 2 37q15 33 134 33q46 0 71 -2h127q54 0 74 -17q14 -16 14 -149q0 -220 -4 -271v-323q2 -12 2 -125 q0 -46 -1 -116.5t-1 -76.5v-71q0 -20 1 -61.5t1 -57.5q0 -13 -8 -37q-31 -8 -135 -8q-17 0 -44 1t-34 1h-16q-17 0 -49.5 -2t-47.5 -2q-39 3 -56.5 12t-33.5 29z" />
<glyph unicode="J" horiz-adv-x="1239" d="M102 111q0 14 5 30.5t12.5 34t9.5 23.5q8 21 41 74t41 79q30 34 49 39q25 0 70 -19.5t101.5 -39t107.5 -19.5q63 0 88 52q13 29 18 167q0 7 -0.5 18.5t-1.5 39.5t-2 69q0 9 1 30.5t1 29.5q0 19 -2 68.5t-2 72.5q0 17 4 37q-2 18 -2 51q0 6 1 33.5t1 52.5q2 14 2 41 q0 24 -3 46t-3 48q1 12 2.5 27.5t2.5 25.5t1 13q0 4 -1 16t-1 21q0 12 4 20q7 8 10 11t12.5 6.5t24.5 3.5q55 0 80 -2q84 -1 136.5 -2t71 -1.5t28.5 -0.5q34 0 45 -21q8 -16 8 -53q0 -40 -2 -136t-2 -126l2 -353q4 -40 4 -63q0 -14 -1 -43t-1 -45q0 -267 -123 -395 q-38 -38 -104 -74q-32 -19 -82.5 -32t-87.5 -13q-15 0 -36 -2t-44 -2q-14 0 -101 6q-40 5 -93 15t-133 36t-128 60q-29 17 -29 45z" />
<glyph unicode="K" horiz-adv-x="1632" d="M199 53q0 16 1 41.5t1 38.5t2 33t2 31q0 9 -3 25t-3 24q0 4 2 11t2 13v109q0 10 -2 34t-2 33l4 201q-2 12 -2 35q0 17 2 48t2 44q0 11 -2 48t-2 69q0 20 3 63.5t3 65.5q0 12 -2 32t-2 35q0 6 1 23.5t1 28.5q0 17 -2 50t-2 44q0 44 32 76q11 2 62.5 2.5t126.5 0.5t113 1 q25 -1 50 -11.5t33 -21.5q7 -10 7 -92q0 -42 -3.5 -112t-3.5 -118q0 -13 3.5 -40t3.5 -48q0 -20 -2 -30h182q11 9 43.5 65t40.5 74q18 34 52.5 93.5t45.5 78.5l57 109q22 40 52 51h22q21 0 53 0.5t66.5 1t67.5 0.5h51q13 0 44 -1t54 -1q17 0 28 -14.5t13 -30.5 q0 -22 -18 -58l-131 -209q-24 -48 -45 -74t-41 -71q-6 -14 -49.5 -82.5t-43.5 -95.5q0 -28 21 -66q84 -151 155 -264q18 -31 37 -67q3 -6 19.5 -30.5t19.5 -37.5q2 -7 10 -19.5t20.5 -29t18.5 -25.5q33 -52 37 -74q0 -25 -12 -45q-20 -18 -96 -18q-32 0 -99.5 2t-78.5 2 q-22 0 -56 -2t-47 -2q-34 0 -55.5 10.5t-32.5 40.5q-2 5 -26 51.5t-52.5 106t-42.5 94.5q-5 14 -16 32t-12 21q-3 8 -8.5 24.5t-10.5 27.5q-27 53 -45 65q-36 4 -143 4q-39 0 -54 -6q-2 -10 -2 -25t1 -36.5t1 -44.5q0 -14 -2 -55t-2 -52q0 -23 2 -58t2 -71q0 -6 -2 -25 t-2 -30q0 -36 -2 -54q-13 -22 -96 -22h-63q-33 0 -96 -1t-85 -1q-25 0 -49 6q-24 12 -24 51z" />
<glyph unicode="L" horiz-adv-x="1361" d="M184 186l9 244q-5 34 -5 166q0 182 2 221q0 36 7 111q-3 45 -4 93.5t-1.5 78t-1.5 37.5q0 4 2.5 56.5t2.5 55.5q10 39 25.5 52.5t45.5 13.5q11 0 47.5 -2t57.5 -2q15 0 44 2t44 2q5 0 14 -1t14 -1q18 -1 46 -4.5t53 -3.5q28 -10 28 -78q0 -25 -2.5 -90.5t-3.5 -122.5 v-264q-6 -52 -6 -175q0 -139 6 -198l236 -8q93 6 106 6q40 -4 66 -4h14q1 0 19 2t46 4t52 2q35 0 60.5 -11.5t33.5 -29.5q8 -13 8 -154q0 -25 -1 -65t-1 -45q0 -38 -6.5 -52t-33 -21t-91.5 -7q-10 0 -91.5 1t-129.5 1h-299q-34 0 -88 2t-70 2h-157q-33 0 -58 15t-28 32 q-11 52 -11 139z" />
<glyph unicode="M" horiz-adv-x="1974" d="M197 25v256q0 153 3 286t3 156q-2 47 -2 139q0 16 2 56t2 69q0 21 -2 62.5t-2 58.5q0 32 3 57t3 45q10 103 98 103q11 0 35 1t37 1q16 0 66 -3t75 -3q13 0 42 1t40 1q67 0 100 -45q30 -37 140 -226q19 -32 73 -113t88 -147q13 6 37.5 60t30.5 61l145 248q5 8 14 28 t17.5 34t18.5 24q33 78 102 78q34 0 82 1t78 1q14 0 41.5 -3t50.5 -3q29 0 47 2q55 0 76.5 -19t21.5 -59q0 -16 2 -70.5t2 -93.5t1 -129t1 -145q0 -29 1.5 -81t1.5 -73q0 -6 -1.5 -31.5t-1.5 -44.5q0 -81 6.5 -281t6.5 -237q0 -26 -33 -33.5t-96 -7.5h-88q-38 0 -89 2t-61 2 q-47 0 -47 37q0 10 1 38.5t1 45.5q0 12 -3 50t-3 52q0 30 1 94.5t1 96.5v139q0 8 2 67.5t2 80.5q0 16 -4 24q-14 -11 -34.5 -43.5t-34.5 -60.5t-37 -76t-27 -57q-14 -20 -42 -75t-52.5 -95t-40.5 -47q-8 -5 -56 -9t-98 -4q-78 0 -94 13q-6 4 -13.5 16t-9.5 18q-2 9 -17.5 32 t-18.5 30l-91 160q-4 10 -13 23t-20 28t-14 20q-5 7 -26.5 57.5t-38.5 65.5q-6 -18 -6 -57q0 -92 6 -191q2 -18 2 -59q0 -24 -1 -76t-1 -78q0 -50 2 -75q0 -7 2 -59.5t2 -78.5q0 -15 -1.5 -24t-9.5 -17t-24 -10q-39 -8 -119 -8q-3 0 -32 1t-66 1h-74q-54 0 -71 25z" />
<glyph unicode="N" horiz-adv-x="1718" d="M186 53q0 17 3.5 56t3.5 43q0 7 -1.5 31.5t-1.5 41.5v240q0 125 7 207q0 17 -2 36t-2 33q0 29 -1.5 89t-1.5 94t2.5 134.5t2.5 135.5q0 60 9.5 82t35.5 33q7 0 22 1t23 1q14 0 56 -1t73 -1h69q13 0 34.5 1t66.5 1q34 0 59.5 -20.5t56.5 -71.5q4 -6 30.5 -34t31.5 -38 l14 -35q3 -6 13 -20t23 -31.5t15 -20.5q11 -16 19 -25t11.5 -14.5t10.5 -25.5q7 -2 12.5 -5t11 -9.5t8.5 -10.5t10 -14t10 -14q4 -7 36.5 -50t49.5 -71q18 -33 81 -128t68 -104q0 35 -5 101.5t-5 70.5q0 12 1 66t1 92q0 26 -1 83t-1 85q0 139 6 176q3 24 8.5 35.5t13 17 t9.5 9.5q5 0 32 2t43 2q17 0 39 -1l23 -1q21 0 63.5 2t71.5 2q41 0 51 -4q25 -25 25 -119q0 -16 -1 -42t-1 -34q0 -76 -1 -242.5t-1 -253.5q0 -134 4 -380q0 -12 -4 -55t-4 -64q0 -52 -11 -74q-20 -41 -61 -41q-14 0 -45.5 -1t-42.5 -1q-82 0 -117 -2q-95 1 -121.5 7 t-48.5 28q-17 17 -55 71.5t-53 69.5q-3 3 -12 11t-14.5 14t-15 19t-18.5 30q-40 70 -91 135.5t-79 105.5q-18 29 -39 50q-1 1 -20.5 33t-42 69.5t-45.5 73.5t-31 45q0 -5 -1 -17t-1 -18q0 -35 6 -119t6 -112q0 -14 -2 -68t-2 -78q0 -62 4 -180v-62q0 -69 -15.5 -88.5 t-72.5 -19.5q-13 0 -51 2t-68 2q-14 0 -62.5 -2t-66.5 -2q-29 0 -38 13.5t-9 41.5z" />
<glyph unicode="O" horiz-adv-x="1789" d="M139 625q0 123 43 262q44 155 161.5 273.5t238.5 144.5q46 10 64.5 15t36 10t46.5 13q78 19 172 19q55 0 120 -13.5t73 -13.5q41 -1 119 -35t130 -65q237 -147 295 -442q13 -69 13 -123q0 -69 -29 -205q-18 -83 -78 -180t-125 -154l-102 -80q-42 -25 -99 -50t-94 -32 q-110 -20 -225 -20q-111 0 -199 18q-113 23 -253.5 109.5t-188.5 175.5q-7 14 -23.5 43.5t-23 41.5t-18.5 37t-18 42.5t-13 43t-12 52.5q-11 71 -11 113zM557 635q0 -88 43 -169t119 -124q26 -14 66 -28.5t63 -14.5q145 0 214 34t130 140q41 75 41 197q0 63 -12 100 q-22 74 -60 121q-58 72 -147 104q-7 1 -23 5.5t-29 7t-20 2.5q-27 0 -44 1t-21 1q-45 0 -110 -22t-93 -50q-117 -117 -117 -305z" />
<glyph unicode="P" horiz-adv-x="1548" d="M190 41q0 105 9 418l-2 225q-2 10 -2 37q0 17 2 57.5t2 61.5q0 25 -3 76.5t-3 78.5q0 11 2 41t2 43q0 15 2 41t2 37q0 8 -3.5 22t-4.5 19q0 54 10 84q18 11 26 15t27.5 8t46.5 4q26 0 116.5 1t115.5 1h327q12 0 37 -3t37 -3t28.5 2t26.5 2q62 0 154 -29q76 -24 142 -83 t99 -138q18 -41 31 -108.5t13 -127.5q0 -170 -64 -282q-48 -79 -100 -115q-48 -34 -81.5 -48.5t-117.5 -35.5q-23 -5 -92.5 -9.5t-112.5 -4.5q-6 0 -31 1t-51 1q-106 0 -168 -8q0 -48 -2 -99q2 -18 2 -43v-39q0 -29 2 -49q-2 -6 -2 -16q0 -5 2 -15.5t2 -15.5q0 -7 -3.5 -20 t-4.5 -17q-31 -8 -92 -8q-17 0 -70.5 -1t-62.5 -1q-4 0 -24.5 1t-34.5 1q-13 0 -39 -1t-37 -1q-39 0 -58 43zM614 829q0 -131 2 -172q20 0 94.5 -1t92.5 -1q133 0 153 29q28 18 41 59t13 82q0 23 -17 74q-26 74 -131 74q-2 0 -12 -1t-19 -1q-7 0 -26 1t-31 1h-108 q-19 0 -27.5 -1t-16 -6.5t-8.5 -17.5v-22q0 -10 1 -32t1 -34q0 -5 -1 -16t-1 -15z" />
<glyph unicode="Q" horiz-adv-x="1802" d="M143 664q0 78 31 202q16 56 51 109q6 9 40 71t61 93q24 27 50 47.5t55.5 39t41.5 27.5q5 9 16 15.5t30.5 14t27.5 11.5q32 16 70.5 24.5t58.5 16.5q65 25 227 25q160 0 299 -51.5t205 -130.5q13 -16 59.5 -53t61.5 -62q66 -106 94.5 -195t28.5 -194q0 -72 -15 -146 q-33 -158 -71 -213q-35 -53 -37 -57q-6 -13 -25.5 -35.5t-47.5 -52.5t-42 -47q-7 -9 -34.5 -26.5t-32.5 -24.5q18 -34 105 -87t136 -71q39 -14 56.5 -25t17.5 -28q0 -21 -8.5 -43.5t-38.5 -79.5q-10 -19 -30.5 -59.5t-33.5 -62.5t-22 -26q-14 -8 -41 -8q-18 0 -78 21 l-106 49q-82 34 -138 84l-50 35q-50 35 -97 88q-43 43 -66 61q-29 29 -69 29q-119 0 -242 35q-69 19 -111 47q-13 8 -63 37t-76 47q-78 53 -147 166q-10 30 -40 95.5t-38 102.5q-23 122 -23 185zM555 657q0 -132 61 -217q15 -23 44 -51.5t49 -36.5q18 -8 32.5 -16.5 t26 -13.5t35.5 -13q34 -12 94 -12q65 0 147 29q21 8 36.5 19t26.5 24t13 14q94 76 113 217q6 30 6 59q0 65 -23.5 130t-46.5 96q-25 34 -39 47t-53 37q-24 17 -79 31t-89 14q-149 0 -225 -68q-129 -114 -129 -289z" />
<glyph unicode="R" horiz-adv-x="1626" d="M197 305q0 30 3 90t3 82q0 44 -2 127t-2 127q8 24 8 47q0 16 -5 53t-5 62q0 18 3 54t3 52q0 21 -3 67t-3 69q0 100 12 161q46 15 115 15h129q18 0 78 4t92 4q15 0 49 -3t57 -3q11 0 34 2t42 2q318 -9 356 -21q156 -53 230.5 -151.5t74.5 -257.5q0 -11 -2 -34t-2 -36 q0 -26 -14 -78t-33 -86q-22 -42 -41 -55q-8 -6 -15.5 -16t-17 -24t-16.5 -23q-13 -15 -41.5 -32.5t-34.5 -23.5q14 -39 42.5 -96t43.5 -102q5 -18 39 -84.5t43 -90.5q15 -37 15 -57t-15 -39q-7 -10 -61 -10h-80q-20 0 -48 1t-32 1q-2 0 -23 -1t-49 -1q-100 0 -120 51 q-4 11 -16.5 47t-18.5 52l-97 219q-9 0 -28.5 1t-28.5 1q-10 0 -29.5 -1t-29.5 -1q-24 0 -71 -2t-71 -2q-2 -8 -2 -27q0 -8 1 -30t1 -34q0 -15 -2 -28.5t-2 -30.5q0 -15 3 -50t3 -54q0 -64 -18 -88q-7 -9 -22.5 -16.5t-20.5 -12.5q-11 1 -36 4.5t-42 3.5h-20q-45 -4 -144 -4 q-85 0 -114 20v144q0 22 -1 67.5t-1 75.5zM612 872q0 -10 2 -43t2 -61v-72q18 0 63.5 -1t72.5 -1h110q64 0 105 21q6 9 22.5 24t20.5 25q16 36 16 72q0 62 -27 96q-34 43 -116 43q-9 0 -26.5 -1t-25.5 -1q-19 0 -58 2t-60 2q-45 0 -92 -8q-9 -83 -9 -97z" />
<glyph unicode="S" horiz-adv-x="1507" d="M158 102q0 30 11.5 60t51.5 98q58 100 101 127q6 4 20 4q26 0 57 -22q26 -14 87 -37.5t81 -26.5q22 -3 41 -14q15 -5 51 -8q79 -11 127 -11q28 0 52.5 4t41 9.5t19.5 5.5q78 25 78 92q0 25 -13.5 45t-35.5 29q-26 9 -65 13t-80.5 5t-51.5 2q-95 2 -303 53q-57 14 -109 52 t-83 80q-45 64 -58 143q-8 88 -8 98q0 19 8.5 65.5t9.5 63.5q3 49 58 119q8 11 28.5 34.5t30.5 37.5q25 35 98.5 69.5t116.5 42.5q38 9 114.5 18t113.5 9q27 0 77.5 -2t73.5 -2q82 -14 139.5 -25.5t77.5 -17.5t38.5 -13t21.5 -8q11 -4 35.5 -12t41.5 -16q27 -12 41 -33 q4 -4 4 -39q-43 -111 -73 -141q0 -11 -14 -30.5t-21 -35.5q-16 -39 -51 -39q-23 0 -63.5 17.5t-55.5 19.5q-6 1 -52.5 14.5t-52.5 14.5q-56 18 -145 18q-23 0 -55 -2t-47 -2q-23 0 -57 -15t-44 -34q-18 -27 -18 -49q0 -29 17 -51t67 -31q39 -7 134.5 -12.5t127.5 -12.5 q8 -2 45.5 -7.5t81 -13t74.5 -16.5q7 -2 21 -9.5t20 -8.5l14 -3.5t13.5 -3.5t12 -3.5t13 -4.5t11.5 -5.5t12 -7t11.5 -8.5t12.5 -11q72 -67 92 -109q35 -65 35 -202q0 -56 -4 -84q-6 -38 -20 -74.5t-26.5 -59t-39.5 -65.5q-18 -29 -32.5 -41t-40.5 -25t-52 -34 q-43 -37 -176 -59.5t-238 -22.5q-70 0 -178.5 14t-157.5 33q-19 7 -49 12q-38 8 -105 41t-87 57z" />
<glyph unicode="T" horiz-adv-x="1546" d="M133 1071v19v73q0 101 12 131q9 1 32 7.5t32 7.5h14q10 0 48.5 -1t62.5 -1q56 0 72 4q10 2 67 2q128 0 197 -6q6 -2 18 -2q15 0 45 5t47 5q3 0 10.5 -1t10.5 -1q7 -1 45.5 -1.5t46.5 -2.5q10 -2 41 -2q16 0 53 1t57 1q12 0 33 1t29 1q23 0 35 -6l12 6l240 -2 q22 -31 22 -109q0 -34 -2 -90t-2 -78v-26q0 -41 -24.5 -54.5t-83.5 -13.5q-15 0 -54.5 1t-64.5 1q-14 0 -45 -2t-47 -2t-54 1t-57 1v-113q0 -75 -4 -110q-2 -12 -2 -35q0 -28 5 -83t5 -81q0 -5 -1 -15.5t-1 -15.5v-231v-37v-84q0 -53 -4 -119q-21 -16 -102 -16q-27 0 -74 2 t-60 2h-10h-57q-81 0 -115 25q-2 25 -2 82q0 25 1 92t1 112q4 46 4 70q0 23 -2 68t-2 67q0 26 1 77t1 77q1 76 3.5 133.5t2.5 68.5q0 24 -4 56q-31 6 -96 6q-28 0 -103.5 1t-101.5 1h-31q-39 0 -83 12q-17 11 -17 121z" />
<glyph unicode="U" horiz-adv-x="1681" d="M174 647q0 64 8 160l-6 203q8 92 8 155q0 15 -1 47t-1 43q0 10 5 20t13 19t9 11q12 6 55 6l129 4q50 -4 101 -4q13 0 40.5 1t30.5 1q11 0 17.5 -6.5t12 -31.5t5.5 -69v-59q0 -82 -4 -242l-2 -80q0 -27 1 -85t1 -89q0 -177 33 -254q20 -43 82 -72.5t123 -29.5 q124 0 188 67q21 23 33 52t20.5 73.5t9.5 47.5q0 30 1 79.5t1 71.5q0 49 -2 74q0 80 1.5 130.5t2.5 70.5t1 26q0 32 -3.5 97t-3.5 102q0 8 -1 27t-1 28q0 29 10.5 46t41.5 18h43q27 0 45 4l196 2q48 0 64 -19q2 -2 17 -30q0 -20 -0.5 -60t-0.5 -51q0 -2 1.5 -44t2.5 -99 q0 -8 -2.5 -25t-1.5 -25q0 -7 1 -23t0 -24q0 -9 -1.5 -27t-1.5 -24q0 -40 3.5 -120t4.5 -124q0 -54 -5 -90q-3 -18 -11 -102q-2 -12 -4 -32.5t-5 -36.5t-8 -31q-17 -54 -28 -95q-8 -27 -28.5 -56t-50 -61t-36.5 -40q-1 -1 -19.5 -12.5t-23.5 -18.5q-7 -5 -59 -27.5 t-68 -27.5q-132 -37 -291 -37q-170 0 -301 28q-21 5 -114 37q-16 6 -32.5 16t-36.5 23.5t-28 18.5q-23 15 -42.5 44.5t-32.5 41.5q-35 30 -64 114t-31 140q-2 49 -6 123t-4 112z" />
<glyph unicode="V" horiz-adv-x="1689" d="M109 1249q5 29 17 41.5t40 12.5q11 0 42 3t36 3q29 0 83.5 1t69.5 1q92 0 119 -8q19 -6 28 -24.5t23 -66.5q4 -10 12.5 -41.5t12.5 -42.5l18 -50q19 -49 23 -64l57 -180q14 -58 55 -168.5t54 -159.5q34 -129 59 -162l96 303q14 36 42.5 131.5t50.5 147.5q8 21 22.5 78.5 t22.5 78.5q23 56 38.5 114.5t28.5 80.5q14 18 38.5 25.5t84.5 7.5q18 0 52 -1t46 -1q18 0 43 1t33 1q60 0 105 -8q20 -20 20 -46q0 -35 -10 -53l-111 -301q-32 -85 -43 -104q-21 -41 -32 -83.5t-25 -72.5q-46 -90 -74 -201q-9 -42 -32.5 -93.5t-39.5 -108.5 q-5 -18 -20.5 -53.5t-19.5 -49.5q-8 -30 -24.5 -69t-31.5 -54q-24 -16 -100 -16q-19 0 -57.5 2t-55.5 2q-64 0 -74 -2q-12 -2 -36 -2q-12 0 -43 1t-45 1t-39 -1t-37 -1q-8 0 -21 3.5t-26.5 8t-14.5 4.5q-8 3 -17.5 19t-19 41t-18 47.5t-16.5 47t-11 32.5q-41 110 -55 135 l-67 199q-2 8 -13.5 31t-13.5 40l-123 326q-15 48 -36 97.5t-27 70.5q-7 44 -25 76q-3 17 -9 37.5t-9 35.5z" />
<glyph unicode="W" horiz-adv-x="2140" d="M127 1266q0 21 18 39q9 6 62 6q24 0 63.5 -1t53.5 -1q12 0 31 2t34 2q6 0 35 -1t43 -1q6 0 19.5 1t19.5 1q47 0 59 -51q13 -52 35.5 -172.5t46.5 -202.5q9 -33 31 -178.5t39 -173.5q11 24 22 75q3 23 27 97q11 38 14 75q1 13 6.5 34.5t11 37.5t14.5 41t11 31 q3 10 7.5 33.5t7.5 33.5q2 6 3.5 9t4 6t4.5 8q14 66 30.5 93t45.5 40q16 1 35.5 4.5t31.5 3.5q6 0 21 -1t28 -1q16 0 48 1t47 1q4 0 43.5 -2t42.5 -2q19 -1 31 -4.5t28 -15.5t29 -41t24 -74q8 -35 31 -104t27 -91q3 -20 32 -145q22 -84 27 -123q16 23 29.5 100.5t15.5 122.5 q1 17 15 78.5t33 140.5t24 101q32 146 41 166q19 45 61 45q8 0 40 -1t44 -1q15 0 46 2t52 2q78 0 101 -2q41 -1 54 -10t13 -29q0 -14 -11 -67t-19 -73q-3 -11 -25 -72.5t-29 -101.5q-15 -80 -57 -237q-6 -21 -19.5 -74t-23.5 -82q-10 -27 -20 -82t-19 -78q-15 -36 -25 -76 t-17.5 -85t-10.5 -58q-21 -100 -39 -141q-11 -24 -40.5 -33t-104.5 -10q-23 -2 -113 -2q-14 0 -44.5 3t-47.5 3q-9 0 -25 -2t-24 -2q-10 0 -33 10q-18 8 -31.5 30t-18.5 41t-12 50q0 1 -6 24.5t-16.5 63.5t-18.5 72q-11 33 -24 110q-1 5 -11 35t-14 47q-3 11 -11.5 49 t-16.5 65t-17 44q-5 -8 -10 -23t-10 -38t-6 -27q-18 -76 -31 -119q-21 -52 -31 -125.5t-28 -118.5q-9 -24 -19.5 -66.5t-19 -66t-19.5 -26.5l-29 -21q-25 -8 -135 -14q-3 0 -36.5 0.5t-79 1t-78.5 0.5q-62 0 -90 31q-26 32 -29 63q-3 24 -24 91.5t-27 95.5q-23 105 -25 112 l-28 109q-6 34 -29 110t-27 127q-1 14 -14 55t-16 52q-3 13 -7.5 37.5t-9 42t-12.5 37.5q0 17 -12 45q-12 27 -31 107.5t-25 92.5q-3 6 -7.5 29t-4.5 31z" />
<glyph unicode="X" horiz-adv-x="1593" d="M102 59q0 34 58 111q18 23 85.5 126t96.5 142l55 88q30 40 33 49q8 17 17.5 33t13.5 25t4 20q0 36 -25 70q-16 22 -86 135q-6 9 -11 12.5t-11 12.5l-129 198q-32 34 -62 97q-2 4 -7.5 14t-8.5 15.5t-5.5 17t-2.5 24.5q0 39 49 54q36 8 65 8q21 0 34 -0.5t32 -1.5t45 -2 q24 4 68 4q14 0 43 -4t55 -4h11t8.5 -2t6 -3t8 -5t11.5 -7q23 -19 57 -74l99 -151q72 -128 96 -139q9 5 19.5 18t17 24.5t17 30t13.5 23.5q6 9 11 19t7.5 16t4.5 8q9 8 22.5 29t39.5 64t42 69q12 20 34.5 47.5t35.5 32.5q18 8 105 8h34q29 0 88 1t86 1q20 0 47.5 -6.5 t28.5 -6.5q10 -23 10 -38q0 -8 -1 -15.5t-4.5 -15.5t-5.5 -13.5t-8 -15t-8.5 -14t-10 -15.5t-9.5 -14q-8 -13 -21 -35t-25.5 -39.5t-33.5 -44.5l-198 -301q-23 -46 -23 -55q0 -16 15 -39.5t18 -32.5q6 -16 45 -74.5t45 -72.5q13 -26 50 -80t44 -74l109 -157q2 -5 23.5 -42.5 t21.5 -56.5q0 -27 -35 -41q-36 -14 -145 -14q-17 0 -49.5 1t-47.5 1q-31 0 -43 -2l-53 -2q-31 0 -71 22t-50 48q-10 25 -41 75.5t-45 79.5l-80 133q-23 56 -45 62q-16 -9 -43 -60q-31 -45 -63 -104q-20 -34 -48 -73t-48 -72q-6 -11 -16 -29t-13.5 -24.5t-10.5 -17t-13 -14.5 t-15.5 -8.5t-21.5 -7.5q-14 -4 -54 -8h-276q-12 0 -26.5 7t-22.5 7q-13 26 -13 45z" />
<glyph unicode="Y" horiz-adv-x="1507" d="M100 1251q0 20 19 45q20 13 45 13q10 0 38.5 1t47.5 1q18 0 81 -2t97 -2q96 0 119 -27q4 -4 18 -39.5t36.5 -85.5t43.5 -82q8 -13 36 -77.5t32 -71.5q3 -6 13.5 -34.5t21.5 -53t18 -29.5q14 23 47 104q6 11 15 28t15 30.5t13 34.5q14 19 31 67q8 16 20.5 34.5t14.5 24.5 q6 8 10 25.5t8 28.5q3 14 19.5 40t19.5 36q6 14 19 27t24 18q23 8 108 8q10 0 66 -2t66 -2q15 0 44.5 1t47.5 1q28 0 39 -19q14 -17 14 -49q0 -9 -4.5 -18.5t-11.5 -22t-11 -20.5q-10 -19 -31.5 -65.5t-40.5 -81t-38 -58.5q-17 -21 -44 -68t-38 -73q-9 -17 -58.5 -106.5 t-78.5 -143.5q-16 -30 -37 -63.5t-32 -52t-13 -26.5q-11 -49 -11 -108q0 -20 -1 -52.5t-1 -50.5q0 -15 1 -37.5t1 -33.5q0 -6 -1 -19t-1 -20q0 -10 2.5 -32t2.5 -32q0 -23 -9 -41q-16 -18 -110 -18h-35q-28 0 -86 -1t-76 -1q-36 0 -57 6q-25 7 -32 22.5t-7 55.5v57 q0 17 -1 48t-1 46q0 22 1 58.5t1 56.5v58q0 21 -17 49q-9 13 -61 104q-70 123 -104 191q-19 30 -55.5 98t-55.5 98q-90 146 -109 184q-4 11 -15 28.5t-13 31.5q-19 32 -19 61z" />
<glyph unicode="Z" horiz-adv-x="1574" d="M147 133q0 97 5 137q2 24 8.5 36.5t9.5 35.5q4 13 67 70t78 67q24 20 61.5 56t57.5 53q6 5 53.5 42t71.5 64q100 108 160 148q111 73 127 108q-34 0 -112.5 -7t-112.5 -7q-91 0 -142 4q-15 0 -53 -3t-53 -3q-48 0 -81.5 2t-56 4.5t-30.5 3.5q-10 18 -10 98q0 172 10 240 q9 22 49 29q22 0 89 -1t128 -1l234 2q43 0 107.5 -2t78.5 -2q62 0 272 6q95 0 154 -6q3 0 13 -6t23.5 -19.5t18.5 -30.5q8 -39 8 -77q0 -40 -2 -60v-37q0 -16 2 -29l2 -12q0 -66 -63 -129q-14 -14 -48.5 -42.5t-45.5 -39.5q-4 -4 -15.5 -20.5t-25.5 -32.5 q-34 -38 -117.5 -111t-110.5 -100q-18 -17 -72.5 -64.5t-70.5 -62.5q-59 -52 -74 -78q17 0 50.5 4.5t48.5 4.5q50 4 131 4q21 0 90.5 -1t128.5 -1q20 0 54.5 3t41.5 3q9 0 19 -0.5t27.5 -1.5t35.5 -2q25 0 35.5 -2.5t28.5 -14.5q10 -17 10 -61q-2 -12 -2 -39q0 -16 1 -42.5 t1 -35.5q-1 -26 -1.5 -51t-0.5 -30.5t-2 -18.5t-4 -20t-9 -29q-40 -25 -88 -25q-19 0 -58 2t-58 2q-12 0 -39 -2t-43 -2q-19 0 -53.5 1t-45.5 1q-14 0 -41 1t-41 1q-1 0 -13 -1t-48.5 -2t-97.5 -1q-22 0 -68 1t-70 1q-31 0 -88 -5t-88 -5q-15 0 -49 3t-49 3q-137 0 -174 6 q-48 7 -59 53q-5 20 -5 76z" />
<glyph unicode="[" horiz-adv-x="952" d="M188 -47q0 13 3.5 47t3.5 55q0 9 -2 21l-3 18v264l3 10q3 9 4.5 26.5t1.5 49.5q0 12 -2 52t-2 69q0 11 3 22.5t3 24.5q-6 65 -6 148q0 70 3 148.5t3 99.5q-3 30 -6 292q0 16 4 78q1 55 45 73.5t127 18.5q32 0 97 -1t75 -1q15 0 69 2.5t76 2.5q104 0 113 -46q8 -24 8 -61 v-37q0 -52 -6 -72q-7 -24 -100 -31.5t-99 -13.5q-4 -144 -4 -213q0 -25 -3 -73.5t-3 -71.5q0 -18 3 -55t3 -56q0 -45 -2 -136t-2 -136q0 -25 3 -76t3 -76q0 -17 -2 -51t-2 -51q0 -19 1 -57t1 -56q13 -2 58.5 -4.5t66.5 -5.5q4 -1 26 -3.5t35 -8.5t19 -19q0 -10 2 -26t2 -21 q0 -32 -2 -53t-2 -22q0 -6 -1 -18t-1 -17q0 -32 -27 -44t-84 -12q-14 0 -67.5 -1t-71.5 -1q-14 0 -42.5 -1t-39.5 -1q-13 0 -38 3.5t-36 3.5q-12 0 -35.5 -2.5t-37.5 -2.5q-27 0 -54 9q-49 14 -65.5 36.5t-16.5 59.5z" />
<glyph unicode="\" horiz-adv-x="796" d="M59 1421q0 21 20 35t38 14q22 0 69.5 2.5t79.5 2.5q81 0 96 -17q25 -32 52 -151q11 -46 28.5 -120t30 -127.5t19.5 -78.5q3 -13 17.5 -90.5t25.5 -112.5q17 -50 47 -205l49 -184q15 -50 36.5 -161t34.5 -156q14 -46 23.5 -98t9.5 -72q0 -9 -10.5 -24.5t-11.5 -18.5 q-33 -13 -129 -13q-151 0 -164 37q-6 14 -12 32t-10 32t-9 37.5t-7 34.5t-7 37.5t-6 33.5q-7 35 -25 99.5t-25 99.5q-12 73 -24 100q-6 18 -19.5 91t-17.5 87q-82 328 -94 406l-25 104q-80 313 -80 344z" />
<glyph unicode="]" horiz-adv-x="958" d="M143 25q0 42 17 53q43 9 106 13.5t88 8.5q-2 10 -2 43q0 40 4 80v19q0 11 -1 30.5t-1 30.5t2 41t2 55q0 34 -4 84q-2 41 -2 125q0 23 3 59.5t3 51.5q0 21 -4 58.5t-4 56.5q0 7 2 34t2 47q0 18 -1 47.5t-1 36.5q0 20 2 84.5t2 90.5q0 22 -2 30q-18 12 -69 15 q-102 9 -129 22q-9 12 -9 45q0 13 1.5 26t2.5 21l1 8q-2 12 -2 64q0 9 8 45q13 18 102 18q47 0 114.5 -1t80.5 -1t74 4.5t96 4.5q38 0 67.5 -8t36.5 -21q23 -27 29 -59.5t6 -92.5q0 -22 -2 -99t-2 -148q0 -63 -2 -195t-2 -205q0 -27 1 -102t1 -99q0 -17 -2 -46.5t-2 -43.5 q0 -59 2 -94q0 -6 1 -17.5t1 -17.5v-8q-6 -80 -6 -84q6 -36 6 -127q0 -72 -10 -106q-31 -56 -127 -56q-23 0 -92 4.5t-101 4.5q-14 0 -38 -2.5t-42 -2.5q-23 0 -62.5 -2t-54.5 -2q-52 0 -73 21q0 9 -4 30t-4 35q0 8 -3.5 41.5t-3.5 51.5z" />
<glyph unicode="^" horiz-adv-x="1181" d="M102 801q0 15 19.5 57t36.5 64q12 14 48.5 98t57.5 113q10 17 47.5 110t65.5 129q35 41 110 41h154q73 0 84 -8q30 0 50.5 -11.5t31 -26t29.5 -48.5q6 -12 30 -65t31 -68q5 -11 37.5 -69t40.5 -83q5 -11 22 -50.5t35.5 -79t34.5 -66.5q12 -27 12 -41q0 -13 -12 -25 q-19 -16 -45 -16h-37q-12 0 -40.5 2t-43.5 2t-54.5 -2t-51.5 -2q-15 0 -29 14q-17 20 -36 65t-25 56l-76 160q-2 3 -8.5 12.5t-10.5 16t-10 12t-10 6.5q-6 -3 -19 -24.5t-29.5 -53t-31 -61.5t-28.5 -58.5t-17 -34.5q-24 -53 -45 -80q-26 -32 -49 -32q-71 0 -117 4 q-4 0 -31.5 -2t-42.5 -2q-55 0 -69 14q-9 14 -9 33z" />
<glyph unicode="_" horiz-adv-x="1255" d="M115 -236q0 29 2 72.5t2 54.5q0 33 12 54q23 16 145 16q38 0 160 -2t168 -2q1 0 23 -3t43 -3q7 0 121.5 3t121.5 3q99 0 136 -2q39 0 75 -4q17 -35 17 -139v-37q0 -52 -6 -72q0 -19 -3.5 -25.5t-13.5 -13.5q-24 -12 -35 -12q-26 0 -75.5 2t-73.5 2q-51 0 -76 -4 q-3 0 -78 -1t-94 -1q-20 0 -67.5 3t-75.5 3q-40 0 -131.5 -3t-106.5 -3q-141 0 -180 10q-10 16 -10 104z" />
<glyph unicode="`" horiz-adv-x="755" d="M92 1735q1 32 27.5 42.5t77.5 10.5q26 0 81.5 -1t77.5 -1q6 0 18 1t15 1q7 0 16 -1t13 -1q61 0 78 -31q2 -3 8 -10.5t12 -17t10 -19.5q2 -6 10 -29t19 -52t23 -52q34 -67 34 -102q0 -25 -18 -33t-57 -8q-11 0 -58 2t-65 2q-13 0 -39 -1t-41 -1q-34 0 -72 53l-65 82 q-14 18 -41 55t-37 47q-1 3 -8.5 17t-13 27.5t-5.5 19.5z" />
<glyph unicode="a" d="M82 53q6 17 15.5 44.5t16.5 47.5t11 29q27 50 96 248q4 12 18.5 40.5t18.5 45.5q6 21 19.5 52t13.5 32q22 47 35.5 97.5t27.5 78.5q11 23 21 48t21.5 56t17.5 48q4 12 15 35t15 34q1 4 11 36.5t18 49.5q3 7 35 94q5 30 16 50.5t22.5 34t14.5 20.5q19 37 103 37 q26 0 90 -1t106 -1q16 0 53 1t68 1q49 0 86 -11q25 -7 40 -27.5t36 -72.5q56 -130 86 -213q7 -19 23 -58t28 -71t20 -61q8 -30 68.5 -170.5t63.5 -149.5q8 -35 14 -49q25 -52 62 -157t48 -128q23 -49 37 -94q0 -14 -15 -32.5t-28 -18.5q-24 0 -79 2t-78 2q-5 0 -27 -1 t-43 -1h-100q-19 0 -43 6q-24 24 -33 64q-3 15 -16 48t-17 44t-8 28t-7 26.5t-7 12.5q-16 0 -48 -2t-47 -2q-7 0 -38.5 2t-55.5 2q-48 0 -177.5 -1t-160.5 -1q-14 -49 -38.5 -108.5t-26.5 -67.5q-8 -30 -23 -42.5t-47 -12.5q-34 0 -101 2t-110 2q-12 0 -28.5 -2t-30.5 -2 q-6 0 -56 4q-22 2 -22 53zM668 557q30 -6 110 -6q155 0 205 4q-11 48 -57 172.5t-58 165.5q-1 3 -5 17.5t-6.5 22.5t-6.5 19t-8 17t-8 8l-17 -10q-14 -20 -40 -107.5t-36 -107.5z" />
<glyph unicode="b" horiz-adv-x="1646" d="M193 80v156q0 28 2 65t2 82q0 17 -2 86t-2 86q0 19 3 51t3 45q0 29 -3 83.5t-3 86.5q0 14 2 42.5t2 45.5v52q0 11 1 24t1 27q0 31 -3 62.5t-3 47.5q0 62 2 99v16q0 34 8 47q27 27 86 27q19 0 81 -3t93 -3q28 0 90 4t98 4q24 0 78 -1t86 -1q40 0 123.5 1t130.5 1 q53 0 111 -15q2 -1 36 -7.5t47 -11.5t42 -22.5t55 -44.5q35 -36 57.5 -90t22.5 -114q0 -30 -7 -83t-22 -83q-22 -41 -57.5 -80t-71.5 -53q57 -22 111 -64t75 -94q29 -72 29 -197q0 -25 -11 -70t-22 -73q-39 -102 -129 -156q-99 -59 -297 -59q-41 0 -103.5 3t-80.5 3l-18 -1 q-18 -1 -81.5 -2t-174.5 -1q-21 0 -88 -1t-105 -1q-71 0 -125 4q-32 3 -47.5 14t-18.5 24.5t-3 41.5zM606 422q0 -99 2 -109q12 -2 64 -2q23 0 91 -1t99 -1q18 0 41 1t27 1q27 0 51.5 7.5t38.5 9.5q26 4 42.5 33t16.5 61q0 113 -129 113q-4 0 -24 -1.5t-25 -1.5 q-56 -6 -117 -6q-20 0 -62.5 2t-64.5 2q-31 0 -47 -2q-4 -10 -4 -106zM606 928q0 -45 4 -127q16 0 49.5 -2t53.5 -2q25 0 45 4q12 0 37 -1t41 -1h41q43 0 53 2q24 1 32.5 1.5t25 4.5t23.5 11t15 21t12 35q2 8 2 25q0 56 -31 76.5t-96 23.5h-129q-8 0 -38.5 -1t-49.5 -1 q-13 0 -37 1t-32 1q-15 0 -19 -2q0 -3 1 -9t1 -9q0 -8 -2 -25t-2 -26z" />
<glyph unicode="c" horiz-adv-x="1558" d="M139 659q0 75 21 140q5 20 9.5 39.5t10 43t8.5 38.5q2 9 17 35t18 38q6 19 10 26t8.5 8.5t6.5 4.5l2 10q17 51 108 134t156 108q190 78 344 78q110 0 242 -23q30 -4 68 -15t62.5 -20t59 -23t37.5 -15q38 -15 60 -35.5t22 -42.5q0 -26 -14 -62.5t-31 -56.5 q-11 -13 -23 -42.5t-30 -47.5q-20 -32 -32.5 -42.5t-29.5 -10.5q-47 0 -86 20q-39 21 -95.5 39t-92.5 21q-60 6 -84 6q-39 0 -107 -15q-89 -28 -148.5 -96t-68.5 -143q-2 -16 -7 -55t-5 -50q0 -115 47 -198q30 -55 96 -101q24 -20 81.5 -39.5t97.5 -19.5q102 0 157 16 q82 22 127 47q50 31 88 31q7 0 11.5 -3t14.5 -15t19 -21q10 -10 22 -33.5t23 -37.5q20 -29 41 -82t21 -78q0 -16 -9.5 -27.5t-30.5 -24.5t-22 -14q-12 -10 -49.5 -24.5t-66.5 -20.5q-8 -2 -18 -3t-14 -2t-11 -4t-17 -9q-65 -36 -205 -41q-24 0 -35 -3t-22 -3 q-67 0 -173.5 17t-174.5 50q-21 11 -53.5 26.5t-51 25.5t-45 26.5t-51.5 36.5q-17 16 -28 27t-22.5 26t-16 21t-20.5 30t-23 35q-36 51 -59 121t-28 105t-5 47q-11 27 -11 122z" />
<glyph unicode="d" horiz-adv-x="1660" d="M195 319q0 5 2 29t2 37q-2 16 -2 115q0 22 3 68t3 71q0 16 -1 78.5t-1 122.5l2 131q0 29 2 78.5t2 76.5v86q0 36 6 56q34 43 70 43h59q19 0 68.5 2t60.5 2q1 0 88 -6q5 0 16 1t19 1q33 -2 70 -2q15 0 62.5 2t94.5 2q92 0 137 -4q21 -2 52.5 -8.5t44.5 -6.5q55 0 133 -39 q122 -59 170 -112q15 -21 42 -54t39 -50t26.5 -49.5t23.5 -74.5q4 -21 11.5 -54.5t9.5 -48t4.5 -51t3.5 -91.5q0 -114 -11 -148q-7 -19 -9 -38.5t-5 -32.5q-4 -18 -10.5 -37.5t-18.5 -47.5t-16 -38q-12 -35 -34 -67.5t-38 -49t-53.5 -51t-50.5 -47.5q-61 -58 -171.5 -85.5 t-273.5 -35.5l-430 -2q-15 1 -76.5 1.5t-89.5 6.5q-34 9 -34 76q0 12 1 39.5t1 42.5q0 20 -2 80t-2 83zM606 348q13 -10 66 -10h166q61 0 139 33q78 35 110 153q15 75 15 121q0 94 -19 156q-15 44 -35 72t-65 57q-9 5 -22 9.5t-29.5 9t-24.5 7.5q-29 11 -139 11 q-136 0 -154 -11q-2 -18 -6 -157q0 -29 -1 -82t-1 -78t1 -77t1 -79q0 -43 -1 -86.5t-1 -48.5z" />
<glyph unicode="e" horiz-adv-x="1478" d="M195 117q0 16 1 95.5t1 84.5q4 29 4 82q0 26 -2 81t-2 85q0 29 3 83t3 83q0 24 -3 86t-3 108q0 28 -1 97t-1 104q0 134 12 178q10 9 33 18t32 9h93q23 0 87 -2t85 -2q13 0 93 1t101 1q144 0 199 2q42 0 128 -1t134 -1q80 0 98 -13q15 -11 15 -57v-98q-1 -8 -1 -48.5 t-2 -74t-6 -41.5q-12 -10 -59 -10q-38 0 -156 3t-174 3q-18 0 -60.5 -3t-70.5 -3q-19 0 -67.5 2t-71.5 2h-23q-4 -36 -4 -92q0 -40 2 -58q23 0 76 -2t80 -2q18 0 54.5 2t56.5 2q16 0 49 -2t47 -2q25 0 59.5 2t44.5 2q21 0 31 -9t10 -32q0 -16 1 -44.5t1 -41.5t-2 -47t-2 -57 q0 -14 1 -27.5t1 -17.5q0 -37 -47 -37h-78q-25 1 -42.5 2.5t-28.5 1.5q-27 0 -54 -2t-88 -2q-34 0 -86.5 1t-64.5 1h-19q-2 -20 -2 -92v-35q0 -41 6 -51q21 8 41 8q16 0 50 1t53 1h37q41 0 87.5 -2t71.5 -2q48 0 119 3t111 3q21 0 46 -2t32 -2q22 0 31 -17t10 -67v-94 q0 -110 -15 -129q-8 -10 -13 -15t-19.5 -9.5t-36.5 -4.5q-9 0 -22 -2t-23 -2q-14 0 -46 -1t-36 -1q-29 0 -92 3t-95 3q-19 0 -59.5 -3t-61.5 -3q-26 0 -38 2q-20 2 -56 2q-26 0 -63.5 -3t-55.5 -3q-39 0 -125 1t-153 1q-74 0 -88 12q-12 24 -12 107z" />
<glyph unicode="f" horiz-adv-x="1484" d="M188 604q2 16 2 55q0 6 -1 25t-1 35q0 19 3.5 56t3.5 54q0 27 -5 150q0 9 -1 64.5t-1 93.5q0 140 13 163l55 7q10 2 35 2h39q25 0 49 1t29 1q16 0 26 -2q307 0 432 -2q43 0 133 4l119 -2q14 -4 35 -4q5 0 55 4q12 0 31.5 1t26.5 1q42 0 58.5 -14t16.5 -54q0 -11 -1 -53.5 t-1 -75.5q2 -68 2 -92q0 -61 -14 -78q-31 -8 -72 -8q-13 0 -36 -1t-37 -1q-40 0 -117.5 2t-116.5 2q-20 0 -74 -2t-96 -2q-28 0 -83 1t-83 1q-2 -12 -2 -94q0 -126 4 -142q47 -6 246 -6q49 0 111.5 1t64.5 1q4 0 11.5 1t11.5 1q37 0 80 -16q18 -22 18 -141q0 -37 -2 -81.5 t-4.5 -72.5t-3.5 -29q-12 -12 -68 -12q-25 0 -70.5 1t-56.5 1q-13 0 -38 -2t-40 -2q-6 0 -22 2t-25 2q-1 0 -12 -2t-31 -2q-16 0 -62 1t-71 1h-33q-6 -18 -6 -108q0 -146 4 -220q-15 -20 -49 -20q-5 0 -19 1t-22 1q-18 0 -42 -1t-38 -1q-8 0 -28 1t-35 1q-19 0 -64 -1 t-65 -1q-40 0 -53 22q-4 18 -8 60q0 131 2 203q0 12 -2.5 38.5t-2.5 40.5q0 13 2.5 42t2.5 47q0 61 -2 77q-5 29 -5 76z" />
<glyph unicode="g" horiz-adv-x="1626" d="M139 702q4 11 7 23t4 21t4 35t6 46q4 14 8.5 25.5t7 21t4.5 25.5q33 85 45.5 112t31 46t32.5 39q18 24 26 32q6 6 14 17t15 18q33 35 58.5 57t53.5 37.5t47 23t62 23.5t76 29q66 29 195 29q22 0 61 -1t59 -1q16 0 146 -21q1 0 4 -1t4 -1q76 -15 161.5 -50.5t92.5 -37.5 q43 -40 43 -71q0 -18 -8 -39q-6 -18 -29 -56.5t-29 -52.5q-6 -15 -14 -27.5t-16.5 -25.5t-12.5 -19q-20 -36 -51 -36q-59 15 -88 30q-47 25 -118.5 42.5t-137.5 17.5q-114 0 -164 -31q-85 -51 -121.5 -103.5t-56.5 -154.5q0 -1 -1 -13t-2 -28.5t-1 -28.5q0 -22 5 -50t5 -36 q0 -43 32 -101t63 -89q40 -43 100.5 -62.5t114.5 -19.5q15 0 32 -2t25 -2q18 0 49 8q10 3 37.5 7.5t38.5 10.5q14 31 14 74v39q0 49 -6 57q-32 0 -57 1t-31 1q-19 0 -46.5 -1t-37.5 -1q-17 5 -26 14t-13 29q-2 10 -2 88v99q0 19 6.5 32t7.5 19q6 7 17 8.5t51 1.5q25 0 94 1 t74 1q12 -2 39 -2q34 0 59 2q54 0 156 -4q17 -1 28.5 -9.5t22.5 -10.5q33 -21 33 -84q0 -70 -2 -192.5t-2 -129.5q0 -8 4 -39.5t4 -50.5q0 -25 -4 -61q-2 -23 -2 -76q0 -10 -12 -26.5t-33 -24.5q-8 -3 -60 -31.5t-84 -36.5q-191 -51 -223 -51q-21 0 -93 -3t-85 -3 q-31 0 -70.5 6.5t-97.5 19t-72 15.5q-25 3 -67.5 26t-53.5 27q-112 38 -192 145q-69 97 -84 127q-10 20 -17.5 37.5t-14 38.5t-10 32t-10 39t-9.5 38q0 11 -4.5 30t-4.5 25z" />
<glyph unicode="h" d="M195 193q0 23 2 70t2 69q0 6 -1 17t-1 16v643q2 51 2 176q0 15 -1 39t-1 37q0 10 4 18t15 20t13 15h228q5 0 21 -3t24 -3q15 0 36.5 1t28.5 1q32 0 41.5 -14.5t9.5 -67.5q0 -11 -1 -43t-1 -43v-191q0 -4 1 -15t1 -15q0 -7 -1 -23.5t-1 -28.5q0 -14 7 -32h243q10 0 23.5 1 t17.5 1q7 0 23.5 -1t30.5 -1h38q34 0 54 6q0 10 -1 33t-1 30q0 17 2 49.5t2 51.5q0 8 -1 28.5t-1 32.5q2 18 2 61q0 16 -1 46.5t-1 44.5q0 75 18 88q20 4 57 4q1 0 7 -0.5t23.5 -1t45.5 -0.5q58 4 84 4q14 0 40 -1t40 -1q16 -1 34.5 -1h27t19 -1t14.5 -3.5t8 -7t5 -11 t1 -17.5l2 -131l-2 -113q-4 -70 -4 -92q0 -67 2 -98q2 -66 2 -199l-2 -123l2 -94l-4 -219q0 -31 2 -74t2 -55q0 -32 -13 -54q-22 -12 -63 -12q-14 0 -49.5 2t-57.5 2q-33 0 -89 -4t-79 -4q-50 0 -67 14q-4 20 -4 58v196q-1 13 -1 69t-1.5 103t-5.5 60q-5 0 -27 2t-41 2 q-4 0 -19 1t-26 1q-7 0 -57 -4q-14 -2 -62 -2q-16 0 -62.5 1t-64.5 1q-46 0 -76 -6q4 -14 4 -70q0 -29 -1 -75.5t-1 -57.5q0 -10 1 -103t1 -102q0 -3 -1 -15.5t-2 -20.5t-2.5 -18.5t-4.5 -17t-8 -8.5q-21 -12 -51 -12q-8 0 -24.5 1t-26.5 1q-13 0 -68 -2t-88 -2 q-120 0 -133 20q-8 49 -8 74q0 45 -4 103z" />
<glyph unicode="i" horiz-adv-x="802" d="M182 37q2 12 2 74q0 18 4 30q-1 4 -2 18t-2 19l2 516q0 37 1 107t1 106q0 14 -2 42.5t-2 43.5v115q1 16 2 32.5t1.5 25.5t0.5 16q0 10 -1 30.5t-1 30.5q0 25 2 37q15 33 134 33q46 0 71 -2h127q54 0 74 -17q14 -16 14 -149q0 -220 -4 -271v-323q2 -12 2 -125 q0 -46 -1 -116.5t-1 -76.5v-71q0 -20 1 -61.5t1 -57.5q0 -13 -8 -37q-31 -8 -135 -8q-17 0 -44 1t-34 1h-16q-17 0 -49.5 -2t-47.5 -2q-39 3 -56.5 12t-33.5 29z" />
<glyph unicode="j" horiz-adv-x="1239" d="M102 111q0 14 5 30.5t12.5 34t9.5 23.5q8 21 41 74t41 79q30 34 49 39q25 0 70 -19.5t101.5 -39t107.5 -19.5q63 0 88 52q13 29 18 167q0 7 -0.5 18.5t-1.5 39.5t-2 69q0 9 1 30.5t1 29.5q0 19 -2 68.5t-2 72.5q0 17 4 37q-2 18 -2 51q0 6 1 33.5t1 52.5q2 14 2 41 q0 24 -3 46t-3 48q1 12 2.5 27.5t2.5 25.5t1 13q0 4 -1 16t-1 21q0 12 4 20q7 8 10 11t12.5 6.5t24.5 3.5q55 0 80 -2q84 -1 136.5 -2t71 -1.5t28.5 -0.5q34 0 45 -21q8 -16 8 -53q0 -40 -2 -136t-2 -126l2 -353q4 -40 4 -63q0 -14 -1 -43t-1 -45q0 -267 -123 -395 q-38 -38 -104 -74q-32 -19 -82.5 -32t-87.5 -13q-15 0 -36 -2t-44 -2q-14 0 -101 6q-40 5 -93 15t-133 36t-128 60q-29 17 -29 45z" />
<glyph unicode="k" horiz-adv-x="1628" d="M199 53q0 16 1 41.5t1 38.5t2 33t2 31q0 9 -3 25t-3 24q0 4 2 11t2 13v109q0 10 -2 34t-2 33l4 201q-2 12 -2 35q0 17 2 48t2 44q0 11 -2 48t-2 69q0 20 3 63.5t3 65.5q0 12 -2 32t-2 35q0 6 1 23.5t1 28.5q0 17 -2 50t-2 44q0 44 32 76q11 2 62.5 2.5t126.5 0.5t113 1 q25 -1 50 -11.5t33 -21.5q7 -10 7 -92q0 -42 -3.5 -112t-3.5 -118q0 -13 3.5 -40t3.5 -48q0 -20 -2 -30h182q11 9 43.5 65t40.5 74q18 34 52.5 93.5t45.5 78.5l57 109q22 40 52 51h22q21 0 53 0.5t66.5 1t67.5 0.5h51q13 0 44 -1t54 -1q17 0 28 -14.5t13 -30.5 q0 -22 -18 -58l-131 -209q-24 -48 -45 -74t-41 -71q-6 -14 -49.5 -82.5t-43.5 -95.5q0 -28 21 -66q84 -151 155 -264q18 -31 37 -67q3 -6 19.5 -30.5t19.5 -37.5q2 -7 10 -19.5t20.5 -29t18.5 -25.5q33 -52 37 -74q0 -25 -12 -45q-20 -18 -96 -18q-32 0 -99.5 2t-78.5 2 q-22 0 -56 -2t-47 -2q-34 0 -55.5 10.5t-32.5 40.5q-2 5 -26 51.5t-52.5 106t-42.5 94.5q-5 14 -16 32t-12 21q-3 8 -8.5 24.5t-10.5 27.5q-27 53 -45 65q-36 4 -143 4q-39 0 -54 -6q-2 -10 -2 -25t1 -36.5t1 -44.5q0 -14 -2 -55t-2 -52q0 -23 2 -58t2 -71q0 -6 -2 -25 t-2 -30q0 -36 -2 -54q-13 -22 -96 -22h-63q-33 0 -96 -1t-85 -1q-25 0 -49 6q-24 12 -24 51z" />
<glyph unicode="l" horiz-adv-x="1361" d="M184 186l9 244q-5 34 -5 166q0 182 2 221q0 36 7 111q-3 45 -4 93.5t-1.5 78t-1.5 37.5q0 4 2.5 56.5t2.5 55.5q10 39 25.5 52.5t45.5 13.5q11 0 47.5 -2t57.5 -2q15 0 44 2t44 2q5 0 14 -1t14 -1q18 -1 46 -4.5t53 -3.5q28 -10 28 -78q0 -25 -2.5 -90.5t-3.5 -122.5 v-264q-6 -52 -6 -175q0 -139 6 -198l236 -8q93 6 106 6q40 -4 66 -4h14q1 0 19 2t46 4t52 2q35 0 60.5 -11.5t33.5 -29.5q8 -13 8 -154q0 -25 -1 -65t-1 -45q0 -38 -6.5 -52t-33 -21t-91.5 -7q-10 0 -91.5 1t-129.5 1h-299q-34 0 -88 2t-70 2h-157q-33 0 -58 15t-28 32 q-11 52 -11 139z" />
<glyph unicode="m" horiz-adv-x="1974" d="M197 25v256q0 153 3 286t3 156q-2 47 -2 139q0 16 2 56t2 69q0 21 -2 62.5t-2 58.5q0 32 3 57t3 45q10 103 98 103q11 0 35 1t37 1q16 0 66 -3t75 -3q13 0 42 1t40 1q67 0 100 -45q30 -37 140 -226q19 -32 73 -113t88 -147q13 6 37.5 60t30.5 61l145 248q5 8 14 28 t17.5 34t18.5 24q33 78 102 78q34 0 82 1t78 1q14 0 41.5 -3t50.5 -3q29 0 47 2q55 0 76.5 -19t21.5 -59q0 -16 2 -70.5t2 -93.5t1 -129t1 -145q0 -29 1.5 -81t1.5 -73q0 -6 -1.5 -31.5t-1.5 -44.5q0 -81 6.5 -281t6.5 -237q0 -26 -33 -33.5t-96 -7.5h-88q-38 0 -89 2t-61 2 q-47 0 -47 37q0 10 1 38.5t1 45.5q0 12 -3 50t-3 52q0 30 1 94.5t1 96.5v139q0 8 2 67.5t2 80.5q0 16 -4 24q-14 -11 -34.5 -43.5t-34.5 -60.5t-37 -76t-27 -57q-14 -20 -42 -75t-52.5 -95t-40.5 -47q-8 -5 -56 -9t-98 -4q-78 0 -94 13q-6 4 -13.5 16t-9.5 18q-2 9 -17.5 32 t-18.5 30l-91 160q-4 10 -13 23t-20 28t-14 20q-5 7 -26.5 57.5t-38.5 65.5q-6 -18 -6 -57q0 -92 6 -191q2 -18 2 -59q0 -24 -1 -76t-1 -78q0 -50 2 -75q0 -7 2 -59.5t2 -78.5q0 -15 -1.5 -24t-9.5 -17t-24 -10q-39 -8 -119 -8q-3 0 -32 1t-66 1h-74q-54 0 -71 25z" />
<glyph unicode="n" horiz-adv-x="1718" d="M186 53q0 17 3.5 56t3.5 43q0 7 -1.5 31.5t-1.5 41.5v240q0 125 7 207q0 17 -2 36t-2 33q0 29 -1.5 89t-1.5 94t2.5 134.5t2.5 135.5q0 60 9.5 82t35.5 33q7 0 22 1t23 1q14 0 56 -1t73 -1h69q13 0 34.5 1t66.5 1q34 0 59.5 -20.5t56.5 -71.5q4 -6 30.5 -34t31.5 -38 l14 -35q3 -6 13 -20t23 -31.5t15 -20.5q11 -16 19 -25t11.5 -14.5t10.5 -25.5q7 -2 12.5 -5t11 -9.5t8.5 -10.5t10 -14t10 -14q4 -7 36.5 -50t49.5 -71q18 -33 81 -128t68 -104q0 35 -5 101.5t-5 70.5q0 12 1 66t1 92q0 26 -1 83t-1 85q0 139 6 176q3 24 8.5 35.5t13 17 t9.5 9.5q5 0 32 2t43 2q17 0 39 -1l23 -1q21 0 63.5 2t71.5 2q41 0 51 -4q25 -25 25 -119q0 -16 -1 -42t-1 -34q0 -76 -1 -242.5t-1 -253.5q0 -134 4 -380q0 -12 -4 -55t-4 -64q0 -52 -11 -74q-20 -41 -61 -41q-14 0 -45.5 -1t-42.5 -1q-82 0 -117 -2q-95 1 -121.5 7 t-48.5 28q-17 17 -55 71.5t-53 69.5q-3 3 -12 11t-14.5 14t-15 19t-18.5 30q-40 70 -91 135.5t-79 105.5q-18 29 -39 50q-1 1 -20.5 33t-42 69.5t-45.5 73.5t-31 45q0 -5 -1 -17t-1 -18q0 -35 6 -119t6 -112q0 -14 -2 -68t-2 -78q0 -62 4 -180v-62q0 -69 -15.5 -88.5 t-72.5 -19.5q-13 0 -51 2t-68 2q-14 0 -62.5 -2t-66.5 -2q-29 0 -38 13.5t-9 41.5z" />
<glyph unicode="o" horiz-adv-x="1789" d="M139 625q0 123 43 262q44 155 161.5 273.5t238.5 144.5q46 10 64.5 15t36 10t46.5 13q78 19 172 19q55 0 120 -13.5t73 -13.5q41 -1 119 -35t130 -65q237 -147 295 -442q13 -69 13 -123q0 -69 -29 -205q-18 -83 -78 -180t-125 -154l-102 -80q-42 -25 -99 -50t-94 -32 q-110 -20 -225 -20q-111 0 -199 18q-113 23 -253.5 109.5t-188.5 175.5q-7 14 -23.5 43.5t-23 41.5t-18.5 37t-18 42.5t-13 43t-12 52.5q-11 71 -11 113zM557 635q0 -88 43 -169t119 -124q26 -14 66 -28.5t63 -14.5q145 0 214 34t130 140q41 75 41 197q0 63 -12 100 q-22 74 -60 121q-58 72 -147 104q-7 1 -23 5.5t-29 7t-20 2.5q-27 0 -44 1t-21 1q-45 0 -110 -22t-93 -50q-117 -117 -117 -305z" />
<glyph unicode="p" horiz-adv-x="1548" d="M190 41q0 105 9 418l-2 225q-2 10 -2 37q0 17 2 57.5t2 61.5q0 25 -3 76.5t-3 78.5q0 11 2 41t2 43q0 15 2 41t2 37q0 8 -3.5 22t-4.5 19q0 54 10 84q18 11 26 15t27.5 8t46.5 4q26 0 116.5 1t115.5 1h327q12 0 37 -3t37 -3t28.5 2t26.5 2q62 0 154 -29q76 -24 142 -83 t99 -138q18 -41 31 -108.5t13 -127.5q0 -170 -64 -282q-48 -79 -100 -115q-48 -34 -81.5 -48.5t-117.5 -35.5q-23 -5 -92.5 -9.5t-112.5 -4.5q-6 0 -31 1t-51 1q-106 0 -168 -8q0 -48 -2 -99q2 -18 2 -43v-39q0 -29 2 -49q-2 -6 -2 -16q0 -5 2 -15.5t2 -15.5q0 -7 -3.5 -20 t-4.5 -17q-31 -8 -92 -8q-17 0 -70.5 -1t-62.5 -1q-4 0 -24.5 1t-34.5 1q-13 0 -39 -1t-37 -1q-39 0 -58 43zM614 829q0 -131 2 -172q20 0 94.5 -1t92.5 -1q133 0 153 29q28 18 41 59t13 82q0 23 -17 74q-26 74 -131 74q-2 0 -12 -1t-19 -1q-7 0 -26 1t-31 1h-108 q-19 0 -27.5 -1t-16 -6.5t-8.5 -17.5v-22q0 -10 1 -32t1 -34q0 -5 -1 -16t-1 -15z" />
<glyph unicode="q" horiz-adv-x="1802" d="M143 664q0 78 31 202q16 56 51 109q6 9 40 71t61 93q24 27 50 47.5t55.5 39t41.5 27.5q5 9 16 15.5t30.5 14t27.5 11.5q32 16 70.5 24.5t58.5 16.5q65 25 227 25q160 0 299 -51.5t205 -130.5q13 -16 59.5 -53t61.5 -62q66 -106 94.5 -195t28.5 -194q0 -72 -15 -146 q-33 -158 -71 -213q-35 -53 -37 -57q-6 -13 -25.5 -35.5t-47.5 -52.5t-42 -47q-7 -9 -34.5 -26.5t-32.5 -24.5q18 -34 105 -87t136 -71q39 -14 56.5 -25t17.5 -28q0 -21 -8.5 -43.5t-38.5 -79.5q-10 -19 -30.5 -59.5t-33.5 -62.5t-22 -26q-14 -8 -41 -8q-18 0 -78 21 l-106 49q-82 34 -138 84l-50 35q-50 35 -97 88q-43 43 -66 61q-29 29 -69 29q-119 0 -242 35q-69 19 -111 47q-13 8 -63 37t-76 47q-78 53 -147 166q-10 30 -40 95.5t-38 102.5q-23 122 -23 185zM555 657q0 -132 61 -217q15 -23 44 -51.5t49 -36.5q18 -8 32.5 -16.5 t26 -13.5t35.5 -13q34 -12 94 -12q65 0 147 29q21 8 36.5 19t26.5 24t13 14q94 76 113 217q6 30 6 59q0 65 -23.5 130t-46.5 96q-25 34 -39 47t-53 37q-24 17 -79 31t-89 14q-149 0 -225 -68q-129 -114 -129 -289z" />
<glyph unicode="r" horiz-adv-x="1626" d="M197 305q0 30 3 90t3 82q0 44 -2 127t-2 127q8 24 8 47q0 16 -5 53t-5 62q0 18 3 54t3 52q0 21 -3 67t-3 69q0 100 12 161q46 15 115 15h129q18 0 78 4t92 4q15 0 49 -3t57 -3q11 0 34 2t42 2q318 -9 356 -21q156 -53 230.5 -151.5t74.5 -257.5q0 -11 -2 -34t-2 -36 q0 -26 -14 -78t-33 -86q-22 -42 -41 -55q-8 -6 -15.5 -16t-17 -24t-16.5 -23q-13 -15 -41.5 -32.5t-34.5 -23.5q14 -39 42.5 -96t43.5 -102q5 -18 39 -84.5t43 -90.5q15 -37 15 -57t-15 -39q-7 -10 -61 -10h-80q-20 0 -48 1t-32 1q-2 0 -23 -1t-49 -1q-100 0 -120 51 q-4 11 -16.5 47t-18.5 52l-97 219q-9 0 -28.5 1t-28.5 1q-10 0 -29.5 -1t-29.5 -1q-24 0 -71 -2t-71 -2q-2 -8 -2 -27q0 -8 1 -30t1 -34q0 -15 -2 -28.5t-2 -30.5q0 -15 3 -50t3 -54q0 -64 -18 -88q-7 -9 -22.5 -16.5t-20.5 -12.5q-11 1 -36 4.5t-42 3.5h-20q-45 -4 -144 -4 q-85 0 -114 20v144q0 22 -1 67.5t-1 75.5zM612 872q0 -10 2 -43t2 -61v-72q18 0 63.5 -1t72.5 -1h110q64 0 105 21q6 9 22.5 24t20.5 25q16 36 16 72q0 62 -27 96q-34 43 -116 43q-9 0 -26.5 -1t-25.5 -1q-19 0 -58 2t-60 2q-45 0 -92 -8q-9 -83 -9 -97z" />
<glyph unicode="s" horiz-adv-x="1507" d="M158 102q0 30 11.5 60t51.5 98q58 100 101 127q6 4 20 4q26 0 57 -22q26 -14 87 -37.5t81 -26.5q22 -3 41 -14q15 -5 51 -8q79 -11 127 -11q28 0 52.5 4t41 9.5t19.5 5.5q78 25 78 92q0 25 -13.5 45t-35.5 29q-26 9 -65 13t-80.5 5t-51.5 2q-95 2 -303 53q-57 14 -109 52 t-83 80q-45 64 -58 143q-8 88 -8 98q0 19 8.5 65.5t9.5 63.5q3 49 58 119q8 11 28.5 34.5t30.5 37.5q25 35 98.5 69.5t116.5 42.5q38 9 114.5 18t113.5 9q27 0 77.5 -2t73.5 -2q82 -14 139.5 -25.5t77.5 -17.5t38.5 -13t21.5 -8q11 -4 35.5 -12t41.5 -16q27 -12 41 -33 q4 -4 4 -39q-43 -111 -73 -141q0 -11 -14 -30.5t-21 -35.5q-16 -39 -51 -39q-23 0 -63.5 17.5t-55.5 19.5q-6 1 -52.5 14.5t-52.5 14.5q-56 18 -145 18q-23 0 -55 -2t-47 -2q-23 0 -57 -15t-44 -34q-18 -27 -18 -49q0 -29 17 -51t67 -31q39 -7 134.5 -12.5t127.5 -12.5 q8 -2 45.5 -7.5t81 -13t74.5 -16.5q7 -2 21 -9.5t20 -8.5l14 -3.5t13.5 -3.5t12 -3.5t13 -4.5t11.5 -5.5t12 -7t11.5 -8.5t12.5 -11q72 -67 92 -109q35 -65 35 -202q0 -56 -4 -84q-6 -38 -20 -74.5t-26.5 -59t-39.5 -65.5q-18 -29 -32.5 -41t-40.5 -25t-52 -34 q-43 -37 -176 -59.5t-238 -22.5q-70 0 -178.5 14t-157.5 33q-19 7 -49 12q-38 8 -105 41t-87 57z" />
<glyph unicode="t" horiz-adv-x="1546" d="M133 1071v19v73q0 101 12 131q9 1 32 7.5t32 7.5h14q10 0 48.5 -1t62.5 -1q56 0 72 4q10 2 67 2q128 0 197 -6q6 -2 18 -2q15 0 45 5t47 5q3 0 10.5 -1t10.5 -1q7 -1 45.5 -1.5t46.5 -2.5q10 -2 41 -2q16 0 53 1t57 1q12 0 33 1t29 1q23 0 35 -6l12 6l240 -2 q22 -31 22 -109q0 -34 -2 -90t-2 -78v-26q0 -41 -24.5 -54.5t-83.5 -13.5q-15 0 -54.5 1t-64.5 1q-14 0 -45 -2t-47 -2t-54 1t-57 1v-113q0 -75 -4 -110q-2 -12 -2 -35q0 -28 5 -83t5 -81q0 -5 -1 -15.5t-1 -15.5v-231v-37v-84q0 -53 -4 -119q-21 -16 -102 -16q-27 0 -74 2 t-60 2h-10h-57q-81 0 -115 25q-2 25 -2 82q0 25 1 92t1 112q4 46 4 70q0 23 -2 68t-2 67q0 26 1 77t1 77q1 76 3.5 133.5t2.5 68.5q0 24 -4 56q-31 6 -96 6q-28 0 -103.5 1t-101.5 1h-31q-39 0 -83 12q-17 11 -17 121z" />
<glyph unicode="u" horiz-adv-x="1681" d="M174 647q0 64 8 160l-6 203q8 92 8 155q0 15 -1 47t-1 43q0 10 5 20t13 19t9 11q12 6 55 6l129 4q50 -4 101 -4q13 0 40.5 1t30.5 1q11 0 17.5 -6.5t12 -31.5t5.5 -69v-59q0 -82 -4 -242l-2 -80q0 -27 1 -85t1 -89q0 -177 33 -254q20 -43 82 -72.5t123 -29.5 q124 0 188 67q21 23 33 52t20.5 73.5t9.5 47.5q0 30 1 79.5t1 71.5q0 49 -2 74q0 80 1.5 130.5t2.5 70.5t1 26q0 32 -3.5 97t-3.5 102q0 8 -1 27t-1 28q0 29 10.5 46t41.5 18h43q27 0 45 4l196 2q48 0 64 -19q2 -2 17 -30q0 -20 -0.5 -60t-0.5 -51q0 -2 1.5 -44t2.5 -99 q0 -8 -2.5 -25t-1.5 -25q0 -7 1 -23t0 -24q0 -9 -1.5 -27t-1.5 -24q0 -40 3.5 -120t4.5 -124q0 -54 -5 -90q-3 -18 -11 -102q-2 -12 -4 -32.5t-5 -36.5t-8 -31q-17 -54 -28 -95q-8 -27 -28.5 -56t-50 -61t-36.5 -40q-1 -1 -19.5 -12.5t-23.5 -18.5q-7 -5 -59 -27.5 t-68 -27.5q-132 -37 -291 -37q-170 0 -301 28q-21 5 -114 37q-16 6 -32.5 16t-36.5 23.5t-28 18.5q-23 15 -42.5 44.5t-32.5 41.5q-35 30 -64 114t-31 140q-2 49 -6 123t-4 112z" />
<glyph unicode="v" horiz-adv-x="1689" d="M109 1249q5 29 17 41.5t40 12.5q11 0 42 3t36 3q29 0 83.5 1t69.5 1q92 0 119 -8q19 -6 28 -24.5t23 -66.5q4 -10 12.5 -41.5t12.5 -42.5l18 -50q19 -49 23 -64l57 -180q14 -58 55 -168.5t54 -159.5q34 -129 59 -162l96 303q14 36 42.5 131.5t50.5 147.5q8 21 22.5 78.5 t22.5 78.5q23 56 38.5 114.5t28.5 80.5q14 18 38.5 25.5t84.5 7.5q18 0 52 -1t46 -1q18 0 43 1t33 1q60 0 105 -8q20 -20 20 -46q0 -35 -10 -53l-111 -301q-32 -85 -43 -104q-21 -41 -32 -83.5t-25 -72.5q-46 -90 -74 -201q-9 -42 -32.5 -93.5t-39.5 -108.5 q-5 -18 -20.5 -53.5t-19.5 -49.5q-8 -30 -24.5 -69t-31.5 -54q-24 -16 -100 -16q-19 0 -57.5 2t-55.5 2q-64 0 -74 -2q-12 -2 -36 -2q-12 0 -43 1t-45 1t-39 -1t-37 -1q-8 0 -21 3.5t-26.5 8t-14.5 4.5q-8 3 -17.5 19t-19 41t-18 47.5t-16.5 47t-11 32.5q-41 110 -55 135 l-67 199q-2 8 -13.5 31t-13.5 40l-123 326q-15 48 -36 97.5t-27 70.5q-7 44 -25 76q-3 17 -9 37.5t-9 35.5z" />
<glyph unicode="w" horiz-adv-x="2140" d="M127 1266q0 21 18 39q9 6 62 6q24 0 63.5 -1t53.5 -1q12 0 31 2t34 2q6 0 35 -1t43 -1q6 0 19.5 1t19.5 1q47 0 59 -51q13 -52 35.5 -172.5t46.5 -202.5q9 -33 31 -178.5t39 -173.5q11 24 22 75q3 23 27 97q11 38 14 75q1 13 6.5 34.5t11 37.5t14.5 41t11 31 q3 10 7.5 33.5t7.5 33.5q2 6 3.5 9t4 6t4.5 8q14 66 30.5 93t45.5 40q16 1 35.5 4.5t31.5 3.5q6 0 21 -1t28 -1q16 0 48 1t47 1q4 0 43.5 -2t42.5 -2q19 -1 31 -4.5t28 -15.5t29 -41t24 -74q8 -35 31 -104t27 -91q3 -20 32 -145q22 -84 27 -123q16 23 29.5 100.5t15.5 122.5 q1 17 15 78.5t33 140.5t24 101q32 146 41 166q19 45 61 45q8 0 40 -1t44 -1q15 0 46 2t52 2q78 0 101 -2q41 -1 54 -10t13 -29q0 -14 -11 -67t-19 -73q-3 -11 -25 -72.5t-29 -101.5q-15 -80 -57 -237q-6 -21 -19.5 -74t-23.5 -82q-10 -27 -20 -82t-19 -78q-15 -36 -25 -76 t-17.5 -85t-10.5 -58q-21 -100 -39 -141q-11 -24 -40.5 -33t-104.5 -10q-23 -2 -113 -2q-14 0 -44.5 3t-47.5 3q-9 0 -25 -2t-24 -2q-10 0 -33 10q-18 8 -31.5 30t-18.5 41t-12 50q0 1 -6 24.5t-16.5 63.5t-18.5 72q-11 33 -24 110q-1 5 -11 35t-14 47q-3 11 -11.5 49 t-16.5 65t-17 44q-5 -8 -10 -23t-10 -38t-6 -27q-18 -76 -31 -119q-21 -52 -31 -125.5t-28 -118.5q-9 -24 -19.5 -66.5t-19 -66t-19.5 -26.5l-29 -21q-25 -8 -135 -14q-3 0 -36.5 0.5t-79 1t-78.5 0.5q-62 0 -90 31q-26 32 -29 63q-3 24 -24 91.5t-27 95.5q-23 105 -25 112 l-28 109q-6 34 -29 110t-27 127q-1 14 -14 55t-16 52q-3 13 -7.5 37.5t-9 42t-12.5 37.5q0 17 -12 45q-12 27 -31 107.5t-25 92.5q-3 6 -7.5 29t-4.5 31z" />
<glyph unicode="x" horiz-adv-x="1705" d="M104 59q0 34 58 111q18 23 85.5 126t96.5 142l55 88q30 40 33 49q8 17 17.5 33t13.5 25t4 20q0 36 -25 70q-16 22 -86 135q-6 9 -11 12.5t-11 12.5l-129 198q-32 34 -62 97q-2 4 -7.5 14t-8.5 15.5t-5.5 17t-2.5 24.5q0 39 49 54q36 8 65 8q21 0 34 -0.5t32 -1.5t45 -2 q24 4 68 4q14 0 43 -4t55 -4h11t8.5 -2t6 -3t8 -5t11.5 -7q23 -19 57 -74l99 -151q72 -128 96 -139q9 5 19.5 18t17 24.5t17 30t13.5 23.5q6 9 11 19t7.5 16t4.5 8q9 8 22.5 29t39.5 64t42 69q12 20 34.5 47.5t35.5 32.5q18 8 105 8h34q29 0 88 1t86 1q20 0 47.5 -6.5 t28.5 -6.5q10 -23 10 -38q0 -8 -1 -15.5t-4.5 -15.5t-5.5 -13.5t-8 -15t-8.5 -14t-10 -15.5t-9.5 -14q-8 -13 -21 -35t-25.5 -39.5t-33.5 -44.5l-198 -301q-23 -46 -23 -55q0 -16 15 -39.5t18 -32.5q6 -16 45 -74.5t45 -72.5q13 -26 50 -80t44 -74l109 -157q2 -5 23.5 -42.5 t21.5 -56.5q0 -27 -35 -41q-36 -14 -145 -14q-17 0 -49 1t-47 1q-31 0 -43 -2l-54 -2q-31 0 -71 22t-50 48q-10 25 -41 75.5t-45 79.5l-79 133q-22 56 -46 62q-16 -9 -43 -60q-31 -45 -63 -104q-20 -34 -48 -73t-48 -72q-6 -11 -16 -29t-13.5 -24.5t-10.5 -17t-13 -14.5 t-15.5 -8.5t-21.5 -7.5q-14 -4 -54 -8h-276q-12 0 -26.5 7t-22.5 7q-13 26 -13 45z" />
<glyph unicode="y" horiz-adv-x="1507" d="M100 1251q0 20 19 45q20 13 45 13q10 0 38.5 1t47.5 1q18 0 81 -2t97 -2q96 0 119 -27q4 -4 18 -39.5t36.5 -85.5t43.5 -82q8 -13 36 -77.5t32 -71.5q3 -6 13.5 -34.5t21.5 -53t18 -29.5q14 23 47 104q6 11 15 28t15 30.5t13 34.5q14 19 31 67q8 16 20.5 34.5t14.5 24.5 q6 8 10 25.5t8 28.5q3 14 19.5 40t19.5 36q6 14 19 27t24 18q23 8 108 8q10 0 66 -2t66 -2q15 0 44.5 1t47.5 1q28 0 39 -19q14 -17 14 -49q0 -9 -4.5 -18.5t-11.5 -22t-11 -20.5q-10 -19 -31.5 -65.5t-40.5 -81t-38 -58.5q-17 -21 -44 -68t-38 -73q-9 -17 -58.5 -106.5 t-78.5 -143.5q-16 -30 -37 -63.5t-32 -52t-13 -26.5q-11 -49 -11 -108q0 -20 -1 -52.5t-1 -50.5q0 -15 1 -37.5t1 -33.5q0 -6 -1 -19t-1 -20q0 -10 2.5 -32t2.5 -32q0 -23 -9 -41q-16 -18 -110 -18h-35q-28 0 -86 -1t-76 -1q-36 0 -57 6q-25 7 -32 22.5t-7 55.5v57 q0 17 -1 48t-1 46q0 22 1 58.5t1 56.5v58q0 21 -17 49q-9 13 -61 104q-70 123 -104 191q-19 30 -55.5 98t-55.5 98q-90 146 -109 184q-4 11 -15 28.5t-13 31.5q-19 32 -19 61z" />
<glyph unicode="z" horiz-adv-x="1574" d="M147 133q0 97 5 137q2 24 8.5 36.5t9.5 35.5q4 13 67 70t78 67q24 20 61.5 56t57.5 53q6 5 53.5 42t71.5 64q100 108 160 148q111 73 127 108q-34 0 -112.5 -7t-112.5 -7q-91 0 -142 4q-15 0 -53 -3t-53 -3q-48 0 -81.5 2t-56 4.5t-30.5 3.5q-10 18 -10 98q0 172 10 240 q9 22 49 29q22 0 89 -1t128 -1l234 2q43 0 107.5 -2t78.5 -2q62 0 272 6q95 0 154 -6q3 0 13 -6t23.5 -19.5t18.5 -30.5q8 -39 8 -77q0 -40 -2 -60v-37q0 -16 2 -29l2 -12q0 -66 -63 -129q-14 -14 -48.5 -42.5t-45.5 -39.5q-4 -4 -15.5 -20.5t-25.5 -32.5 q-34 -38 -117.5 -111t-110.5 -100q-18 -17 -72.5 -64.5t-70.5 -62.5q-59 -52 -74 -78q17 0 50.5 4.5t48.5 4.5q50 4 131 4q21 0 90.5 -1t128.5 -1q20 0 54.5 3t41.5 3q9 0 19 -0.5t27.5 -1.5t35.5 -2q25 0 35.5 -2.5t28.5 -14.5q10 -17 10 -61q-2 -12 -2 -39q0 -16 1 -42.5 t1 -35.5q-1 -26 -1.5 -51t-0.5 -30.5t-2 -18.5t-4 -20t-9 -29q-40 -25 -88 -25q-19 0 -58 2t-58 2q-12 0 -39 -2t-43 -2q-19 0 -53.5 1t-45.5 1q-14 0 -41 1t-41 1q-1 0 -13 -1t-48.5 -2t-97.5 -1q-22 0 -68 1t-70 1q-31 0 -88 -5t-88 -5q-15 0 -49 3t-49 3q-137 0 -174 6 q-48 7 -59 53q-5 20 -5 76z" />
<glyph unicode="{" horiz-adv-x="1052" d="M113 690q0 57 2 78t10 35q35 14 82 14q51 0 67 10q19 13 25 35t6 72q0 22 -1 49t-1 57q0 18 1 56.5t1 60.5q0 32 6 82.5t17 69.5q33 61 56.5 86t61.5 43q55 25 101 28h71q15 0 109 1t111 1q22 0 48.5 -11t26.5 -34q0 -6 1 -23.5t1 -37.5q0 -90 -10 -115q-1 0 -15 -7 t-32 -9q-56 -8 -61 -8q-71 -5 -84 -23q-8 -11 -8 -47q0 -9 2 -34t2 -38q0 -16 -1 -37.5t-1 -35.5q0 -5 1 -25t1 -35q0 -108 -9 -135q-1 -3 -4 -19t-6.5 -28t-14 -28.5t-26.5 -28.5q-10 -7 -38.5 -23t-41.5 -29q8 -7 32.5 -17.5t37.5 -25.5q68 -81 70 -155l2 -58 q-2 -14 -2 -43q0 -15 1 -43t1 -41q0 -14 -3 -43.5t-3 -42.5q0 -19 4 -73q20 -18 90 -22t80 -11q18 -1 27 -26t9 -56v-72q0 -31 -6.5 -47t-29.5 -20q-21 -13 -117 -13q-45 0 -118 -1t-81 -1q-54 0 -129 35q-28 12 -62 48.5t-44 74.5q-1 3 -5.5 17t-7.5 23t-5.5 24t-2.5 28 q0 26 2 64.5t2 44.5q0 17 -3 46t-3 40q0 28 1 71.5t1 61.5q0 50 -26 61q-18 9 -60 9h-61q-6 0 -17.5 13.5t-15.5 14.5q-14 8 -14 168z" />
<glyph unicode="|" horiz-adv-x="696" d="M184 -39q0 11 4 57q7 68 7 88q0 23 -2.5 59.5t-2.5 67.5l-1 18q-1 18 -2 44.5t-1 48.5q0 101 4 152q7 54 7 69q0 19 -4.5 68.5t-4.5 71.5q0 20 4.5 55t4.5 51q0 23 -3.5 60t-3.5 51l-2 350q2 14 2 47q0 18 -1 48t-1 38q0 45 31 61q10 0 37.5 1t32.5 1q3 0 66 -2t67 -2 q9 0 26.5 1t26.5 1q19 0 27 -2q10 -14 10 -82q0 -40 -3 -114.5t-3 -91.5q4 -152 4 -170q0 -30 -3 -108t-3 -136q0 -66 3 -261t3 -241q0 -21 -3 -65.5t-3 -69.5q0 -121 2 -213q-8 -36 -18 -49t-23 -13h-68q-8 -2 -125 -2q-74 0 -84 21q-4 74 -4 92z" />
<glyph unicode="}" horiz-adv-x="1056" d="M137 1380q0 14 1.5 26t5 20.5t6 13t6 10t4.5 6.5q17 12 129 12q9 0 28.5 -1t22.5 -1q18 0 63.5 1t59.5 1q53 0 88 -8q61 -13 104 -51q23 -21 48.5 -57t33.5 -76q15 -79 15 -135q0 -11 -2 -32.5t-2 -47.5q0 -10 1 -34.5t1 -33.5q0 -10 -2.5 -23t-2.5 -18q0 -6 1.5 -23.5 t1.5 -27.5q0 -35 8 -51q9 -17 16.5 -22t22.5 -5h84q34 0 48.5 -21.5t14.5 -49.5v-84q0 -16 1 -57.5t1 -49.5q0 -26 -12 -45q-8 -6 -31 -11t-31 -5q-8 -1 -26.5 -1.5t-31.5 -1.5t-19 -3q-24 -9 -33.5 -25.5t-9.5 -48.5q0 -17 2 -65t2 -85l-4 -63q0 -17 -2.5 -54t-2.5 -51 q0 -87 -47 -153t-137 -90q-51 -13 -88 -13q-22 0 -56.5 1.5t-66.5 2.5q-24 0 -69 -2t-66 -2q-31 0 -70 31q0 2 -3 24.5t-3 24.5v88q0 54 27 66l24 4q39 4 70 9t51 7q25 3 31 18t6 68q0 59 -1 114t-1 89q0 58 2 72q4 47 22 92t52 63q52 29 63 41q-6 8 -36.5 23.5t-45.5 30.5 q-11 11 -24 34t-14 25q-8 14 -13.5 47t-5.5 55q0 7 2 32t2 46q0 14 -3 37.5t-3 34.5q0 20 2 55.5t2 63.5q0 33 -6 63q-38 19 -88 19q-51 0 -88 12q-29 14 -29 145z" />
<glyph unicode="~" horiz-adv-x="1140" d="M123 575q0 28 2 67t2 48q0 29 29.5 56.5t64.5 44.5q19 11 35.5 17.5t34.5 10.5t24 6q36 9 95 9q64 0 134 -23t77 -23q4 0 56 -13t75 -13q57 0 86 18q23 9 43 21.5t22 13.5q21 21 55 21q17 -1 29 -10.5t14 -18.5q17 -35 17 -125v-29q0 -53 -6 -71q-16 -42 -74 -74 q-12 -8 -24 -14t-19 -9t-20 -6.5t-17 -5.5q-36 -16 -113 -16q-25 0 -48 2.5t-50.5 8.5t-45 10.5t-55 15.5t-57.5 16l-13 4q-12 4 -24 7t-30 6t-33 3q-26 0 -67 -15t-66 -30q-39 -28 -78 -28q-28 0 -43 18q-12 16 -12 100z" />
<glyph unicode="&#xa1;" horiz-adv-x="716" d="M147 188q0 15 3.5 53t3.5 62q0 127 16 182q6 36 8.5 120t3.5 95q5 63 22 93t62 36l199 2q26 0 46 -18t32 -72q4 -18 6.5 -84t5.5 -82q23 -135 23 -270v-301q0 -24 -5.5 -39t-16 -29.5t-15.5 -25.5q-32 -14 -95 -14h-75q-23 0 -55 -2.5t-44 -2.5q-47 0 -80 25t-42 76 q0 6 1 36.5t1 37.5q0 18 -2.5 57t-2.5 65zM160 1133q0 13 9.5 42t10.5 39q25 53 72 80t102 27q85 0 150 -48t65 -126q0 -22 -6 -49q-22 -74 -71.5 -116t-114.5 -42q-29 0 -64 6q-31 7 -52 16.5t-29.5 17t-24.5 24.5q-47 47 -47 129z" />
<glyph unicode="&#xa2;" horiz-adv-x="1415" d="M113 668q0 94 23.5 171t68.5 158q30 57 102 117t135 82q30 7 83 31t83 26q0 3 1 19t1 20q0 19 -1 45t-1 29q0 59 17 70q24 12 63 12h86q65 0 86 -18q6 -18 6 -52q0 -11 -1 -34.5t-1 -36.5q0 -34 4 -50q13 -9 35.5 -14t53 -8.5t42.5 -5.5l58 -19q13 -3 30.5 -10t53.5 -18 q39 -11 76 -37q38 -24 48.5 -39t10.5 -33t-10 -41.5t-28.5 -57.5t-27.5 -56q-35 -89 -67 -99q-17 2 -31.5 6t-23.5 7.5t-25.5 10.5t-26.5 11q-59 22 -123 37q-49 8 -116 8q-107 0 -184 -51.5t-85 -157.5q0 -5 -1 -29.5t-1 -29.5q0 -43 22 -88t54 -72q70 -59 186 -59 q99 0 181 20q44 11 110 43q21 12 58 12q7 0 12 -2t9.5 -6.5t8 -8.5t9.5 -13l10 -15q16 -26 39 -84q2 -5 26.5 -54t24.5 -62q0 -24 -6.5 -36.5t-24.5 -21.5q-10 -3 -39 -22q-14 -17 -72.5 -39t-64.5 -25q-12 -6 -88.5 -19.5t-108.5 -27.5q-6 -43 -6 -61q0 -9 1 -29.5t1 -34.5 q0 -24 -20 -57q-92 -8 -141 -8q-57 0 -78 16t-21 76q0 14 1 33.5t1 31.5q0 17 -4 37q-12 0 -26.5 4t-41.5 14.5t-40 14.5q-102 35 -189 105q-18 14 -58.5 59.5t-51.5 66.5q-6 11 -23.5 49t-25.5 52q-16 28 -26.5 109t-10.5 139z" />
<glyph unicode="&#xa3;" horiz-adv-x="1548" d="M150 664v63q0 31 10.5 48.5t29.5 17.5q6 0 18.5 2t18.5 2q9 0 17 -1t16 -1q10 0 25 1t20 1q0 4 -7 58t-7 95q0 72 18 129q2 8 16 34t17 34q4 13 12 24.5t23 25.5t20 20q4 2 27 24.5t47 36.5q22 9 59 24.5t52 21t36 12t39 7.5q100 17 177 17q58 0 81 -2q24 -2 72 -11 t72 -12q31 -1 66.5 -13.5t56.5 -14.5q18 -18 39 -21q36 -7 94 -51q22 -22 22 -47q0 -16 -12 -60q-6 -23 -32.5 -77t-32.5 -72q-11 -35 -41 -45q-12 0 -21.5 2t-20 5.5t-14.5 4.5q-5 1 -37 16t-59 21q-10 2 -82 25q-70 14 -96 14q-2 0 -21 1t-22 1q-58 0 -94 -18 q-66 -29 -66 -103q0 -61 19 -108q12 0 37.5 2t35.5 2q6 0 19.5 -1t19.5 -1q13 0 54 1t55 1q12 -1 37 -1t40.5 -1t20.5 -4q27 -10 27 -54q0 -3 -2 -12t-2 -16q4 -10 4 -29v-29q0 -32 -21 -53q-19 -8 -37 -8q-14 0 -40.5 1t-30.5 1l-15 -4q-8 0 -43.5 1t-50.5 1q-19 0 -47 -2 t-33 -2q0 -12 -1 -35t-1 -35q0 -7 -6 -43q-2 -13 -10 -38t-10 -36t-12 -31t-11 -24q36 -8 57 -8q5 0 30 -3t38 -3q23 0 78 -5t119 -5q11 0 20.5 1t15.5 1.5t17 4.5l16.5 6t24 9.5t28.5 11.5q17 7 51 44.5t48 37.5q3 2 7.5 7t9.5 7.5t13 2.5q19 -5 43 -21t31 -31 q14 -7 31.5 -33.5t25.5 -35.5q5 -5 20 -19.5t20.5 -20.5t14 -16.5t12 -19t3.5 -16.5q0 -9 -6 -39q-6 -6 -28.5 -40.5t-65.5 -76.5q-18 -18 -38 -33t-30.5 -22t-40 -23t-39.5 -22q-18 -1 -56 -17t-62 -16q-12 0 -40 -2t-40 -2q-52 0 -121 16q-35 10 -39 10t-16.5 5.5 t-18.5 7.5q-8 3 -28.5 7t-28.5 7q-97 25 -123 25q-19 0 -53.5 4t-55.5 4q-48 0 -123.5 -17.5t-117.5 -17.5q-38 0 -58 4q-25 3 -37.5 11.5t-15.5 29.5q-2 12 -2 55q0 191 6 197q17 45 43 45q8 0 26 -1t27 -1q43 0 62 14q3 3 12 21q10 20 10 37q0 8 2 27t2 28q0 23 -4 59 q-4 28 -4 45q0 13 -6 19q-4 4 -43 4q-10 0 -24.5 -1t-24.5 -1q-7 0 -12 -1t-11 -1q-9 0 -26.5 2t-26.5 2q-7 0 -17.5 10.5t-10.5 20.5q-2 8 -2 39z" />
<glyph unicode="&#xa4;" horiz-adv-x="1499" d="M174 35q0 17 15 42.5t33.5 50t21.5 32.5q14 27 41 68.5t34 60.5q-3 6 -22.5 26t-30.5 41q-10 9 -29.5 43t-25.5 52q-31 91 -31 211q0 61 35 178q18 60 53 108q6 8 19 24t22 28.5t13 23.5q-17 31 -42.5 71.5t-35.5 57.5q-5 10 -22 34.5t-28.5 45.5t-11.5 35q0 9 7 25 t16 16q28 4 121 4q97 0 108 -8q14 -14 31 -54q2 -4 57 -104q113 29 115 29q69 10 121 10q32 0 91 -7t85 -18q41 -16 57 -16q10 14 38.5 65t41.5 70q13 25 53 31h97q59 0 77.5 -3.5t26.5 -15.5q2 -6 2 -18q0 -18 -18 -43q-8 -12 -33.5 -55t-34.5 -56q-52 -80 -61 -98 q20 -19 35 -40t29.5 -46.5t25.5 -40.5q13 -28 22 -66q27 -74 27 -157q0 -139 -49 -246q-10 -22 -25.5 -45.5t-39 -56t-25.5 -35.5q1 -8 17 -34.5t36.5 -58.5t26.5 -42t23.5 -39.5t25.5 -45.5t8 -24q0 -13 -6 -31q-16 -14 -66 -14h-121q-34 0 -47 6t-26 29q0 1 -13 23.5 t-30.5 53.5t-26.5 48q-111 -33 -225 -33q-22 0 -63 3.5t-54 4.5q-30 2 -74 18t-51 17q-23 -23 -61 -102q-23 -39 -44 -53.5t-53 -14.5h-139q-43 0 -43 35zM571 657q0 -34 10 -68t27 -48q7 -5 19.5 -19.5t21.5 -19.5q40 -31 80 -31q52 0 64 4q51 5 93 52.5t42 134.5 q0 4 -1 19t-1 24q-4 6 -10 25.5t-18.5 41t-35.5 39.5q-14 12 -48.5 21.5t-65.5 9.5q-32 0 -48 -8q-129 -42 -129 -177z" />
<glyph unicode="&#xa5;" horiz-adv-x="1591" d="M143 1243q0 17 15 55q21 13 133 13q28 0 75.5 -2t53.5 -2q13 0 39 1t37 1q29 0 59 -9q28 -7 63 -94q24 -56 80 -164q9 -18 26.5 -60.5t25.5 -57.5q10 -13 27 -59t26 -56q10 7 24 43q4 14 14 33t23.5 44t20.5 40q9 19 21.5 53t21.5 53q1 4 37 76t51 109q4 12 16 22 t22.5 16t10.5 7q27 8 100 8q20 -4 150 -4q13 0 34 1t29 1q46 0 52 -11q18 -15 18 -57q0 -12 -21 -55t-58.5 -110.5t-69 -122t-75 -128t-53.5 -90.5h37q14 0 53 1t52 1q65 0 88 -20q10 -29 10 -80q0 -64 -18 -92l-5 -1q-6 -1 -14 -2t-16 -1h-250l-43 -2q-6 -13 -18.5 -35 t-14.5 -29l-10 -28q44 -3 70 -3q20 0 47 1.5t39 1.5h24q27 -3 78 -3q8 0 23 1.5t22 1.5q42 0 61 -11.5t19 -46.5q0 -5 3 -28.5t3 -38.5q0 -19 -2 -27q-4 -29 -16.5 -35.5t-57.5 -9.5q-25 -2 -63 -2q-28 0 -86 1t-84 1h-66h-39v-92q0 -20 1 -56t1 -43q0 -40 -18 -61 q-43 0 -88 4q-50 -4 -86 -4h-172q-34 0 -49 35l2 215q-8 0 -26 1t-23 1q-23 0 -74 -1t-70 -1q-8 0 -38.5 1t-43.5 1q-16 0 -42 -1t-31 -1q-38 0 -49 11.5t-11 51.5q0 43 2 70q0 24 2 35.5t6 18t5 9.5q4 0 42 -1t48 -1q3 0 27 1t56.5 2.5t55.5 1.5q16 0 58.5 -1.5t62.5 -1.5 h33q-6 13 -50 95q-27 2 -77 2h-181q-41 0 -60.5 5.5t-25.5 24.5q-4 12 -4 68q0 52 4 72q21 20 28 23t32 3q14 0 60 -1t67 -1q31 0 47 2q-89 143 -146 254q-46 62 -116 199q-13 27 -13 51z" />
<glyph unicode="&#xa6;" horiz-adv-x="696" d="M184 -80q0 9 2 32t2 36q0 21 2.5 53.5t2.5 40.5q0 4 -1.5 22.5t-1.5 32.5l3 156q0 9 1 26t1 25q0 5 -2.5 24.5t-2.5 30.5q0 9 2.5 35.5t2.5 34.5q0 35 4 45q9 23 73 23q12 0 38 -1t40 -1q19 0 49 3t45 3q17 0 25 -2q21 -4 29 -12.5t8 -26.5q4 -74 4 -170q0 -117 -2 -137 q-1 -13 -3.5 -38t-2.5 -36l6 -41q0 -24 -2 -55t-2 -58q0 -14 2 -39.5t2 -36.5q0 -16 -8 -29.5t-25 -13.5q-3 0 -17.5 1t-17.5 1q-17 0 -57.5 -1t-60.5 -1q-8 0 -35 -1t-37 -1q-12 0 -20 2t-14.5 6t-8.5 5q-23 10 -23 63zM184 844q0 5 2 20.5t2 20.5q0 8 -2 25t-2 26 q0 8 2 26t2 27q0 16 2.5 55.5t2.5 57.5q0 16 -2.5 35t-2.5 22q0 9 2.5 31t2.5 35q0 18 -1.5 52.5t-1.5 86.5q0 72 13 88q48 16 78 16q33 0 92 -2t80 -2q20 0 32 -5.5t17 -18t6.5 -24t1.5 -32.5q0 -55 -2 -142.5t-2 -151.5q0 -17 1 -55.5t1 -59.5q0 -11 -1 -32t-1 -28 q0 -8 1 -40t1 -39q0 -28 -6 -43q-4 -15 -24 -19t-77 -4q-9 6 -51 6q-11 0 -49 -2t-51 -2q-30 0 -42.5 4t-19.5 19q-4 46 -4 49z" />
<glyph unicode="&#xa7;" horiz-adv-x="1333" d="M139 651q0 6 6 29.5t7 46.5q3 20 26 66q8 20 43 56t43 48q-30 44 -49.5 99.5t-21.5 93.5q0 3 -1.5 15.5t-1.5 22.5q0 24 4.5 43t4.5 31q0 14 12.5 41.5t19.5 52.5q40 68 62 93q25 31 49 49t53.5 34.5t50.5 32.5q100 33 216 33q154 0 276 -37q110 -32 223 -108 q25 -17 25 -47q0 -44 -43 -113q-12 -17 -25 -36.5t-19.5 -29.5t-14.5 -21.5t-12.5 -16.5t-10.5 -9.5t-11 -6t-12 -1.5q-6 0 -12 1.5t-12 4t-20.5 8t-30.5 11.5q-15 5 -52.5 20.5t-70 27t-52.5 11.5q-18 0 -47.5 3t-50.5 3q-18 -1 -34.5 -11.5t-22.5 -21.5q-10 -17 -10 -41 q0 -10 6 -22q10 -10 28 -19q33 -18 117.5 -31.5t112.5 -25.5q8 -3 56.5 -16.5t66.5 -22.5q23 -10 61 -39.5t57 -50.5q67 -67 70 -211q0 -10 -8 -74q-6 -50 -35.5 -91.5t-81.5 -84.5q6 -11 26 -34t25 -37q1 -8 12 -66t11 -113q0 -63 -19 -104q-9 -18 -17.5 -42t-17.5 -42 t-26 -41q-22 -30 -53 -60.5t-51 -33.5q-2 -1 -20 -13t-27.5 -17.5t-28 -15t-37.5 -15t-39 -7.5q-85 -12 -168 -12q-41 0 -150 17.5t-139 35.5q-22 13 -68 32t-59 26q-28 14 -52.5 37.5t-24.5 48.5q0 13 5.5 31t18.5 41.5t20 37t24 40.5t18 28q2 4 25 24.5t28 30.5 q23 0 39.5 -5t47 -19t60.5 -25q12 -4 33 -8.5t29 -7.5q5 -1 17 -7t27 -9.5t38 -4.5q50 -4 63 -4q70 0 74 76q-7 18 -27.5 34t-40.5 21q-7 2 -68 15t-96 24q-3 1 -30 8t-46.5 13t-50 17t-52 21.5t-40 25t-24.5 28.5q-6 2 -12.5 5.5t-12 9.5t-10 11t-10.5 13.5t-8.5 12.5 t-8.5 14t-8 13q-9 13 -21 73.5t-12 88.5zM516 702q0 -41 37 -57q44 -20 108.5 -34t79.5 -23l56 -15q24 24 24 62q0 51 -61 70q-26 7 -42 13t-28.5 9.5t-44.5 7.5q-14 2 -54.5 14.5t-51.5 12.5q-23 -27 -23 -60z" />
<glyph unicode="&#xa8;" horiz-adv-x="1118" d="M133 1591q0 62 34 116t73 67q38 10 69 10q41 0 83 -12.5t63 -34.5q26 -28 49 -119q4 -24 4 -33q0 -21 -10 -41q-9 -23 -33.5 -52t-46.5 -42q-30 -18 -96 -18q-78 0 -127 28q-25 14 -43.5 55.5t-18.5 75.5zM616 1599q0 71 25 107q24 37 47 51t60 23q30 6 59 6 q64 0 113.5 -35t60.5 -98q4 -18 4 -49q0 -53 -33 -99q-29 -40 -44.5 -50t-65.5 -17q-32 -4 -54 -4q-64 0 -101.5 28.5t-61.5 89.5q-9 18 -9 47z" />
<glyph unicode="&#xa9;" horiz-adv-x="1781" d="M139 639q0 63 14 158.5t42 120.5q13 52 34 71q4 33 58.5 106.5t91.5 96.5q1 0 2.5 2t5.5 7t10 9q51 41 137.5 76t137.5 47q43 10 64 14t26 4t20 0.5t41 4.5q30 6 95 6q69 0 138 -9.5t93 -27.5q27 -6 39 -20q18 -2 78.5 -25.5t74.5 -36.5q9 -8 34 -27t38 -32 q20 -20 52.5 -50.5t46 -45.5t35.5 -48t44 -79q14 -28 17 -50l1.5 -12t1 -5.5t1 -2.5t1.5 -2t3 -5.5t4 -11.5q22 -93 22 -174q0 -98 -12.5 -171.5t-48.5 -159.5q-7 -18 -56 -96.5t-61 -92.5q-69 -80 -140 -122t-183 -72q-100 -29 -195 -29q-104 0 -295 29q-74 11 -184 69 q-137 70 -246 264q-48 84 -65 153.5t-17 168.5zM338 633q0 -95 20 -150q38 -115 99 -182q100 -111 241 -156q7 -1 54 -11.5t63 -10.5q45 0 73.5 -1t35.5 -1q74 0 180 32.5t151 73.5q99 91 146 197.5t47 261.5q0 132 -70.5 253t-195.5 187q-39 21 -106.5 42.5t-104.5 21.5 q-239 0 -352 -50.5t-213 -209.5q-68 -119 -68 -297zM487 618q0 176 86 300q17 24 40.5 43.5t43 31.5t49 23.5t45.5 16t46.5 12.5t38.5 10q25 2 69 2q145 0 250 -68q8 -5 22.5 -13.5t22 -13.5t16 -11.5t12 -13t3.5 -13.5q0 -38 -19 -60q-8 -10 -26.5 -40.5t-34 -49 t-29.5 -18.5q-11 0 -22.5 4.5t-30.5 15.5t-31 17q-49 30 -90 30q-92 0 -139 -47t-47 -127q0 -36 11.5 -71.5t31.5 -53.5q14 -12 45 -26t51 -15q35 0 50.5 2.5t29.5 8t31 8.5q9 4 27.5 14t29.5 15.5t26 11t27 6.5q8 -2 15.5 -6.5t12.5 -9t12.5 -14.5t11 -15t13 -20t13.5 -21 q31 -48 31 -72q0 -13 -6.5 -23.5t-14 -16t-22 -15.5t-23.5 -17q-30 -25 -112.5 -48t-137.5 -23q-93 0 -180 33q-82 35 -122.5 70t-82.5 120q-43 99 -43 147z" />
<glyph unicode="&#xaa;" horiz-adv-x="1089" d="M143 997q0 33 4 45q1 9 3.5 28.5t4 27t5.5 22t10 27.5t16 29q51 92 107 124q75 43 160 43q116 0 200 -77q1 4 2.5 30t3.5 33q9 17 89 17q8 0 42 1t56 1q41 0 55 -7q14 -19 14 -75v-174q0 -383 -8 -418q-4 -27 -13 -35t-30 -8q-6 0 -24.5 1t-32.5 1q-9 0 -40.5 -3 t-47.5 -3q-19 1 -30.5 6.5t-16 15t-5.5 16.5t-1 21q0 35 -9 47q-31 -51 -86.5 -76.5t-121.5 -25.5q-41 0 -68.5 8t-69.5 27q-41 20 -67 46.5t-56 71.5q-45 82 -45 213zM152 434q0 61 10 74q34 10 104 10q52 0 86 -6h168q34 6 139 6q17 0 50.5 -1t52.5 -1q12 0 38 1t40 1 q63 0 90 -14q6 -9 6 -27q4 -28 4 -49q0 -2 -1 -13.5t-1 -13.5q4 -70 4 -86q0 -5 -3 -17.5t-3 -16.5q0 -33 -2 -37q-48 -23 -121 -23q-17 0 -55 -1t-58 -1q-16 0 -53 3t-53 3q-31 0 -118.5 -3t-162.5 -3q-42 0 -64 0.5t-43 4t-28.5 7.5t-14 15t-7 22.5t-0.5 34.5q0 51 -2 88 q-2 16 -2 43zM430 952q17 -36 39 -50.5t57 -14.5q32 0 59 18t29 35q0 15 3.5 37t3.5 27q0 18 -4 30t-11 21t-8 12q-48 25 -80 25q-26 0 -47 -15q-27 -26 -34 -48.5t-7 -76.5z" />
<glyph unicode="&#xab;" horiz-adv-x="1218" d="M102 666q0 7 1 16.5t1 11.5q0 11 29 52.5t31 50.5q4 14 11 26t21.5 30.5t20.5 27.5q30 46 58 97t43.5 75.5t33.5 38.5q7 0 72 1t86 1q37 0 51 -2q12 -1 22.5 -5.5t16.5 -8.5l6 -5q6 -9 6 -22q0 -20 -20 -56q-17 -28 -39 -100q-5 -16 -26.5 -69t-22.5 -72q0 -8 -14.5 -46 t-14.5 -51q0 -17 9 -42t10 -37q1 -7 55 -179q3 -8 19.5 -51.5t24 -68.5t7.5 -41q0 -8 -26 -15.5t-79.5 -12.5t-121.5 -5q-6 0 -26 6.5t-25 9.5q-14 18 -35 60.5t-37 66.5q-18 26 -46 81t-44 81q-29 42 -49 90q-9 20 -9 66zM600 641q0 43 6 59q8 22 24 52t28 50.5t31.5 51.5 t23.5 37q69 127 73 135q3 5 9.5 17t9 15.5t8 11.5t8.5 11t8 7t10 5t11 1q2 0 71 1t76 1q22 0 46.5 -3t27.5 -3q14 -18 14 -35q0 -33 -14 -76q-6 -14 -20 -60.5t-23 -64.5q-10 -20 -24 -74.5t-27 -89.5q-8 -28 -8 -47q0 -18 13 -51.5t17 -56.5l25 -89q6 -19 21.5 -59.5 t26.5 -73.5t11 -49q0 -34 -16 -45q-16 -8 -61 -8q-4 -1 -81 -3.5t-87 -2.5q-8 0 -14 2.5t-11 9t-8.5 11.5t-9 16.5t-9.5 17.5q-12 15 -24 35.5t-19.5 35.5l-20 40l-17.5 35l-7 10q-24 55 -73 143q-22 39 -25 80z" />
<glyph unicode="&#xac;" horiz-adv-x="1122" d="M113 586q0 2 2 51t2 53q0 7 -1 21t-1 22q0 3 3 14.5t7 25t4 15.5q13 9 68 9q33 0 98 -3t80 -3q132 4 145 4h320q62 0 108 -4q40 -4 51 -21t11 -55v-166q0 -17 -3 -53t-3 -54q0 -10 2 -26.5t2 -28.5q0 -4 -1 -18.5t-1 -24.5q0 -13 2 -38t2 -34q0 -45 -25 -61 q-15 -10 -65 -10q-16 0 -67.5 1t-90.5 1q-18 1 -38 9.5t-26 16.5q-2 4 -2 76q0 39 2 84.5t2 71.5q0 7 -2 23t-2 26q-17 0 -60.5 -3t-57.5 -3l-297 -2q-12 2 -41 2q-16 0 -40.5 -1t-33.5 -1q-39 0 -51 26q0 9 -1 31.5t-1 26.5z" />
<glyph unicode="&#xad;" horiz-adv-x="1026" d="M113 555q0 9 2 44t2 73q0 6 -2 35t-2 38l2 43q3 37 22.5 47.5t61.5 10.5q1 0 41.5 -6t103.5 -6q34 0 77.5 1t72.5 2l30 1l49 -4q25 -5 35 -5q24 0 36 5.5t28 5.5q22 0 57 -2t51 -2q7 0 15.5 0.5t22.5 1.5l28 2q20 0 29.5 -1t19.5 -7t14 -19t4 -35v-135q0 -56 -3 -75 t-15 -31q-28 -35 -43 -39q-20 0 -74 -2t-80 -2q-31 0 -41 2l-350 -2q-138 2 -149 3q-35 5 -42 28q-3 11 -3 30z" />
<glyph unicode="&#xae;" horiz-adv-x="1781" d="M139 618q0 191 64 343q7 18 55.5 96t60.5 92q67 78 135.5 115.5t186.5 68.5q100 29 195 29q103 0 294 -29q75 -11 185 -69q136 -69 246 -265q48 -83 64.5 -152.5t16.5 -168.5q0 -65 -13.5 -159.5t-41.5 -119.5q-4 -19 -20.5 -62.5t-24.5 -57.5q-65 -119 -160 -187 q-52 -42 -132.5 -75.5t-123.5 -41.5q-97 -20 -262 -20q-26 0 -47.5 1t-43.5 3.5t-35 4.5t-36.5 7.5t-32.5 8t-39 11t-40 11.5q-57 12 -124 52t-118 91q-79 77 -113 131.5t-73 167.5q-23 97 -23 174zM334 631q0 -132 70.5 -254t195.5 -187q43 -23 118 -43t150 -20 q359 0 475 190q101 167 101 367q0 75 -21 150q-32 124 -86 182q-93 103 -254 155q-9 2 -54.5 12.5t-61.5 10.5q-45 0 -73.5 1t-35.5 1q-75 0 -183 -31.5t-153 -72.5q-98 -90 -143 -197.5t-45 -263.5zM551 385q0 4 1 24t3 67.5t4 107.5q0 23 -4 110.5t-4 155.5q0 141 16 172 q16 12 72 12q30 0 76 4q90 4 125 4q7 0 22.5 -2t22.5 -2q12 0 29.5 2t27.5 2q3 0 10.5 -1t23.5 -2t38 -1q34 0 80.5 -13t76.5 -36q95 -74 95 -207q0 -58 -18.5 -108.5t-51.5 -73.5q-8 -7 -25 -16t-26 -19q4 -9 37 -64.5t59.5 -107.5t26.5 -74q0 -16 -11 -33.5t-24 -17.5 q-9 0 -26 1t-27 1h-109q-38 0 -60.5 22t-37.5 62q-42 115 -84 170l-70 4v-51q0 -24 1 -64.5t1 -62.5q0 -55 -12 -76q-47 -6 -176 -6q-29 0 -74 23q-8 60 -8 94zM805 750q0 -38 2 -48q21 -6 57 -6q13 0 36.5 1t31.5 1q37 2 55.5 18.5t18.5 55.5q0 69 -74 72h-55q-48 0 -62 -4 q-10 -20 -10 -90z" />
<glyph unicode="&#xaf;" horiz-adv-x="1015" d="M143 1698q0 44 15 59q46 8 71 8q14 0 37.5 1t36.5 1q40 0 117.5 -2t116.5 -2q56 0 126.5 4.5t118.5 4.5q50 0 72 -15q18 -13 18 -65q0 -15 -1 -40t-1 -30q0 -22 1 -57.5t1 -53.5q-7 -33 -18.5 -46t-32.5 -13h-114h-238q-111 -6 -199 -6q-94 0 -110 12q-15 15 -15 53v103 q-2 51 -2 84z" />
<glyph unicode="&#xb0;" horiz-adv-x="1071" d="M143 973q3 212 131 309q50 38 124 59t132 21q8 0 18 -0.5t27.5 -1.5t34.5 -2q63 -6 142 -53.5t112 -92.5q64 -89 64 -235q0 -41 -34 -123t-50 -102q-2 -2 -23.5 -26t-29.5 -30q-70 -33 -118.5 -49.5t-68.5 -19t-49 -2.5q-53 0 -85.5 3.5t-45 7t-41 16t-51.5 20.5 q-29 3 -85 70.5t-75 103.5q-29 45 -29 127zM436 997q0 -90 86 -108q57 0 87 32t30 76q0 35 -21 64t-57 35q-30 6 -31 6q-36 0 -61.5 -22.5t-26.5 -57.5q-6 -24 -6 -25z" />
<glyph unicode="&#xb1;" horiz-adv-x="1128" d="M135 930q6 35 16 46t31 11q6 0 23.5 -1t30.5 -1q5 0 15.5 1t16.5 1q36 4 66 4l22 -2l27 4q17 0 27 2q2 10 2 31q0 9 -1 32t-1 36q0 5 1 15t1 15q0 2 -2 16t-2 25q0 52 49 62q6 2 24 2q11 0 33.5 -1t28.5 -1q15 0 41 1t41 1h18q31 0 47.5 -7t34.5 -32l-4 -199q23 -6 67 -6 q16 0 46.5 1t44.5 1q72 0 102 -12q10 -41 10 -94v-41v-45q0 -61 -28 -93l-236 -2q-4 -14 -4 -41q0 -10 1 -31.5t1 -31.5v-18l4 -23q0 -60 -24.5 -79t-86.5 -19q-18 0 -78.5 2t-103.5 2q-22 22 -22 53v31q0 9 1 31.5t1 39.5q0 49 -6 82h-160q-27 0 -40 0.5t-30 4t-25 12 t-10 22.5q-3 14 -8 66l4 76q-6 30 -6 51zM141 260q3 70 19.5 89.5t60.5 19.5q8 0 36 -1t46 -1q31 0 81 2t71 2q37 0 96.5 -1t85.5 -1q24 0 81 1t95 1q157 0 172 -25q4 -24 4 -47q0 -12 2 -34t2 -32q0 -61 -10 -71q10 -13 10 -29q0 -23 -4 -47q-46 -10 -158 -10q-37 0 -116 4 t-119 4q-17 0 -64 -2t-83 -2q-21 0 -75 -1t-79 -1q-48 0 -62 2l-22.5 2.5t-19.5 2.5t-15 3.5t-13 7t-9 12t-6.5 19t-3 28t-1.5 38.5z" />
<glyph unicode="&#xb2;" horiz-adv-x="1040" d="M131 1286q0 29 21 47q12 10 21.5 15t24 9.5t23.5 8.5q39 19 126 36t155 17q18 0 57.5 -2t61.5 -2q36 0 84 -20t79 -45q30 -23 51.5 -60.5t24.5 -66.5q0 -16 1 -33l1 -16q0 -72 -26 -117q-14 -28 -41.5 -59.5t-59.5 -49.5q-30 -17 -92.5 -57.5t-89.5 -65.5q5 0 52 5.5 t71 5.5q26 0 79 1t83 1q29 0 44.5 -9.5t26.5 -31.5q0 -15 -1 -39t-1 -39v-82q0 -49 -84 -49q-3 0 -31.5 1.5t-65 3t-58.5 1.5q-10 0 -37 -1t-45 -1q-44 0 -140 -3t-151 -3q-23 0 -58 1t-47 1q-21 0 -32 19t-11 46q0 4 0.5 16.5l1.5 37.5t1 59q0 48 9.5 65.5t43.5 40.5 l121 84q57 44 96 66l22 12q21 13 30.5 20t26 20t24 25.5t7.5 24.5q0 26 -14 36.5t-51 10.5q-20 0 -41 -5t-50 -14.5t-40 -12.5q-21 -6 -43 -12t-32.5 -9.5t-21 -5.5t-18.5 -2q-22 0 -33 16t-41 97l-6 16q0 3 -4 20.5t-4 26.5z" />
<glyph unicode="&#xb3;" horiz-adv-x="1038" d="M131 682q0 47 19 84q7 12 16 36.5t16 35.5q3 5 8.5 13.5t8 12.5t6.5 9.5t6.5 8t6.5 5t7.5 3.5t7.5 1q22 0 82 -31q38 -20 89.5 -32.5t82.5 -12.5q50 0 80.5 19t30.5 51q0 22 -11 34t-38 23q-19 8 -60 8q-17 0 -50 -4t-44 -4q-27 0 -38 18.5t-13 55.5v16q0 37 6 49l137 80 q-2 0 -9 3t-9 3q-20 0 -98 -3t-144 -3q-39 0 -51 6q-33 15 -37 95v69q0 23 8 64q34 10 142 10q29 0 94 2t92 2t85.5 -3t92.5 -3q27 0 81 1t77 1q76 0 76 -70v-37q0 -47 -5 -71.5t-20.5 -39t-32.5 -21.5t-53 -24.5t-71 -41.5q5 -6 17 -9.5t27.5 -5.5t22.5 -4q32 -11 72 -52.5 t49 -78.5q14 -54 14 -106q0 -47 -14 -95t-45 -73q-68 -61 -135 -82q-29 -9 -102 -15t-128 -6q-101 0 -223 43q-13 4 -34.5 11.5t-29 10t-21 8t-19 10t-12.5 11t-13 15.5z" />
<glyph unicode="&#xb4;" horiz-adv-x="759" d="M143 1468q1 11 15 49t22 54q1 2 12 30.5t19 47.5q6 10 19 47t22 47q32 32 39 35q27 10 57 10q3 0 55.5 -1t75.5 -1q19 0 59 1t56 1q26 0 47 -12t27 -35q0 -20 -11 -41t-36 -52.5t-33 -43.5q-48 -69 -70 -91q-46 -58 -55 -65q-19 -14 -64 -14q-7 0 -32 1t-35 1 q-9 0 -57 -1t-58 -1q-29 0 -41 2q-19 0 -33 32z" />
<glyph unicode="&#xb6;" horiz-adv-x="1574" d="M123 868q0 27 4 62.5t9.5 72t6.5 46.5q58 133 142 184q24 14 67 24q16 3 37.5 14.5t28.5 14.5q71 27 280 27q22 0 77 -1t93 -1q36 0 98.5 -2t88.5 -2q70 4 121 4q18 0 34 -4q14 2 41 2q13 0 34 -3t34 -3q20 0 32 -1.5t21.5 -8.5t13.5 -12.5t6.5 -24.5t3 -32t1.5 -46 q0 -10 1 -43.5t1 -42.5q0 -38 -2 -92.5t-2 -92.5q0 -19 1 -59t1 -62t-2 -76.5t-2 -78.5q0 -13 -1 -25.5t-1 -15.5q0 -41 5 -99t5 -67q0 -32 -2 -55q-4 -31 -4 -88t2 -86q0 -5 -2 -61t-2 -62q0 -28 -3 -39t-14 -21q-10 -10 -53 -10q-22 0 -47 -2t-31 -2q-7 0 -48.5 -1 t-53.5 -1q-4 0 -14.5 1t-18 1.5t-16.5 3.5t-13 8q0 8 -3 24t-3 23q0 52 4 95q0 7 -1 26t-1 31q0 23 -2 74.5t-2 72.5q0 23 2 67t2 64q0 5 -1 16.5t-1 16.5q0 38 3 108t3 105q0 4 -2 41t-2 41q0 27 2 64t2 65q0 36 -4 64q-21 6 -61 6q-109 0 -121 -2q-8 -13 -8 -72 q0 -49 1 -176.5t1 -169.5q0 -33 -4 -49q6 -20 6 -66q0 -22 -2 -64.5t-2 -62.5v-24q0 -3 1 -13.5t2 -37.5t1 -68q0 -25 -4 -55t-4 -43q0 -4 1 -23t1 -33q0 -18 -5.5 -29t-23.5 -24q-3 0 -9.5 -1t-10.5 -1q-16 0 -49.5 1t-51.5 1q-3 0 -39 -4h-39q-54 0 -70 11.5t-16 56.5 q0 4 -1 17.5t-1 22.5t3 31.5t3 36.5q0 36 -4 72q0 14 -1 36t-1 35q0 5 1 29t1 39q0 91 -6 107q-10 4 -45 4q-61 0 -86 4q-87 16 -96 18q-28 7 -63 34.5t-39 29.5q-19 13 -29.5 27t-19.5 32.5t-19 30.5q-19 29 -32 90.5t-13 105.5z" />
<glyph unicode="&#xb7;" horiz-adv-x="665" d="M123 659q0 92 53 136q47 58 117 63q40 4 55 4q85 0 125 -55q5 -7 24.5 -25.5t22.5 -23.5q23 -41 23 -105q0 -79 -49 -125q-29 -25 -70 -42t-78 -17q-22 0 -81 15.5t-77 27.5q-30 20 -47.5 60t-17.5 87z" />
<glyph unicode="&#xb8;" horiz-adv-x="935" d="M123 -510q0 13 10.5 52.5t20.5 58.5q3 6 12.5 36.5t21.5 45.5t33 16q5 0 40 -13.5t85 -27.5t90 -14q80 0 80 34q0 18 -15 28.5t-52 17.5q-4 1 -29 4.5t-54 9.5t-51 14q-30 11 -38.5 31t-8.5 59q0 40 13 203q23 10 71 10h142q18 0 31.5 -10t13.5 -22q0 -16 -1 -54t-1 -51 q16 -10 89.5 -29t106.5 -45q45 -36 67.5 -77.5t22.5 -116.5q0 -86 -57 -152.5t-137 -87.5q-84 -24 -215 -24q-21 0 -86 11t-78 17q-39 11 -83 33.5t-44 42.5z" />
<glyph unicode="&#xb9;" horiz-adv-x="763" d="M47 1192q0 28 35 51q27 17 78 46t67 38q4 3 31 21t50 31.5t38 17.5q24 8 123 8q63 0 89 -4.5t44 -16.5q10 -34 10 -118q0 -13 -1 -36.5t-1 -31.5q0 -14 3 -42t3 -42q0 -6 -1 -38.5t-1 -43.5q0 -40 1 -152t1 -157q0 -84 -2 -90q-12 -30 -29 -37.5t-71 -7.5h-94 q-56 0 -74 4.5t-27 25.5q-6 12 -6 72v137q0 27 -1 75.5t-1 66.5q0 14 3.5 69t4.5 62q-12 0 -75.5 -42t-91.5 -42q-16 11 -31 30.5t-24.5 35.5t-21.5 40t-16 31q-12 18 -12 39z" />
<glyph unicode="&#xba;" horiz-adv-x="1050" d="M143 995q0 82 39 162t109 131q33 24 102.5 42t134.5 18q97 0 180.5 -36t139.5 -104q59 -78 59 -227q0 -55 -10 -88q-58 -153 -127 -197q-113 -65 -252 -65q-66 0 -125 20q-13 3 -28.5 12t-28.5 11q-22 6 -38 17.5t-41.5 40t-31.5 34.5q-47 47 -63 106q-19 68 -19 123z M154 305q0 15 1 49t1 45q0 89 20 107q2 0 15.5 5t35.5 5h82q36 -6 94 -6q26 3 93 6h100q73 0 102 -2q16 0 53 2t50 2q90 0 92 -57q0 -12 -1 -58.5t-1 -68.5q0 -12 1 -34t1 -34q0 -22 -23.5 -35.5t-64.5 -13.5q-46 0 -110.5 3t-78.5 3q-4 0 -68 -3t-69 -3q-25 -2 -233 -2 q-29 0 -50 9.5t-26 23.5q-16 11 -16 57zM432 971q3 -33 36.5 -57.5t66.5 -24.5q43 4 66.5 33.5t23.5 74.5q0 59 -39 74q-27 21 -64 21q-16 0 -26 -2q-64 -25 -64 -119z" />
<glyph unicode="&#xbb;" horiz-adv-x="1218" d="M133 248q0 33 29 112q13 45 51 136q3 8 10 36t10 37q10 27 12.5 56.5t4.5 33.5q-14 57 -31 118t-18 65q-8 16 -15.5 47.5t-15.5 48.5q-35 66 -35 115v12q31 27 41 27q18 0 48 -1t46 -1q48 0 62 2q50 4 57 4q9 0 18.5 -13t22.5 -38.5t16 -30.5q12 -24 43 -71t35 -62 q11 -35 45 -95.5t45 -109.5v-39q0 -26 -9.5 -50t-37.5 -75q-5 -17 -73 -119q-24 -40 -46 -81.5t-34 -59.5q-2 -2 -12.5 -16t-10.5 -15q-8 -12 -29 -12q-13 0 -65.5 -2t-58.5 -2q-4 0 -30.5 2t-41.5 2q-19 0 -33 39zM608 254q0 17 26 65.5t36 94.5q10 43 39.5 126t29.5 101 q0 21 -14 70q-4 14 -10 41t-11.5 47.5t-13.5 42.5q0 1 -22 84q-3 9 -23 57.5t-20 67.5q0 15 12 25.5t20 10.5q16 0 45 4.5t41 4.5q6 0 54 -1t73 -1l25 -7q14 -21 41.5 -80t46.5 -85q10 -13 24.5 -44.5t20.5 -41.5q22 -24 31 -60q9 -6 21 -25.5t14 -21.5q13 -20 22 -47 q0 -9 -1 -36t-1 -30q0 -22 -82 -151l-80 -123q0 -3 -16.5 -33.5t-17.5 -32.5q-26 -69 -60 -69q-9 0 -28.5 1t-28.5 1q-6 0 -20.5 -0.5t-44.5 -1t-74 -0.5q-22 0 -38 11.5t-16 35.5z" />
<glyph unicode="&#xbc;" horiz-adv-x="2162" d="M82 1098q0 28 35 51q27 17 78 46t67 38q4 3 31 21t50 31.5t38 17.5q24 8 123 8q63 0 89 -4.5t44 -16.5q10 -34 10 -119q0 -13 -1 -36t-1 -31q0 -14 3 -42t3 -42q0 -6 -1 -38.5t-1 -43.5q0 -40 1 -152t1 -157q0 -84 -2 -90q-12 -30 -29 -37.5t-71 -7.5h-94q-56 0 -74 4.5 t-27 25.5q-6 12 -6 72v137q0 27 -1 75t-1 66q0 14 3.5 69.5t4.5 62.5q-12 0 -76 -42t-92 -42q-20 14 -36.5 37t-35.5 60.5t-20 39.5q-12 18 -12 39zM422 -6q0 21 15 45t40 55t37 53q90 153 98 164q46 63 135 212.5t111 174.5q24 26 56 83t40 65q18 20 64.5 107t79.5 132 q31 42 147 234q9 17 29 31t35 16q32 0 123 -2t114 -2q9 -3 16 -10t14 -17t11 -14q-1 -26 -15.5 -51.5t-52.5 -79t-67 -100.5q-11 -16 -47 -79t-49 -81q-27 -39 -98 -154t-111 -170q-35 -72 -115.5 -190t-97.5 -158q-5 -11 -41 -63t-51 -80q-23 -52 -74 -125q-15 -23 -27 -32 t-34 -9q-63 0 -103 4q-5 0 -46.5 -2t-57.5 -2q-56 0 -70 14q-8 12 -8 31zM1161 223q0 10 1 31t1 31q0 6 -1 17.5t-1 16.5q0 18 2.5 48.5t3.5 48.5l26 36q26 35 38 46q24 22 53.5 54.5t32.5 39.5q16 24 38.5 50.5t53 59.5t49.5 56q3 3 13.5 14.5t17 18t18.5 13.5t25 9h127 q9 0 27 1t26 1q10 0 23 -1t18 -1q10 0 31.5 1t40.5 1q12 0 30 -5t19 -5q13 -13 22 -37.5t9 -46.5v-199q0 -11 -1 -38t-1 -42q0 -8 1 -28.5t1 -28.5q12 -2 37 -2h38q48 0 60 -18q0 -9 -2 -28t-2 -28q0 -17 2 -52.5t2 -55.5q0 -17 -6 -35q-5 -21 -64 -21h-31q-20 0 -30 -2 q-2 -8 -2 -45v-41q0 -29 -15 -51q-24 -6 -53 -6q-34 0 -55.5 0.5t-30 1t-10.5 0.5q-33 -2 -80 -2q-5 0 -16 1t-17 1q-24 19 -24 47v64q0 23 -2 37q-27 4 -99 4q-35 0 -111.5 -3.5t-111.5 -3.5q-74 0 -106 13q-15 27 -15 63zM1444 367l170 4q0 5 1 12t1 8v121q0 15 1 32t1 40 z" />
<glyph unicode="&#xbd;" horiz-adv-x="2252" d="M82 1098q0 28 35 51q27 17 78 46t67 38q4 3 31 21t50 31.5t38 17.5q24 8 123 8q63 0 89 -4.5t44 -16.5q10 -34 10 -119q0 -13 -1 -36t-1 -31q0 -14 3 -42t3 -42q0 -6 -1 -38.5t-1 -43.5q0 -40 1 -152t1 -157q0 -84 -2 -90q-12 -30 -29 -37.5t-71 -7.5h-94q-56 0 -74 4.5 t-27 25.5q-6 12 -6 72v137q0 27 -1 75t-1 66q0 14 3.5 69.5t4.5 62.5q-12 0 -76 -42t-92 -42q-20 14 -36.5 37t-35.5 60.5t-20 39.5q-12 18 -12 39zM422 -6q0 21 15 45t40 55t37 53q90 153 98 164q46 63 135 212.5t111 174.5q24 26 56 83t40 65q18 20 64.5 107t79.5 132 q31 42 147 234q9 17 29 31t35 16q32 0 123 -2t114 -2q9 -3 16 -10t14 -17t11 -14q-1 -26 -15.5 -51.5t-52.5 -79t-67 -100.5q-11 -16 -47 -79t-49 -81q-27 -39 -98 -154t-111 -170q-35 -72 -115.5 -190t-97.5 -158q-5 -11 -41 -63t-51 -80q-23 -52 -74 -125q-15 -23 -27 -32 t-34 -9q-63 0 -103 4q-5 0 -46.5 -2t-57.5 -2q-56 0 -70 14q-8 12 -8 31zM1335 702q0 30 21 48q12 10 22 15t24 9t23 8q40 19 126.5 36.5t154.5 17.5q18 0 57.5 -2.5t61.5 -2.5q36 0 84.5 -20t79.5 -45q30 -23 51 -60.5t24 -66.5q0 -16 1 -33l1 -16q0 -72 -26 -117 q-37 -71 -101 -108q-30 -17 -92.5 -57.5t-89.5 -65.5q5 0 52 5t71 5q26 0 79 1t83 1q51 0 72 -41q0 -15 -1.5 -39t-1.5 -39v-82q0 -49 -83 -49q-3 0 -31.5 1.5t-65.5 3t-59 1.5q-10 0 -37 -1t-45 -1q-49 0 -138.5 -3t-152.5 -3q-23 0 -58 1t-46 1q-21 0 -32 19.5t-11 46.5 q0 4 0.5 16t1 37t0.5 59q0 48 9.5 66t43.5 41l121 84q52 41 96 65q3 2 18 11t24 14.5t24 16.5t23.5 19.5t15 20t6.5 21.5q0 25 -14.5 36t-51.5 11q-20 0 -41.5 -5t-49.5 -15t-40 -13q-21 -6 -43 -12t-32.5 -9.5t-21 -5.5t-18.5 -2q-22 0 -32 16t-41 97l-7 16q0 3 -4 20.5 t-4 26.5z" />
<glyph unicode="&#xbe;" horiz-adv-x="2365" d="M127 590q0 49 18 84q7 12 16.5 36t16.5 35q4 6 10.5 16t9 14t7 10t7.5 8t7.5 4t9.5 2q22 0 82 -31q38 -20 89.5 -32.5t82.5 -12.5q50 0 80.5 19t30.5 51q0 22 -11 34t-38 23q-19 8 -60 8q-17 0 -50 -4t-44 -4q-27 0 -38 18.5t-13 55.5v16q0 37 6 49l137 80q-2 0 -9 3 t-9 3q-20 0 -98 -3t-144 -3q-39 0 -51 6q-33 15 -37 94v70q0 23 8 64q34 10 142 10q29 0 94 2t92 2t85.5 -3t92.5 -3q27 0 81 1t77 1q76 0 76 -70v-37q0 -57 -11 -85t-27 -36.5t-60.5 -28.5t-84.5 -48q5 -6 17 -9.5t28 -5.5t23 -4q32 -11 72 -52.5t49 -78.5q14 -54 14 -106 q0 -47 -14 -95t-45 -73q-68 -61 -135 -82q-29 -9 -102 -15t-128 -6q-101 0 -223 43q-13 4 -34.5 11.5t-29 10t-21 8t-19 10t-12.5 11t-13 15.5zM625 -6q0 21 15 45t40 55t37 53q90 153 98 164q46 63 135 212.5t111 174.5q24 26 56 83t40 65q17 20 63.5 107t79.5 132 q37 49 148 234q9 17 28.5 31t34.5 16q32 0 123.5 -2t114.5 -2q9 -3 16 -10t14 -17t11 -14q-1 -26 -15.5 -51.5t-52.5 -79t-67 -100.5q-11 -16 -47 -79t-49 -81q-27 -39 -98 -154t-111 -170q-35 -72 -115.5 -190t-97.5 -158q-5 -11 -41.5 -63t-51.5 -80q-25 -56 -73 -125 q-15 -22 -27.5 -31.5t-34.5 -9.5q-62 0 -102 4q-5 0 -47 -2t-58 -2q-55 0 -69 14q-8 12 -8 31zM1364 223q0 10 1 31t1 31q0 6 -1 17.5t-1 16.5q0 18 2.5 48.5t3.5 48.5l26 36q26 35 38 46q24 22 53.5 54.5t32.5 39.5q16 24 38.5 50.5t53 59.5t49.5 56q3 3 13.5 14.5t17 18 t18.5 13.5t25 9h127q9 0 27 1t26 1q10 0 23 -1t18 -1q10 0 31.5 1t40.5 1q12 0 30 -5t19 -5q30 -30 30 -84v-199q0 -11 -1 -38t-1 -42q0 -8 1 -28.5t1 -28.5q12 -2 37 -2h39q48 0 60 -18q0 -9 -2.5 -28t-2.5 -28q0 -17 2.5 -52.5t2.5 -55.5q0 -14 -7 -35q-5 -21 -63 -21h-31 q-21 0 -31 -2q-2 -8 -2 -45v-41q0 -21 -2.5 -29t-11.5 -22q-24 -6 -53 -6q-34 0 -55.5 0.5t-30 1t-10.5 0.5q-33 -2 -80 -2q-5 0 -16 1t-17 1q-25 20 -25 47v64q0 23 -2 37q-27 4 -98 4q-35 0 -111.5 -3.5t-111.5 -3.5q-75 0 -107 13q-14 25 -14 63zM1647 367l170 4 q0 5 1 12t1 8v121q0 15 1 32t1 40z" />
<glyph unicode="&#xbf;" horiz-adv-x="1280" d="M86 344q0 45 28.5 113t51.5 90q62 57 162 108q83 30 188 56q2 8 7.5 26t8.5 33t3 29q0 45 26 71q32 7 43 7q13 0 35 -1.5t39 -1.5q12 0 41.5 1.5t46.5 1.5q72 0 100 -35q11 -14 11 -68q0 -22 -1.5 -66t-1.5 -59q0 -28 -2 -69q0 -12 -7 -33.5t-13 -30.5q-13 -19 -44 -33.5 t-71.5 -28t-58.5 -22.5q-9 -4 -38.5 -9t-59.5 -15.5t-48 -32.5q-12 -15 -12 -41q0 -15 8.5 -31t22.5 -20q64 -19 115 -19q25 1 51.5 4t43 6.5l49.5 10.5t48 10q15 5 56.5 23t75.5 30t52 12q27 0 48.5 -20.5t44.5 -60.5q53 -97 53 -134q0 -57 -49 -69q-77 -59 -156 -80 q-21 -6 -80.5 -19t-87.5 -22q-32 -10 -99 -18.5t-126 -8.5q-40 1 -76.5 6.5t-78.5 15t-66 13.5q-46 8 -97 35t-67 45q-8 8 -25 26t-25.5 28t-21 26t-19.5 33.5t-12 38.5q-16 75 -16 149zM485 1174q0 6 1 12t3.5 12.5t7.5 26.5t11 47q3 20 34 46t58 36q41 12 92 12 q29 0 90 -14q60 -16 88.5 -59t28.5 -99q0 -42 -18 -94q-27 -67 -93 -90q-71 -23 -108 -23q-27 0 -43 4q-70 15 -111 66t-41 117z" />
<glyph unicode="&#xc0;" d="M82 53q6 17 15.5 44.5t16.5 47.5t11 29q27 50 96 248q4 12 18.5 40.5t18.5 45.5q6 21 19.5 52t13.5 32q22 47 35.5 97.5t27.5 78.5q11 23 21 48t21.5 56t17.5 48q4 12 15 35t15 34q1 4 11 36.5t18 49.5q3 7 35 94q5 30 16 50.5t22.5 34t14.5 20.5q19 37 103 37 q26 0 90 -1t106 -1q16 0 53 1t68 1q49 0 86 -11q25 -7 40 -27.5t36 -72.5q56 -130 86 -213q7 -19 23 -58t28 -71t20 -61q8 -30 68.5 -170.5t63.5 -149.5q8 -35 14 -49q25 -52 62 -157t48 -128q23 -49 37 -94q0 -14 -15 -32.5t-28 -18.5q-24 0 -79 2t-78 2q-5 0 -27 -1 t-43 -1h-100q-19 0 -43 6q-24 24 -33 64q-3 15 -16 48t-17 44t-8 28t-7 26.5t-7 12.5q-16 0 -48 -2t-47 -2q-7 0 -38.5 2t-55.5 2q-48 0 -177.5 -1t-160.5 -1q-14 -49 -38.5 -108.5t-26.5 -67.5q-8 -30 -23 -42.5t-47 -12.5q-34 0 -101 2t-110 2q-12 0 -28.5 -2t-30.5 -2 q-6 0 -56 4q-22 2 -22 53zM469 1735q1 32 27 42.5t77 10.5q26 0 82 -1t78 -1q7 0 18.5 1t14.5 1q6 0 16 -1t13 -1q60 0 77 -31l12 -17q13 -16 19 -30l17 -50q18 -51 34 -83q35 -69 35 -102q0 -25 -18.5 -33t-57.5 -8q-11 0 -58 2t-64 2q-13 0 -39 -1t-41 -1q-34 0 -72 53 l-66 82q-15 19 -41 55.5t-36 46.5q-1 3 -8.5 17t-13 27.5t-5.5 19.5zM668 557q30 -6 110 -6q155 0 205 4q-11 48 -57 172.5t-58 165.5q-1 3 -5 17.5t-6.5 22.5t-6.5 19t-8 17t-8 8l-17 -10q-14 -20 -40 -107.5t-36 -107.5z" />
<glyph unicode="&#xc1;" d="M82 53q6 17 15.5 44.5t16.5 47.5t11 29q27 50 96 248q4 12 18.5 40.5t18.5 45.5q6 21 19.5 52t13.5 32q22 47 35.5 97.5t27.5 78.5q11 23 21 48t21.5 56t17.5 48q4 12 15 35t15 34q1 4 11 36.5t18 49.5q3 7 35 94q5 30 16 50.5t22.5 34t14.5 20.5q19 37 103 37 q26 0 90 -1t106 -1q16 0 53 1t68 1q49 0 86 -11q25 -7 40 -27.5t36 -72.5q56 -130 86 -213q7 -19 23 -58t28 -71t20 -61q8 -30 68.5 -170.5t63.5 -149.5q8 -35 14 -49q25 -52 62 -157t48 -128q23 -49 37 -94q0 -14 -15 -32.5t-28 -18.5q-24 0 -79 2t-78 2q-5 0 -27 -1 t-43 -1h-100q-19 0 -43 6q-24 24 -33 64q-3 15 -16 48t-17 44t-8 28t-7 26.5t-7 12.5q-16 0 -48 -2t-47 -2q-7 0 -38.5 2t-55.5 2q-48 0 -177.5 -1t-160.5 -1q-14 -49 -38.5 -108.5t-26.5 -67.5q-8 -30 -23 -42.5t-47 -12.5q-34 0 -101 2t-110 2q-12 0 -28.5 -2t-30.5 -2 q-6 0 -56 4q-22 2 -22 53zM668 557q30 -6 110 -6q155 0 205 4q-11 48 -57 172.5t-58 165.5q-1 3 -5 17.5t-6.5 22.5t-6.5 19t-8 17t-8 8l-17 -10q-14 -20 -40 -107.5t-36 -107.5zM672 1468q1 11 15 49t22 54q3 7 12.5 33.5t17.5 44.5q6 10 19 47t22 47q32 32 39 35 q27 10 58 10q3 0 55.5 -1t75.5 -1q19 0 58.5 1t55.5 1q26 0 47 -12t27 -35q0 -20 -11 -41t-36 -52.5t-33 -43.5q-50 -72 -69 -91q-44 -55 -56 -65q-19 -14 -63 -14q-6 0 -32 1t-36 1q-9 0 -57 -1t-58 -1q-28 0 -40 2q-19 0 -33 32z" />
<glyph unicode="&#xc2;" d="M82 53q6 17 15.5 44.5t16.5 47.5t11 29q27 50 96 248q4 12 18.5 40.5t18.5 45.5q6 21 19.5 52t13.5 32q22 47 35.5 97.5t27.5 78.5q11 23 21 48t21.5 56t17.5 48q4 12 15 35t15 34q1 4 11 36.5t18 49.5q3 7 35 94q5 30 16 50.5t22.5 34t14.5 20.5q19 37 103 37 q26 0 90 -1t106 -1q16 0 53 1t68 1q49 0 86 -11q25 -7 40 -27.5t36 -72.5q56 -130 86 -213q7 -19 23 -58t28 -71t20 -61q8 -30 68.5 -170.5t63.5 -149.5q8 -35 14 -49q25 -52 62 -157t48 -128q23 -49 37 -94q0 -14 -15 -32.5t-28 -18.5q-24 0 -79 2t-78 2q-5 0 -27 -1 t-43 -1h-100q-19 0 -43 6q-24 24 -33 64q-3 15 -16 48t-17 44t-8 28t-7 26.5t-7 12.5q-16 0 -48 -2t-47 -2q-7 0 -38.5 2t-55.5 2q-48 0 -177.5 -1t-160.5 -1q-14 -49 -38.5 -108.5t-26.5 -67.5q-8 -30 -23 -42.5t-47 -12.5q-34 0 -101 2t-110 2q-12 0 -28.5 -2t-30.5 -2 q-6 0 -56 4q-22 2 -22 53zM444 1475q0 35 48 104q5 5 28.5 46.5t32.5 53.5q7 10 17 26.5t18 28t16 19.5q18 22 30.5 28.5t35.5 6.5q5 0 68 -1t91 -1q23 0 94 1t81 1q23 0 34 -9t37 -46q17 -26 65 -107.5t56 -93.5q21 -40 21 -57q0 -41 -68 -41q-6 0 -24.5 1t-24.5 1h-76 q-72 0 -88 14q-19 15 -42.5 38.5t-40 36.5t-34.5 17q-19 -13 -44.5 -37t-43.5 -43t-22 -20q-18 -6 -119 -6q-119 0 -127 8q-19 19 -19 31zM668 557q30 -6 110 -6q155 0 205 4q-11 48 -57 172.5t-58 165.5q-1 3 -5 17.5t-6.5 22.5t-6.5 19t-8 17t-8 8l-17 -10 q-14 -20 -40 -107.5t-36 -107.5z" />
<glyph unicode="&#xc3;" d="M82 53q6 17 15.5 44.5t16.5 47.5t11 29q27 50 96 248q4 12 18.5 40.5t18.5 45.5q6 21 19.5 52t13.5 32q22 47 35.5 97.5t27.5 78.5q11 23 21 48t21.5 56t17.5 48q4 12 15 35t15 34q1 4 11 36.5t18 49.5q3 7 35 94q5 30 16 50.5t22.5 34t14.5 20.5q19 37 103 37 q26 0 90 -1t106 -1q16 0 53 1t68 1q49 0 86 -11q25 -7 40 -27.5t36 -72.5q56 -130 86 -213q7 -19 23 -58t28 -71t20 -61q8 -30 68.5 -170.5t63.5 -149.5q8 -35 14 -49q25 -52 62 -157t48 -128q23 -49 37 -94q0 -14 -15 -32.5t-28 -18.5q-24 0 -79 2t-78 2q-5 0 -27 -1 t-43 -1h-100q-19 0 -43 6q-24 24 -33 64q-3 15 -16 48t-17 44t-8 28t-7 26.5t-7 12.5q-16 0 -48 -2t-47 -2q-7 0 -38.5 2t-55.5 2q-48 0 -177.5 -1t-160.5 -1q-14 -49 -38.5 -108.5t-26.5 -67.5q-8 -30 -23 -42.5t-47 -12.5q-34 0 -101 2t-110 2q-12 0 -28.5 -2t-30.5 -2 q-6 0 -56 4q-22 2 -22 53zM446 1511q0 21 2.5 56.5t2.5 58.5q0 53 59 96q64 44 115 56q27 6 55 6q99 0 143 -17q10 -4 44.5 -13.5t52.5 -18.5q6 -5 29 -11t36 -6q57 0 96 27q9 6 33 13t39 7q32 0 39 -45q0 -4 1 -19t1 -22q0 -30 -4 -104q-1 -23 -19 -45.5t-38 -32.5 q-65 -36 -84 -43l-28 -7q-28 -7 -46.5 -10t-36.5 -3q-115 0 -203 45q-41 20 -88 20q-17 0 -55 -12q-15 -4 -31.5 -13t-31.5 -14.5t-37 -5.5q-46 0 -46 57zM668 557q30 -6 110 -6q155 0 205 4q-11 48 -57 172.5t-58 165.5q-1 3 -5 17.5t-6.5 22.5t-6.5 19t-8 17t-8 8l-17 -10 q-14 -20 -40 -107.5t-36 -107.5z" />
<glyph unicode="&#xc4;" d="M82 53q6 17 15.5 44.5t16.5 47.5t11 29q27 50 96 248q4 12 18.5 40.5t18.5 45.5q6 21 19.5 52t13.5 32q22 47 35.5 97.5t27.5 78.5q11 23 21 48t21.5 56t17.5 48q4 12 15 35t15 34q1 4 11 36.5t18 49.5q3 7 35 94q5 30 16 50.5t22.5 34t14.5 20.5q19 37 103 37 q26 0 90 -1t106 -1q16 0 53 1t68 1q49 0 86 -11q25 -7 40 -27.5t36 -72.5q56 -130 86 -213q7 -19 23 -58t28 -71t20 -61q8 -30 68.5 -170.5t63.5 -149.5q8 -35 14 -49q25 -52 62 -157t48 -128q23 -49 37 -94q0 -14 -15 -32.5t-28 -18.5q-24 0 -79 2t-78 2q-5 0 -27 -1 t-43 -1h-100q-19 0 -43 6q-24 24 -33 64q-3 15 -16 48t-17 44t-8 28t-7 26.5t-7 12.5q-16 0 -48 -2t-47 -2q-7 0 -38.5 2t-55.5 2q-48 0 -177.5 -1t-160.5 -1q-14 -49 -38.5 -108.5t-26.5 -67.5q-8 -30 -23 -42.5t-47 -12.5q-34 0 -101 2t-110 2q-12 0 -28.5 -2t-30.5 -2 q-6 0 -56 4q-22 2 -22 53zM403 1591q0 62 34 116t73 67q38 10 70 10q41 0 82.5 -12.5t62.5 -34.5q26 -28 49 -119q4 -24 4 -33q0 -21 -10 -41q-9 -23 -33.5 -52t-46.5 -42q-30 -18 -96 -18q-78 0 -127 28q-25 14 -43.5 55.5t-18.5 75.5zM668 557q30 -6 110 -6q155 0 205 4 q-11 48 -57 172.5t-58 165.5q-1 3 -5 17.5t-6.5 22.5t-6.5 19t-8 17t-8 8l-17 -10q-14 -20 -40 -107.5t-36 -107.5zM887 1599q0 73 24 107q24 37 47 51t60 23q30 6 59 6q64 0 113.5 -35t60.5 -98q4 -18 4 -49q0 -54 -32 -99q-29 -40 -44.5 -50t-66.5 -17q-32 -4 -53 -4 q-64 0 -102 28.5t-62 89.5q-8 16 -8 47z" />
<glyph unicode="&#xc5;" d="M82 53q6 17 15.5 44.5t16.5 47.5t11 29q27 50 96 248q4 12 18.5 40.5t18.5 45.5q6 21 19.5 52t13.5 32q22 47 35.5 97.5t27.5 78.5q11 23 21 48t21.5 56t17.5 48q4 12 15 35t15 34q1 4 11 36.5t18 49.5q3 7 35 94q5 30 16 50.5t22.5 34t14.5 20.5q7 18 39 29 q-20 13 -31 30q-37 41 -49 88q-10 41 -10 99q0 40 6 67q54 119 107 152q93 53 215 53q59 0 120 -17t93 -53q6 -9 16.5 -21t15.5 -18q42 -39 56 -79q14 -49 14 -99q0 -58 -37 -141q-19 -40 -49 -64q25 -7 40 -27.5t36 -72.5q56 -130 86 -213q7 -19 23 -58t28 -71t20 -61 q8 -30 68.5 -170.5t63.5 -149.5q8 -35 14 -49q25 -52 62 -157t48 -128q23 -49 37 -94q0 -14 -15 -32.5t-28 -18.5q-24 0 -79 2t-78 2q-5 0 -27 -1t-43 -1h-100q-19 0 -43 6q-24 24 -33 64q-3 15 -16 48t-17 44t-8 28t-7 26.5t-7 12.5q-16 0 -48 -2t-47 -2q-7 0 -38.5 2 t-55.5 2q-48 0 -177.5 -1t-160.5 -1q-14 -49 -38.5 -108.5t-26.5 -67.5q-8 -30 -23 -42.5t-47 -12.5q-34 0 -101 2t-110 2q-12 0 -28.5 -2t-30.5 -2q-6 0 -56 4q-22 2 -22 53zM668 557q30 -6 110 -6q155 0 205 4q-11 48 -57 172.5t-58 165.5q-1 3 -5 17.5t-6.5 22.5t-6.5 19 t-8 17t-8 8l-17 -10q-14 -20 -40 -107.5t-36 -107.5zM735 1503q0 -55 35 -69q36 -19 66 -19q82 0 82 111q-1 31 -31.5 52t-63.5 21q-42 -1 -65 -28t-23 -68z" />
<glyph unicode="&#xc6;" horiz-adv-x="2242" d="M43 53q3 17 26 59t37 62q49 70 142 248q5 9 25 40.5t28 49.5q9 19 26 49t19 35q31 49 56.5 98t41.5 74q77 124 129 221q37 68 50 86q47 76 57 94q47 78 70 105q9 11 16 16.5t29.5 13t54.5 7.5q24 0 84 -1t98 -1q43 0 135 -1t142 -1q13 0 93 1t101 1q144 0 199 2 q42 0 128 -1t134 -1q80 0 98 -13q15 -11 15 -57v-98q-1 -8 -1 -48.5t-2 -74t-6 -41.5q-12 -10 -59 -10q-38 0 -156 3t-174 3q-18 0 -60.5 -3t-70.5 -3q-19 0 -67.5 2t-71.5 2h-23q-4 -36 -4 -92q0 -40 2 -58q23 0 76 -2t80 -2q18 0 54.5 2t56.5 2q16 0 49 -2t47 -2 q25 0 59.5 2t44.5 2q21 0 31 -9t10 -32q0 -16 1 -44.5t1 -41.5t-2 -47t-2 -57q0 -14 1 -27.5t1 -17.5q0 -37 -47 -37h-78q-25 1 -42.5 2.5t-28.5 1.5q-27 0 -54 -2t-88 -2q-34 0 -86.5 1t-64.5 1h-19q-2 -20 -2 -92v-35q0 -39 7 -51q21 8 41 8q16 0 49.5 1t52.5 1h37 q41 0 88 -2t72 -2q49 0 119.5 3t109.5 3q21 0 46 -2t32 -2q22 0 31 -17t10 -67v-94q0 -110 -15 -129q-8 -10 -13 -15t-19.5 -9.5t-36.5 -4.5q-9 0 -22 -2t-23 -2q-14 0 -46 -1t-36 -1q-29 0 -92 3t-95 3q-19 0 -59 -3t-61 -3q-27 0 -39 2q-20 2 -56 2q-26 0 -63 -3t-55 -3 q-39 0 -122.5 1t-150.5 1q-74 0 -88 12q-12 24 -12 107v108q-32 4 -64 4q-48 0 -177.5 -1t-160.5 -1q-22 -49 -57.5 -108.5t-38.5 -67.5q-15 -33 -27 -44t-42 -11q-34 0 -109 2t-119 2q-12 0 -28 -2t-29 -2q-5 0 -55 4q-23 2 -23 53zM735 557q30 -6 111 -6h129q0 27 3 80 t3 80q0 24 -3 86t-3 108v68q-2 0 -5.5 -1t-4.5 -1q-19 -21 -65 -111.5t-56 -107.5z" />
<glyph unicode="&#xc7;" horiz-adv-x="1558" d="M139 659q0 75 21 140q5 20 9.5 39.5t10 43t8.5 38.5q2 9 17 35t18 38q6 19 10 26t8.5 8.5t6.5 4.5l2 10q17 51 108 134t156 108q190 78 344 78q110 0 242 -23q30 -4 68 -15t62.5 -20t59 -23t37.5 -15q38 -15 60 -35.5t22 -42.5q0 -26 -14 -62.5t-31 -56.5 q-11 -13 -23 -42.5t-30 -47.5q-20 -32 -32.5 -42.5t-29.5 -10.5q-47 0 -86 20q-39 21 -95.5 39t-92.5 21q-60 6 -84 6q-39 0 -107 -15q-89 -28 -148.5 -96t-68.5 -143q-2 -16 -7 -55t-5 -50q0 -121 47 -204q30 -55 96 -101q23 -18 80 -33.5t99 -15.5q102 0 157 16 q96 26 127 43q50 31 88 31q7 0 11.5 -3t14.5 -15t19 -21q10 -10 22 -33.5t23 -37.5q20 -29 41 -82t21 -78q0 -16 -10 -27t-28.5 -20.5t-21.5 -12.5q-13 -9 -52 -25t-66 -22q-16 -3 -37 -11t-33 -11q-151 -34 -195 -35q-32 0 -40 -2v-35q16 -10 89.5 -29t106.5 -45 q45 -36 67.5 -77.5t22.5 -116.5q0 -86 -57 -152.5t-137 -87.5q-84 -24 -215 -24q-21 0 -86 11t-78 17q-39 11 -83 33.5t-44 42.5q0 13 10.5 52.5t20.5 58.5q3 6 12.5 36.5t21.5 45.5t33 16q5 0 40 -13.5t85 -27.5t90 -14q80 0 80 34q0 18 -15 28.5t-53 17.5q-4 1 -28.5 4.5 t-53.5 9.5t-51 14q-30 11 -38.5 31t-8.5 59q0 11 1 32.5t2.5 51.5t2.5 49q-53 12 -102 35q-21 11 -53.5 26.5t-51 25.5t-45 26.5t-51.5 36.5q-17 16 -28 27t-22.5 26t-16 21t-20.5 30t-23 35q-36 51 -59 121t-28 105t-5 47q-11 27 -11 122z" />
<glyph unicode="&#xc8;" horiz-adv-x="1478" d="M195 117q0 16 1 95.5t1 84.5q4 29 4 82q0 26 -2 81t-2 85q0 29 3 83t3 83q0 24 -3 86t-3 108q0 28 -1 97t-1 104q0 134 12 178q10 9 33 18t32 9h93q23 0 87 -2t85 -2q13 0 93 1t101 1q144 0 199 2q42 0 128 -1t134 -1q80 0 98 -13q15 -11 15 -57v-98q-1 -8 -1 -48.5 t-2 -74t-6 -41.5q-12 -10 -59 -10q-38 0 -156 3t-174 3q-18 0 -60.5 -3t-70.5 -3q-19 0 -67.5 2t-71.5 2h-23q-4 -36 -4 -92q0 -40 2 -58q23 0 76 -2t80 -2q18 0 54.5 2t56.5 2q16 0 49 -2t47 -2q25 0 59.5 2t44.5 2q21 0 31 -9t10 -32q0 -16 1 -44.5t1 -41.5t-2 -47t-2 -57 q0 -14 1 -27.5t1 -17.5q0 -37 -47 -37h-78q-25 1 -42.5 2.5t-28.5 1.5q-27 0 -54 -2t-88 -2q-34 0 -86.5 1t-64.5 1h-19q-2 -20 -2 -92v-35q0 -41 6 -51q21 8 41 8q16 0 50 1t53 1h37q41 0 87.5 -2t71.5 -2q48 0 119 3t111 3q21 0 46 -2t32 -2q22 0 31 -17t10 -67v-94 q0 -110 -15 -129q-8 -10 -13 -15t-19.5 -9.5t-36.5 -4.5q-9 0 -22 -2t-23 -2q-14 0 -46 -1t-36 -1q-29 0 -92 3t-95 3q-19 0 -59.5 -3t-61.5 -3q-26 0 -38 2q-20 2 -56 2q-26 0 -63.5 -3t-55.5 -3q-39 0 -125 1t-153 1q-74 0 -88 12q-12 24 -12 107zM430 1735 q1 32 27.5 42.5t77.5 10.5q26 0 81.5 -1t77.5 -1q6 0 18 1t15 1q7 0 16 -1t13 -1q61 0 78 -31q2 -3 8 -10.5t12 -17t10 -19.5l18 -50q17 -51 33 -83q35 -69 35 -102q0 -25 -18.5 -33t-57.5 -8q-12 0 -58 2t-64 2q-13 0 -39 -1t-41 -1q-34 0 -72 53l-65 82q-14 18 -41 55 t-37 47q-1 3 -8.5 17t-13 27.5t-5.5 19.5z" />
<glyph unicode="&#xc9;" horiz-adv-x="1478" d="M195 117q0 16 1 95.5t1 84.5q4 29 4 82q0 26 -2 81t-2 85q0 29 3 83t3 83q0 24 -3 86t-3 108q0 28 -1 97t-1 104q0 134 12 178q10 9 33 18t32 9h93q23 0 87 -2t85 -2q13 0 93 1t101 1q144 0 199 2q42 0 128 -1t134 -1q80 0 98 -13q15 -11 15 -57v-98q-1 -8 -1 -48.5 t-2 -74t-6 -41.5q-12 -10 -59 -10q-38 0 -156 3t-174 3q-18 0 -60.5 -3t-70.5 -3q-19 0 -67.5 2t-71.5 2h-23q-4 -36 -4 -92q0 -40 2 -58q23 0 76 -2t80 -2q18 0 54.5 2t56.5 2q16 0 49 -2t47 -2q25 0 59.5 2t44.5 2q21 0 31 -9t10 -32q0 -16 1 -44.5t1 -41.5t-2 -47t-2 -57 q0 -14 1 -27.5t1 -17.5q0 -37 -47 -37h-78q-25 1 -42.5 2.5t-28.5 1.5q-27 0 -54 -2t-88 -2q-34 0 -86.5 1t-64.5 1h-19q-2 -20 -2 -92v-35q0 -41 6 -51q21 8 41 8q16 0 50 1t53 1h37q41 0 87.5 -2t71.5 -2q48 0 119 3t111 3q21 0 46 -2t32 -2q22 0 31 -17t10 -67v-94 q0 -110 -15 -129q-8 -10 -13 -15t-19.5 -9.5t-36.5 -4.5q-9 0 -22 -2t-23 -2q-14 0 -46 -1t-36 -1q-29 0 -92 3t-95 3q-19 0 -59.5 -3t-61.5 -3q-26 0 -38 2q-20 2 -56 2q-26 0 -63.5 -3t-55.5 -3q-39 0 -125 1t-153 1q-74 0 -88 12q-12 24 -12 107zM547 1468q1 11 15 49 t22 54q3 7 12.5 33.5t17.5 44.5q6 10 19 47t22 47q32 32 39 35q27 10 58 10q3 0 55.5 -1t75.5 -1q19 0 58.5 1t55.5 1q26 0 47 -12t27 -35q0 -20 -11 -41t-36 -52.5t-33 -43.5q-50 -72 -69 -91q-44 -55 -56 -65q-19 -14 -63 -14q-7 0 -33 1t-35 1t-56.5 -1t-57.5 -1 q-29 0 -41 2q-19 0 -33 32z" />
<glyph unicode="&#xca;" horiz-adv-x="1478" d="M195 117q0 16 1 95.5t1 84.5q4 29 4 82q0 26 -2 81t-2 85q0 29 3 83t3 83q0 24 -3 86t-3 108q0 28 -1 97t-1 104q0 134 12 178q10 9 33 18t32 9h93q23 0 87 -2t85 -2q13 0 93 1t101 1q144 0 199 2q42 0 128 -1t134 -1q80 0 98 -13q15 -11 15 -57v-98q-1 -8 -1 -48.5 t-2 -74t-6 -41.5q-12 -10 -59 -10q-38 0 -156 3t-174 3q-18 0 -60.5 -3t-70.5 -3q-19 0 -67.5 2t-71.5 2h-23q-4 -36 -4 -92q0 -40 2 -58q23 0 76 -2t80 -2q18 0 54.5 2t56.5 2q16 0 49 -2t47 -2q25 0 59.5 2t44.5 2q21 0 31 -9t10 -32q0 -16 1 -44.5t1 -41.5t-2 -47t-2 -57 q0 -14 1 -27.5t1 -17.5q0 -37 -47 -37h-78q-25 1 -42.5 2.5t-28.5 1.5q-27 0 -54 -2t-88 -2q-34 0 -86.5 1t-64.5 1h-19q-2 -20 -2 -92v-35q0 -41 6 -51q21 8 41 8q16 0 50 1t53 1h37q41 0 87.5 -2t71.5 -2q48 0 119 3t111 3q21 0 46 -2t32 -2q22 0 31 -17t10 -67v-94 q0 -110 -15 -129q-8 -10 -13 -15t-19.5 -9.5t-36.5 -4.5q-9 0 -22 -2t-23 -2q-14 0 -46 -1t-36 -1q-29 0 -92 3t-95 3q-19 0 -59.5 -3t-61.5 -3q-26 0 -38 2q-20 2 -56 2q-26 0 -63.5 -3t-55.5 -3q-39 0 -125 1t-153 1q-74 0 -88 12q-12 24 -12 107zM373 1475q0 37 47 104 q5 5 28.5 46.5t32.5 53.5q7 10 17 26.5t18 28t16 19.5q18 22 30.5 28.5t35.5 6.5q5 0 68.5 -1t91.5 -1q22 0 93 1t81 1q23 0 35 -9.5t37 -45.5q17 -26 64.5 -107.5t55.5 -93.5q21 -40 21 -57q0 -41 -68 -41q-6 0 -24.5 1t-24.5 1h-76q-72 0 -88 14q-20 15 -42.5 38.5 t-39 36.5t-34.5 17q-19 -13 -45 -37t-44 -43t-22 -20q-18 -6 -119 -6q-119 0 -127 8q-18 18 -18 31z" />
<glyph unicode="&#xcb;" horiz-adv-x="1478" d="M195 117q0 16 1 95.5t1 84.5q4 29 4 82q0 26 -2 81t-2 85q0 29 3 83t3 83q0 24 -3 86t-3 108q0 28 -1 97t-1 104q0 134 12 178q10 9 33 18t32 9h93q23 0 87 -2t85 -2q13 0 93 1t101 1q144 0 199 2q42 0 128 -1t134 -1q80 0 98 -13q15 -11 15 -57v-98q-1 -8 -1 -48.5 t-2 -74t-6 -41.5q-12 -10 -59 -10q-38 0 -156 3t-174 3q-18 0 -60.5 -3t-70.5 -3q-19 0 -67.5 2t-71.5 2h-23q-4 -36 -4 -92q0 -40 2 -58q23 0 76 -2t80 -2q18 0 54.5 2t56.5 2q16 0 49 -2t47 -2q25 0 59.5 2t44.5 2q21 0 31 -9t10 -32q0 -16 1 -44.5t1 -41.5t-2 -47t-2 -57 q0 -14 1 -27.5t1 -17.5q0 -37 -47 -37h-78q-25 1 -42.5 2.5t-28.5 1.5q-27 0 -54 -2t-88 -2q-34 0 -86.5 1t-64.5 1h-19q-2 -20 -2 -92v-35q0 -41 6 -51q21 8 41 8q16 0 50 1t53 1h37q41 0 87.5 -2t71.5 -2q48 0 119 3t111 3q21 0 46 -2t32 -2q22 0 31 -17t10 -67v-94 q0 -110 -15 -129q-8 -10 -13 -15t-19.5 -9.5t-36.5 -4.5q-9 0 -22 -2t-23 -2q-14 0 -46 -1t-36 -1q-29 0 -92 3t-95 3q-19 0 -59.5 -3t-61.5 -3q-26 0 -38 2q-20 2 -56 2q-26 0 -63.5 -3t-55.5 -3q-39 0 -125 1t-153 1q-74 0 -88 12q-12 24 -12 107zM334 1591q0 62 33.5 116 t72.5 67q38 10 70 10q41 0 82.5 -12.5t62.5 -34.5q27 -29 50 -119q4 -24 4 -33q0 -19 -11 -41q-9 -23 -33.5 -52t-46.5 -42q-30 -18 -96 -18q-78 0 -127 28q-25 14 -43 55.5t-18 75.5zM817 1599q0 71 25 107q24 37 47 51.5t59 22.5q30 6 60 6q64 0 113.5 -35t60.5 -98 q4 -18 4 -49q0 -53 -33 -99q-29 -40 -44.5 -50t-66.5 -17q-32 -4 -53 -4q-64 0 -102 28.5t-62 89.5q-8 16 -8 47z" />
<glyph unicode="&#xcc;" horiz-adv-x="802" d="M35 1735q1 32 27 42.5t77 10.5q26 0 82 -1t78 -1q7 0 18 1t15 1q6 0 15 -1t13 -1q61 0 78 -31l12 -17q13 -16 19 -30l17 -50q18 -51 34 -83q35 -69 35 -102q0 -25 -18.5 -33t-57.5 -8q-12 0 -59 2t-64 2q-13 0 -39 -1t-41 -1q-11 0 -19 2.5t-21.5 15t-30.5 35.5l-66 82 q-14 18 -41 55t-37 47q-1 2 -8 16.5t-12.5 28t-5.5 19.5zM182 37q2 12 2 74q0 18 4 30q-1 4 -2 18t-2 19l2 516q0 37 1 107t1 106q0 14 -2 42.5t-2 43.5v115q1 16 2 32.5t1.5 25.5t0.5 16q0 10 -1 30.5t-1 30.5q0 25 2 37q15 33 134 33q46 0 71 -2h127q54 0 74 -17 q14 -16 14 -149q0 -220 -4 -271v-323q2 -12 2 -125q0 -46 -1 -116.5t-1 -76.5v-71q0 -20 1 -61.5t1 -57.5q0 -13 -8 -37q-31 -8 -135 -8q-17 0 -44 1t-34 1h-16q-17 0 -49.5 -2t-47.5 -2q-39 3 -56.5 12t-33.5 29z" />
<glyph unicode="&#xcd;" horiz-adv-x="802" d="M182 37q2 12 2 74q0 18 4 30q-1 4 -2 18t-2 19l2 516q0 37 1 107t1 106q0 14 -2 42.5t-2 43.5v115q1 16 2 32.5t1.5 25.5t0.5 16q0 10 -1 30.5t-1 30.5q0 25 2 37q15 33 134 33q46 0 71 -2h127q54 0 74 -17q14 -16 14 -149q0 -220 -4 -271v-323q2 -12 2 -125 q0 -46 -1 -116.5t-1 -76.5v-71q0 -20 1 -61.5t1 -57.5q0 -13 -8 -37q-31 -8 -135 -8q-17 0 -44 1t-34 1h-16q-17 0 -49.5 -2t-47.5 -2q-39 3 -56.5 12t-33.5 29zM238 1468q1 12 14.5 49.5t21.5 53.5q1 2 12 30.5t19 47.5q6 10 19 47t22 47q32 32 39 35q27 10 57 10 q3 0 55.5 -1t75.5 -1q19 0 59 1t56 1q26 0 47 -12t27 -35q0 -20 -11 -41t-36 -52.5t-33 -43.5q-48 -69 -70 -91q-46 -58 -55 -65q-19 -14 -63 -14q-7 0 -33 1t-35 1t-57 -1t-58 -1q-29 0 -41 2q-18 0 -32 32z" />
<glyph unicode="&#xce;" horiz-adv-x="802" d="M16 1475q0 37 47 104q5 5 29 46.5t33 53.5q7 10 17 26.5t18 28t16 19.5q18 22 30.5 28.5t35.5 6.5q5 0 68 -1t91 -1q23 0 93 1t81 1q23 0 35 -9.5t37 -45.5q17 -26 65 -107.5t56 -93.5q20 -39 20 -57q0 -41 -67 -41q-6 0 -24.5 1t-24.5 1h-76q-72 0 -88 14 q-19 15 -42.5 38.5t-40 36.5t-34.5 17q-19 -13 -44.5 -37t-43.5 -43t-22 -20q-18 -6 -119 -6q-119 0 -127 8q-19 19 -19 31zM182 37q2 12 2 74q0 18 4 30q-1 4 -2 18t-2 19l2 516q0 37 1 107t1 106q0 14 -2 42.5t-2 43.5v115q1 16 2 32.5t1.5 25.5t0.5 16q0 10 -1 30.5 t-1 30.5q0 25 2 37q15 33 134 33q46 0 71 -2h127q54 0 74 -17q14 -16 14 -149q0 -220 -4 -271v-323q2 -12 2 -125q0 -46 -1 -116.5t-1 -76.5v-71q0 -20 1 -61.5t1 -57.5q0 -13 -8 -37q-31 -8 -135 -8q-17 0 -44 1t-34 1h-16q-17 0 -49.5 -2t-47.5 -2q-39 3 -56.5 12 t-33.5 29z" />
<glyph unicode="&#xcf;" horiz-adv-x="802" d="M-29 1591q0 62 34 116t73 67q38 10 69 10q41 0 83 -12.5t63 -34.5q26 -28 49 -119q4 -24 4 -33q0 -21 -10 -41q-9 -23 -33.5 -52t-46.5 -42q-30 -18 -96 -18q-78 0 -127 28q-25 14 -43.5 55.5t-18.5 75.5zM182 37q2 12 2 74q0 18 4 30q-1 4 -2 18t-2 19l2 516q0 37 1 107 t1 106q0 14 -2 42.5t-2 43.5v115q1 16 2 32.5t1.5 25.5t0.5 16q0 10 -1 30.5t-1 30.5q0 25 2 37q15 33 134 33q46 0 71 -2h127q54 0 74 -17q14 -16 14 -149q0 -220 -4 -271v-323q2 -12 2 -125q0 -46 -1 -116.5t-1 -76.5v-71q0 -20 1 -61.5t1 -57.5q0 -13 -8 -37 q-31 -8 -135 -8q-17 0 -44 1t-34 1h-16q-17 0 -49.5 -2t-47.5 -2q-39 3 -56.5 12t-33.5 29zM455 1599q0 73 24 107q24 37 47 51t60 23q30 6 59 6q64 0 113.5 -35t60.5 -98q4 -18 4 -49q0 -54 -32 -99q-29 -40 -44.5 -50t-66.5 -17q-32 -4 -53 -4q-64 0 -102 28.5t-62 89.5 q-8 16 -8 47z" />
<glyph unicode="&#xd0;" horiz-adv-x="1714" d="M78 547q0 5 1 28t1 31q-2 25 -2 111q0 54 16 67q10 4 33 4q13 0 41 -1t41 -1q27 0 39 2q6 18 6 70q0 4 1 47t1 66q0 29 2 78.5t2 76.5v86q0 36 6 56q34 43 70 43h59q19 0 68.5 2t60.5 2q1 0 88 -6q6 0 16 1t19 1q33 -2 70 -2q15 0 62.5 2t94.5 2q93 0 138 -4 q21 -2 52 -8.5t44 -6.5q55 0 133 -39q122 -59 170 -112q15 -21 42 -54t39 -50t26.5 -49.5t23.5 -74.5q4 -21 11.5 -54.5t9.5 -48t4.5 -51t3.5 -91.5q0 -117 -10 -148q-7 -20 -9.5 -39.5t-5.5 -31.5q-4 -18 -10.5 -37.5t-18.5 -47.5t-16 -38q-12 -35 -34 -67.5t-38 -49 t-53.5 -51t-50.5 -47.5q-61 -58 -171 -85.5t-273 -35.5l-430 -2q-15 1 -76.5 1.5t-89.5 6.5q-35 9 -35 76q0 12 1 39.5t1 42.5q0 20 -2 80t-2 83q0 5 2 29t2 37q0 21 2 52t2 46q0 27 -4 37q-5 0 -15.5 1t-15.5 1q-17 0 -37 -2t-34 -2q-33 0 -60 8q-1 1 -3.5 4t-5 7.5 t-3.5 9.5zM659 348q13 -10 66 -10h166q61 0 139 33q79 36 111 153q14 70 14 121q0 97 -18 156q-14 44 -35 72t-66 57q-9 5 -22 9.5t-29.5 9t-23.5 7.5q-29 11 -140 11q-135 0 -153 -11q-4 -38 -6 -112q0 -12 2 -32t2 -30q8 0 47.5 2t58.5 2q22 0 52 -1t59 -1q17 0 25 -8 t16 -31q0 -13 1 -47.5t1 -50.5q0 -4 -1 -27.5t-1 -33.5q0 -17 -4 -35t-9 -21q-20 -12 -59 -12q-20 2 -61 2q-8 0 -28 -1t-28 -1q-10 0 -22 1t-21 1q-20 0 -26 -2q0 -9 -2 -27.5t-2 -27.5q0 -43 -1.5 -76.5t-1.5 -38.5z" />
<glyph unicode="&#xd1;" horiz-adv-x="1718" d="M186 53q0 17 3.5 56t3.5 43q0 7 -1.5 31.5t-1.5 41.5v240q0 125 7 207q0 17 -2 36t-2 33q0 29 -1.5 89t-1.5 94t2.5 134.5t2.5 135.5q0 60 9.5 82t35.5 33q7 0 22 1t23 1q14 0 56 -1t73 -1h69q13 0 34.5 1t66.5 1q34 0 59.5 -20.5t56.5 -71.5q4 -6 30.5 -34t31.5 -38 l14 -35q3 -6 13 -20t23 -31.5t15 -20.5q11 -16 19 -25t11.5 -14.5t10.5 -25.5q7 -2 12.5 -5t11 -9.5t8.5 -10.5t10 -14t10 -14q4 -7 36.5 -50t49.5 -71q18 -33 81 -128t68 -104q0 35 -5 101.5t-5 70.5q0 12 1 66t1 92q0 26 -1 83t-1 85q0 139 6 176q3 24 8.5 35.5t13 17 t9.5 9.5q5 0 32 2t43 2q17 0 39 -1l23 -1q21 0 63.5 2t71.5 2q41 0 51 -4q25 -25 25 -119q0 -16 -1 -42t-1 -34q0 -76 -1 -242.5t-1 -253.5q0 -134 4 -380q0 -12 -4 -55t-4 -64q0 -52 -11 -74q-20 -41 -61 -41q-14 0 -45.5 -1t-42.5 -1q-82 0 -117 -2q-95 1 -121.5 7 t-48.5 28q-17 17 -55 71.5t-53 69.5q-3 3 -12 11t-14.5 14t-15 19t-18.5 30q-40 70 -91 135.5t-79 105.5q-18 29 -39 50q-1 1 -20.5 33t-42 69.5t-45.5 73.5t-31 45q0 -5 -1 -17t-1 -18q0 -35 6 -119t6 -112q0 -14 -2 -68t-2 -78q0 -62 4 -180v-62q0 -69 -15.5 -88.5 t-72.5 -19.5q-13 0 -51 2t-68 2q-14 0 -62.5 -2t-66.5 -2q-29 0 -38 13.5t-9 41.5zM457 1511q0 21 2 56.5t2 58.5q0 53 59 96q64 44 115 56q27 6 55 6q100 0 144 -17q10 -3 44 -13t52 -19q6 -5 29 -11t36 -6q58 0 97 27q9 6 33 13t38 7q32 0 39 -45q0 -4 1 -19t1 -22 q0 -30 -4 -104q-1 -23 -19 -45.5t-38 -32.5q-65 -36 -84 -43l-28 -7q-28 -7 -46.5 -10t-36.5 -3q-115 0 -203 45q-41 20 -88 20q-17 0 -55 -12q-15 -4 -31.5 -13t-31.5 -14.5t-37 -5.5q-45 0 -45 57z" />
<glyph unicode="&#xd2;" horiz-adv-x="1789" d="M139 625q0 123 43 262q44 155 161.5 273.5t238.5 144.5q46 10 64.5 15t36 10t46.5 13q78 19 172 19q55 0 120 -13.5t73 -13.5q41 -1 119 -35t130 -65q237 -147 295 -442q13 -69 13 -123q0 -69 -29 -205q-18 -83 -78 -180t-125 -154l-102 -80q-42 -25 -99 -50t-94 -32 q-110 -20 -225 -20q-111 0 -199 18q-113 23 -253.5 109.5t-188.5 175.5q-7 14 -23.5 43.5t-23 41.5t-18.5 37t-18 42.5t-13 43t-12 52.5q-11 71 -11 113zM545 1735q1 32 27 42.5t77 10.5q26 0 82 -1t78 -1q7 0 18.5 1t14.5 1q6 0 15 -1t13 -1q61 0 78 -31l12 -17 q13 -16 19 -30l17 -50q18 -51 34 -83q35 -69 35 -102q0 -25 -18.5 -33t-57.5 -8q-11 0 -58 2t-65 2q-13 0 -39 -1t-41 -1q-11 0 -19 2.5t-21.5 15t-30.5 35.5l-66 82q-14 18 -41 55t-37 47q-1 2 -8 16.5t-12.5 28t-5.5 19.5zM557 635q0 -88 43 -169t119 -124 q26 -14 66 -28.5t63 -14.5q145 0 214 34t130 140q41 75 41 197q0 63 -12 100q-22 74 -60 121q-58 72 -147 104q-7 1 -23 5.5t-29 7t-20 2.5q-27 0 -44 1t-21 1q-45 0 -110 -22t-93 -50q-117 -117 -117 -305z" />
<glyph unicode="&#xd3;" horiz-adv-x="1789" d="M139 625q0 123 43 262q44 155 161.5 273.5t238.5 144.5q46 10 64.5 15t36 10t46.5 13q78 19 172 19q55 0 120 -13.5t73 -13.5q41 -1 119 -35t130 -65q237 -147 295 -442q13 -69 13 -123q0 -69 -29 -205q-18 -83 -78 -180t-125 -154l-102 -80q-42 -25 -99 -50t-94 -32 q-110 -20 -225 -20q-111 0 -199 18q-113 23 -253.5 109.5t-188.5 175.5q-7 14 -23.5 43.5t-23 41.5t-18.5 37t-18 42.5t-13 43t-12 52.5q-11 71 -11 113zM557 635q0 -88 43 -169t119 -124q26 -14 66 -28.5t63 -14.5q145 0 214 34t130 140q41 75 41 197q0 63 -12 100 q-22 74 -60 121q-58 72 -147 104q-7 1 -23 5.5t-29 7t-20 2.5q-27 0 -44 1t-21 1q-45 0 -110 -22t-93 -50q-117 -117 -117 -305zM721 1468q1 11 15 49t22 54q3 7 12.5 33.5t17.5 44.5q6 10 19 47t22 47q32 32 39 35q27 10 58 10q3 0 55.5 -1t75.5 -1q19 0 58.5 1t55.5 1 q26 0 47 -12t27 -35q0 -20 -11 -41t-36 -52.5t-33 -43.5q-50 -72 -69 -91q-44 -55 -56 -65q-19 -14 -63 -14q-7 0 -33 1t-35 1t-56.5 -1t-57.5 -1q-29 0 -41 2q-19 0 -33 32z" />
<glyph unicode="&#xd4;" horiz-adv-x="1789" d="M139 625q0 123 43 262q44 155 161.5 273.5t238.5 144.5q46 10 64.5 15t36 10t46.5 13q78 19 172 19q55 0 120 -13.5t73 -13.5q41 -1 119 -35t130 -65q237 -147 295 -442q13 -69 13 -123q0 -69 -29 -205q-18 -83 -78 -180t-125 -154l-102 -80q-42 -25 -99 -50t-94 -32 q-110 -20 -225 -20q-111 0 -199 18q-113 23 -253.5 109.5t-188.5 175.5q-7 14 -23.5 43.5t-23 41.5t-18.5 37t-18 42.5t-13 43t-12 52.5q-11 71 -11 113zM510 1475q0 37 47 104q5 5 28.5 46.5t32.5 53.5q7 9 17.5 26.5t18.5 28.5t16 19q18 23 30 29t35 6q5 0 68.5 -1 t91.5 -1q23 0 93 1t81 1q23 0 35 -9.5t37 -45.5q17 -26 65 -107.5t56 -93.5q20 -39 20 -57q0 -41 -68 -41q-6 0 -24.5 1t-24.5 1h-75q-73 0 -89 14q-20 15 -42.5 38.5t-39 36.5t-34.5 17q-19 -13 -45 -37t-44 -43t-22 -20q-18 -6 -119 -6q-119 0 -127 8q-18 18 -18 31z M557 635q0 -88 43 -169t119 -124q26 -14 66 -28.5t63 -14.5q145 0 214 34t130 140q41 75 41 197q0 63 -12 100q-22 74 -60 121q-58 72 -147 104q-7 1 -23 5.5t-29 7t-20 2.5q-27 0 -44 1t-21 1q-45 0 -110 -22t-93 -50q-117 -117 -117 -305z" />
<glyph unicode="&#xd5;" horiz-adv-x="1789" d="M139 625q0 123 43 262q44 155 161.5 273.5t238.5 144.5q46 10 64.5 15t36 10t46.5 13q78 19 172 19q55 0 120 -13.5t73 -13.5q41 -1 119 -35t130 -65q237 -147 295 -442q13 -69 13 -123q0 -69 -29 -205q-18 -83 -78 -180t-125 -154l-102 -80q-42 -25 -99 -50t-94 -32 q-110 -20 -225 -20q-111 0 -199 18q-113 23 -253.5 109.5t-188.5 175.5q-7 14 -23.5 43.5t-23 41.5t-18.5 37t-18 42.5t-13 43t-12 52.5q-11 71 -11 113zM524 1511q0 21 2 56.5t2 58.5q0 52 60 96q64 44 115 56q27 6 55 6q99 0 143 -17q10 -3 44 -13t52 -19q6 -5 29.5 -11 t36.5 -6q57 0 96 27q9 6 33 13t39 7q32 0 39 -45q0 -4 1 -19t1 -22q0 -30 -4 -104q-1 -23 -19 -45.5t-39 -32.5q-65 -36 -84 -43q-1 0 -28 -7t-45.5 -10t-36.5 -3q-115 0 -203 45q-41 20 -88 20q-17 0 -55 -12q-10 -3 -41 -18t-60 -15q-45 0 -45 57zM557 635q0 -88 43 -169 t119 -124q26 -14 66 -28.5t63 -14.5q145 0 214 34t130 140q41 75 41 197q0 63 -12 100q-22 74 -60 121q-58 72 -147 104q-7 1 -23 5.5t-29 7t-20 2.5q-27 0 -44 1t-21 1q-45 0 -110 -22t-93 -50q-117 -117 -117 -305z" />
<glyph unicode="&#xd6;" horiz-adv-x="1789" d="M139 625q0 123 43 262q44 155 161.5 273.5t238.5 144.5q46 10 64.5 15t36 10t46.5 13q78 19 172 19q55 0 120 -13.5t73 -13.5q41 -1 119 -35t130 -65q237 -147 295 -442q13 -69 13 -123q0 -69 -29 -205q-18 -83 -78 -180t-125 -154l-102 -80q-42 -25 -99 -50t-94 -32 q-110 -20 -225 -20q-111 0 -199 18q-113 23 -253.5 109.5t-188.5 175.5q-7 14 -23.5 43.5t-23 41.5t-18.5 37t-18 42.5t-13 43t-12 52.5q-11 71 -11 113zM459 1591q0 62 33.5 116t72.5 67q38 10 70 10q41 0 82.5 -12.5t62.5 -34.5q26 -28 49 -119q5 -30 5 -33q0 -19 -11 -41 q-9 -23 -33.5 -52t-46.5 -42q-30 -18 -96 -18q-78 0 -127 28q-25 14 -43 55.5t-18 75.5zM557 635q0 -88 43 -169t119 -124q26 -14 66 -28.5t63 -14.5q145 0 214 34t130 140q41 75 41 197q0 63 -12 100q-22 74 -60 121q-58 72 -147 104q-7 1 -23 5.5t-29 7t-20 2.5 q-27 0 -44 1t-21 1q-45 0 -110 -22t-93 -50q-117 -117 -117 -305zM942 1599q0 71 25 107q24 37 47 51.5t59 22.5q30 6 60 6q64 0 113.5 -35t60.5 -98q4 -18 4 -49q0 -53 -33 -99q-29 -40 -44.5 -50t-66.5 -17q-32 -4 -53 -4q-64 0 -102 28.5t-62 89.5q-8 16 -8 47z" />
<glyph unicode="&#xd7;" horiz-adv-x="1140" d="M113 1030q0 33 28 41q29 10 154 10q92 0 115 -12q14 -9 23 -20t28 -41q65 -113 102 -150q15 15 60 90q11 16 34.5 52t32.5 47q23 34 109 34q19 0 64 -2t79 -2q36 0 55.5 -12t20.5 -47q-9 -20 -25 -43t-28 -45q-7 -12 -46.5 -62.5t-46.5 -64.5q-11 -17 -43 -59.5 t-36 -55.5q21 -56 71 -110q9 -11 61 -87.5t60 -84.5q43 -38 43 -91q0 -20 -2 -28q-4 -3 -11.5 -12.5t-15 -13t-22.5 -3.5q-14 0 -38 -4t-42 -4q-3 0 -27 1t-53 1q-78 0 -96 18q-9 9 -26.5 34.5t-34 50t-17.5 26.5t-27 40t-38 54l-50 -76q-69 -124 -114 -139q-36 -10 -66 -10 q-11 0 -39.5 2t-48.5 2q-7 0 -24 -1t-25 -1q-38 0 -59 14q-7 0 -17 18.5t-10 30.5q10 13 21 35t16 29q18 26 43.5 56t34.5 48q9 17 59.5 83.5t52.5 80.5q-39 45 -61 88q-9 17 -47.5 68t-46.5 65q-1 2 -26.5 38t-41.5 67.5t-16 56.5z" />
<glyph unicode="&#xd8;" horiz-adv-x="1789" d="M139 625q0 123 43 262q44 155 161.5 273.5t238.5 144.5q46 10 64.5 15t36 10t46.5 13q78 19 172 19q55 0 120 -13.5t73 -13.5q29 -4 59 -14l66 90q15 23 27 32t34 9h178q56 0 70 -14q8 -12 8 -31q0 -21 -15 -46t-40 -58t-37 -54q-18 -29 -39 -59q182 -143 233 -397 q13 -69 13 -123q0 -69 -29 -205q-18 -83 -78 -180t-125 -154l-102 -80q-42 -25 -99 -50t-94 -32q-110 -20 -225 -20q-111 0 -199 18l-55 15l-49 -76q-9 -17 -29 -31t-35 -16q-32 0 -112 2t-103 2q-9 3 -16 10t-14 17t-11 14q1 18 11.5 41t23 42t39.5 57.5t45 66.5 q-97 68 -137 141q-7 14 -23.5 43.5t-23 41.5t-18.5 37t-18 42.5t-13 43t-12 52.5q-11 71 -11 113zM553 635q0 -107 65 -201q131 213 179 279q19 41 48.5 88t76.5 115.5t59 87.5q-5 1 -14 4.5t-15 5.5t-10 2q-27 0 -44 1t-21 1q-44 0 -111.5 -24t-95.5 -52 q-60 -60 -88.5 -132t-28.5 -175zM823 301q2 -1 11 -4.5t14 -3.5q144 0 215.5 36t132.5 142q41 75 41 199q0 63 -12 100q-12 38 -47 98q-93 -160 -123 -200q-15 -20 -80.5 -130.5t-97.5 -148.5q-25 -28 -54 -88z" />
<glyph unicode="&#xd9;" horiz-adv-x="1681" d="M174 647q0 64 8 160l-6 203q8 92 8 155q0 15 -1 47t-1 43q0 10 5 20t13 19t9 11q12 6 55 6l129 4q50 -4 101 -4q13 0 40.5 1t30.5 1q11 0 17.5 -6.5t12 -31.5t5.5 -69v-59q0 -82 -4 -242l-2 -80q0 -27 1 -85t1 -89q0 -177 33 -254q20 -43 82 -72.5t123 -29.5 q124 0 188 67q21 23 33 52t20.5 73.5t9.5 47.5q0 30 1 79.5t1 71.5q0 49 -2 74q0 80 1.5 130.5t2.5 70.5t1 26q0 32 -3.5 97t-3.5 102q0 8 -1 27t-1 28q0 29 10.5 46t41.5 18h43q27 0 45 4l196 2q48 0 64 -19q2 -2 18 -30q0 -20 -1 -60t-1 -51q0 -2 2 -44t2 -99q0 -8 -2 -25 t-2 -25q0 -7 1 -23t1 -24q0 -9 -2 -27t-2 -24q0 -40 4 -120t4 -124q0 -54 -4 -90q-3 -18 -12 -102q-2 -12 -4 -32.5t-5 -36.5t-8 -31q-17 -54 -28 -95q-8 -27 -28.5 -56t-50 -61t-36.5 -40q-1 -1 -19.5 -12.5t-23.5 -18.5q-7 -5 -59 -27.5t-68 -27.5q-132 -37 -291 -37 q-170 0 -301 28q-21 5 -114 37q-16 6 -32.5 16t-36.5 23.5t-28 18.5q-23 15 -42.5 44.5t-32.5 41.5q-35 30 -64 114t-31 140q-2 49 -6 123t-4 112zM487 1735q1 32 27.5 42.5t77.5 10.5q26 0 82 -1t78 -1q6 0 17 1t15 1q6 0 16 -1t13 -1q61 0 78 -31l13 -17q12 -16 18 -30 l18 -50q17 -51 33 -83q35 -69 35 -102q0 -25 -18.5 -33t-57.5 -8q-12 0 -59 2t-64 2q-13 0 -39 -1t-41 -1q-34 0 -72 53l-65 82q-14 18 -41 55t-37 47q-1 3 -8.5 17t-13 27.5t-5.5 19.5z" />
<glyph unicode="&#xda;" horiz-adv-x="1681" d="M174 647q0 64 8 160l-6 203q8 92 8 155q0 15 -1 47t-1 43q0 10 5 20t13 19t9 11q12 6 55 6l129 4q50 -4 101 -4q13 0 40.5 1t30.5 1q11 0 17.5 -6.5t12 -31.5t5.5 -69v-59q0 -82 -4 -242l-2 -80q0 -27 1 -85t1 -89q0 -177 33 -254q20 -43 82 -72.5t123 -29.5 q124 0 188 67q21 23 33 52t20.5 73.5t9.5 47.5q0 30 1 79.5t1 71.5q0 49 -2 74q0 80 1.5 130.5t2.5 70.5t1 26q0 32 -3.5 97t-3.5 102q0 8 -1 27t-1 28q0 29 10.5 46t41.5 18h43q27 0 45 4l196 2q48 0 64 -19q2 -2 18 -30q0 -20 -1 -60t-1 -51q0 -2 2 -44t2 -99q0 -8 -2 -25 t-2 -25q0 -7 1 -23t1 -24q0 -9 -2 -27t-2 -24q0 -40 4 -120t4 -124q0 -54 -4 -90q-3 -18 -12 -102q-2 -12 -4 -32.5t-5 -36.5t-8 -31q-17 -54 -28 -95q-8 -27 -28.5 -56t-50 -61t-36.5 -40q-1 -1 -19.5 -12.5t-23.5 -18.5q-7 -5 -59 -27.5t-68 -27.5q-132 -37 -291 -37 q-170 0 -301 28q-21 5 -114 37q-16 6 -32.5 16t-36.5 23.5t-28 18.5q-23 15 -42.5 44.5t-32.5 41.5q-35 30 -64 114t-31 140q-2 49 -6 123t-4 112zM668 1468q1 11 15 49t22 54q3 7 12.5 33.5t17.5 44.5q6 10 19 47t22 47q32 32 39 35q27 10 57 10q3 0 56 -1t76 -1 q19 0 58.5 1t55.5 1q26 0 47 -12t27 -35q0 -20 -11 -41t-36 -52.5t-33 -43.5q-48 -69 -70 -91q-46 -58 -55 -65q-19 -14 -63 -14q-6 0 -32 1t-36 1q-9 0 -57 -1t-58 -1q-29 0 -41 2q-18 0 -32 32z" />
<glyph unicode="&#xdb;" horiz-adv-x="1681" d="M174 647q0 64 8 160l-6 203q8 92 8 155q0 15 -1 47t-1 43q0 10 5 20t13 19t9 11q12 6 55 6l129 4q50 -4 101 -4q13 0 40.5 1t30.5 1q11 0 17.5 -6.5t12 -31.5t5.5 -69v-59q0 -82 -4 -242l-2 -80q0 -27 1 -85t1 -89q0 -177 33 -254q20 -43 82 -72.5t123 -29.5 q124 0 188 67q21 23 33 52t20.5 73.5t9.5 47.5q0 30 1 79.5t1 71.5q0 49 -2 74q0 80 1.5 130.5t2.5 70.5t1 26q0 32 -3.5 97t-3.5 102q0 8 -1 27t-1 28q0 29 10.5 46t41.5 18h43q27 0 45 4l196 2q48 0 64 -19q2 -2 18 -30q0 -20 -1 -60t-1 -51q0 -2 2 -44t2 -99q0 -8 -2 -25 t-2 -25q0 -7 1 -23t1 -24q0 -9 -2 -27t-2 -24q0 -40 4 -120t4 -124q0 -54 -4 -90q-3 -18 -12 -102q-2 -12 -4 -32.5t-5 -36.5t-8 -31q-17 -54 -28 -95q-8 -27 -28.5 -56t-50 -61t-36.5 -40q-1 -1 -19.5 -12.5t-23.5 -18.5q-7 -5 -59 -27.5t-68 -27.5q-132 -37 -291 -37 q-170 0 -301 28q-21 5 -114 37q-16 6 -32.5 16t-36.5 23.5t-28 18.5q-23 15 -42.5 44.5t-32.5 41.5q-35 30 -64 114t-31 140q-2 49 -6 123t-4 112zM461 1475q0 37 47 104q5 5 28.5 46.5t32.5 53.5q7 9 17.5 26.5t18.5 28.5t16 19q18 23 30 29t35 6q5 0 68.5 -1t91.5 -1 q22 0 93 1t81 1q23 0 35 -9.5t37 -45.5q17 -26 64.5 -107.5t55.5 -93.5q21 -40 21 -57q0 -41 -68 -41q-6 0 -24.5 1t-24.5 1h-76q-72 0 -88 14q-20 15 -42.5 38.5t-39 36.5t-34.5 17q-19 -13 -45 -37t-44 -43t-22 -20q-18 -6 -119 -6q-119 0 -127 8q-18 18 -18 31z" />
<glyph unicode="&#xdc;" horiz-adv-x="1681" d="M174 647q0 64 8 160l-6 203q8 92 8 155q0 15 -1 47t-1 43q0 10 5 20t13 19t9 11q12 6 55 6l129 4q50 -4 101 -4q13 0 40.5 1t30.5 1q11 0 17.5 -6.5t12 -31.5t5.5 -69v-59q0 -82 -4 -242l-2 -80q0 -27 1 -85t1 -89q0 -177 33 -254q20 -43 82 -72.5t123 -29.5 q124 0 188 67q21 23 33 52t20.5 73.5t9.5 47.5q0 30 1 79.5t1 71.5q0 49 -2 74q0 80 1.5 130.5t2.5 70.5t1 26q0 32 -3.5 97t-3.5 102q0 8 -1 27t-1 28q0 29 10.5 46t41.5 18h43q27 0 45 4l196 2q48 0 64 -19q2 -2 18 -30q0 -20 -1 -60t-1 -51q0 -2 2 -44t2 -99q0 -8 -2 -25 t-2 -25q0 -7 1 -23t1 -24q0 -9 -2 -27t-2 -24q0 -40 4 -120t4 -124q0 -54 -4 -90q-3 -18 -12 -102q-2 -12 -4 -32.5t-5 -36.5t-8 -31q-17 -54 -28 -95q-8 -27 -28.5 -56t-50 -61t-36.5 -40q-1 -1 -19.5 -12.5t-23.5 -18.5q-7 -5 -59 -27.5t-68 -27.5q-132 -37 -291 -37 q-170 0 -301 28q-21 5 -114 37q-16 6 -32.5 16t-36.5 23.5t-28 18.5q-23 15 -42.5 44.5t-32.5 41.5q-35 30 -64 114t-31 140q-2 49 -6 123t-4 112zM408 1591q0 62 33.5 116t72.5 67q38 10 70 10q41 0 82.5 -12.5t62.5 -34.5q26 -28 49 -119q4 -24 4 -33q0 -21 -10 -41 q-9 -23 -33.5 -52t-46.5 -42q-30 -18 -96 -18q-78 0 -127 28q-25 14 -43 55.5t-18 75.5zM891 1599q0 73 24 107q24 37 47 51t60 23q30 6 59 6q64 0 113.5 -35t60.5 -98q5 -22 5 -49q0 -53 -33 -99q-29 -40 -44.5 -50t-66.5 -17q-32 -4 -53 -4q-64 0 -102 28.5t-62 89.5 q-8 16 -8 47z" />
<glyph unicode="&#xdd;" horiz-adv-x="1507" d="M100 1251q0 20 19 45q20 13 45 13q10 0 38.5 1t47.5 1q18 0 81 -2t97 -2q96 0 119 -27q4 -4 18 -39.5t36.5 -85.5t43.5 -82q8 -13 36 -77.5t32 -71.5q3 -6 13.5 -34.5t21.5 -53t18 -29.5q14 23 47 104q6 11 15 28t15 30.5t13 34.5q14 19 31 67q8 16 20.5 34.5t14.5 24.5 q6 8 10 25.5t8 28.5q3 14 19.5 40t19.5 36q6 14 19 27t24 18q23 8 108 8q10 0 66 -2t66 -2q15 0 44.5 1t47.5 1q28 0 39 -19q14 -17 14 -49q0 -9 -4.5 -18.5t-11.5 -22t-11 -20.5q-10 -19 -31.5 -65.5t-40.5 -81t-38 -58.5q-17 -21 -44 -68t-38 -73q-9 -17 -58.5 -106.5 t-78.5 -143.5q-16 -30 -37 -63.5t-32 -52t-13 -26.5q-11 -49 -11 -108q0 -20 -1 -52.5t-1 -50.5q0 -15 1 -37.5t1 -33.5q0 -6 -1 -19t-1 -20q0 -10 2.5 -32t2.5 -32q0 -23 -9 -41q-16 -18 -110 -18h-35q-28 0 -86 -1t-76 -1q-36 0 -57 6q-25 7 -32 22.5t-7 55.5v57 q0 17 -1 48t-1 46q0 22 1 58.5t1 56.5v58q0 21 -17 49q-9 13 -61 104q-70 123 -104 191q-19 30 -55.5 98t-55.5 98q-90 146 -109 184q-4 11 -15 28.5t-13 31.5q-19 32 -19 61zM588 1468q1 11 15 49t22 54q3 7 12.5 33.5t17.5 44.5q6 10 19 47t22 47q32 32 39 35q27 10 58 10 q3 0 55.5 -1t75.5 -1q19 0 58.5 1t55.5 1q26 0 47 -12t27 -35q0 -20 -11 -41t-36 -52.5t-33 -43.5q-50 -72 -69 -91q-44 -55 -56 -65q-19 -14 -63 -14q-6 0 -32 1t-36 1q-9 0 -56.5 -1t-57.5 -1q-29 0 -41 2q-19 0 -33 32z" />
<glyph unicode="&#xde;" horiz-adv-x="1552" d="M193 143q0 13 1 49t1 58q0 37 8 115l-8 120l6 287l-2 55q0 33 1 99.5t1 111.5q0 23 -1 76t-1 84q0 16 3 46.5t3 35.5q2 2 11 10.5t13.5 12t14 7t20.5 3.5q18 0 68 -1t88 -1q17 0 40 1t36 1q63 0 79 -4q10 -4 16 -9.5t13 -19t8 -14.5q4 -14 4 -35q0 -12 -1 -31t-1 -33 q0 -16 2 -26q39 -4 127 -4h203q97 0 168 -13t127 -53q86 -62 150 -164q21 -33 35 -117t14 -151q0 -142 -60 -248q-16 -27 -54.5 -68.5t-45.5 -50.5q-23 -29 -85.5 -54.5t-139.5 -37.5q-44 -8 -51 -8q-6 0 -19.5 -1t-23.5 -1q-15 0 -57.5 1t-65.5 1q-1 0 -52.5 1t-74.5 1h-19 q-4 0 -36 -2t-44 -4q0 -7 1 -26.5t1 -26.5q0 -40 -10 -92q-28 -25 -53 -25q-15 0 -60 2t-67 2q-13 0 -30 -2t-32 -2q-20 0 -34 2h-62q-19 0 -30.5 4.5t-22.5 18.5t-15.5 43.5t-4.5 76.5zM614 643q0 -97 7 -125q43 -6 98 -6q16 0 64 1t57 1q81 0 129 25q17 10 33 46t16 60 q0 29 -9 65.5t-24 47.5q-30 23 -59.5 32t-77.5 9h-199q-17 0 -33 -4q-2 -12 -2 -43v-109z" />
<glyph unicode="&#xdf;" horiz-adv-x="1757" d="M199 168q0 35 1 99t1 91q0 55 -2 80q0 72 4 144t4 84q-4 14 -4 217q0 29 3 75t3 58q0 10 -1 92.5t-1 91.5q0 38 6 92q38 21 74 21q19 0 59.5 -1t61.5 -1h155h12h33q31 0 96.5 -2t92.5 -2q38 0 129 2t118 2q30 0 71 -3t65 -3q5 0 47.5 4t70.5 4q42 0 56 -2q10 -1 26 -2 t23 -2t17.5 -9t19.5 -24q0 -7 1 -22t1 -23q0 -15 -1 -48.5t-1 -50.5q0 -11 2 -48.5t2 -51.5t-14 -39q-17 -31 -63 -66.5t-87 -65t-49 -46.5q5 -8 41.5 -22.5t86 -34t75.5 -37.5q8 -6 32 -22t33 -23t25 -20.5t28 -28.5q30 -35 56 -110.5t26 -125.5q0 -26 -10 -76t-12 -75 q-7 -44 -62 -113t-123 -100q-50 -26 -79 -39q-30 -13 -112.5 -27t-139.5 -14q-25 0 -89.5 5t-70.5 5q-25 0 -90.5 15.5t-75.5 25.5q-16 11 -22.5 21.5t-6.5 31.5q0 12 7 47q3 9 7.5 24t8 27t6.5 23q2 7 11 28.5t10 30.5q4 27 20 50.5t41 23.5q13 0 41 -8t45 -10 q3 0 44.5 -8.5t74.5 -8.5q66 0 101.5 14t43.5 31q19 30 19 62q0 50 -138 108q-63 27 -69 31q-4 2 -66 23q-68 23 -86 41q-17 8 -21.5 25t-4.5 54q0 40 0.5 75.5t1 56.5t0.5 26q4 12 18.5 29.5t28 31t31 29.5t20.5 19q51 40 51 57q0 6 -31 6q-18 0 -65 -2t-66 -2h-202 l-7 -109v-126q5 -30 5 -125q0 -46 -1.5 -116.5t-1.5 -76.5q0 -22 1.5 -67t1.5 -68t-1.5 -67t-1.5 -66q-1 -18 -1 -50.5t-1 -48.5t-4 -24q-6 -4 -17 -13.5t-20 -15t-18 -6.5q-49 -6 -158 -6q-19 0 -70.5 2t-68.5 2q-29 0 -45 16q-16 14 -16 150z" />
<glyph unicode="&#xe0;" d="M82 53q6 17 15.5 44.5t16.5 47.5t11 29q27 50 96 248q4 12 18.5 40.5t18.5 45.5q6 21 19.5 52t13.5 32q22 47 35.5 97.5t27.5 78.5q11 23 21 48t21.5 56t17.5 48q4 12 15 35t15 34q1 4 11 36.5t18 49.5q3 7 35 94q5 30 16 50.5t22.5 34t14.5 20.5q19 37 103 37 q26 0 90 -1t106 -1q16 0 53 1t68 1q49 0 86 -11q25 -7 40 -27.5t36 -72.5q56 -130 86 -213q7 -19 23 -58t28 -71t20 -61q8 -30 68.5 -170.5t63.5 -149.5q8 -35 14 -49q25 -52 62 -157t48 -128q23 -49 37 -94q0 -14 -15 -32.5t-28 -18.5q-24 0 -79 2t-78 2q-5 0 -27 -1 t-43 -1h-100q-19 0 -43 6q-24 24 -33 64q-3 15 -16 48t-17 44t-8 28t-7 26.5t-7 12.5q-16 0 -48 -2t-47 -2q-7 0 -38.5 2t-55.5 2q-48 0 -177.5 -1t-160.5 -1q-14 -49 -38.5 -108.5t-26.5 -67.5q-8 -30 -23 -42.5t-47 -12.5q-34 0 -101 2t-110 2q-12 0 -28.5 -2t-30.5 -2 q-6 0 -56 4q-22 2 -22 53zM469 1735q1 32 27 42.5t77 10.5q26 0 82 -1t78 -1q7 0 18.5 1t14.5 1q6 0 16 -1t13 -1q60 0 77 -31l12 -17q13 -16 19 -30l17 -50q18 -51 34 -83q35 -69 35 -102q0 -25 -18.5 -33t-57.5 -8q-11 0 -58 2t-64 2q-13 0 -39 -1t-41 -1q-34 0 -72 53 l-66 82q-15 19 -41 55.5t-36 46.5q-1 3 -8.5 17t-13 27.5t-5.5 19.5zM668 557q30 -6 110 -6q155 0 205 4q-11 48 -57 172.5t-58 165.5q-1 3 -5 17.5t-6.5 22.5t-6.5 19t-8 17t-8 8l-17 -10q-14 -20 -40 -107.5t-36 -107.5z" />
<glyph unicode="&#xe1;" d="M82 53q6 17 15.5 44.5t16.5 47.5t11 29q27 50 96 248q4 12 18.5 40.5t18.5 45.5q6 21 19.5 52t13.5 32q22 47 35.5 97.5t27.5 78.5q11 23 21 48t21.5 56t17.5 48q4 12 15 35t15 34q1 4 11 36.5t18 49.5q3 7 35 94q5 30 16 50.5t22.5 34t14.5 20.5q19 37 103 37 q26 0 90 -1t106 -1q16 0 53 1t68 1q49 0 86 -11q25 -7 40 -27.5t36 -72.5q56 -130 86 -213q7 -19 23 -58t28 -71t20 -61q8 -30 68.5 -170.5t63.5 -149.5q8 -35 14 -49q25 -52 62 -157t48 -128q23 -49 37 -94q0 -14 -15 -32.5t-28 -18.5q-24 0 -79 2t-78 2q-5 0 -27 -1 t-43 -1h-100q-19 0 -43 6q-24 24 -33 64q-3 15 -16 48t-17 44t-8 28t-7 26.5t-7 12.5q-16 0 -48 -2t-47 -2q-7 0 -38.5 2t-55.5 2q-48 0 -177.5 -1t-160.5 -1q-14 -49 -38.5 -108.5t-26.5 -67.5q-8 -30 -23 -42.5t-47 -12.5q-34 0 -101 2t-110 2q-12 0 -28.5 -2t-30.5 -2 q-6 0 -56 4q-22 2 -22 53zM668 557q30 -6 110 -6q155 0 205 4q-11 48 -57 172.5t-58 165.5q-1 3 -5 17.5t-6.5 22.5t-6.5 19t-8 17t-8 8l-17 -10q-14 -20 -40 -107.5t-36 -107.5zM672 1468q1 11 15 49t22 54q3 7 12.5 33.5t17.5 44.5q6 10 19 47t22 47q32 32 39 35 q27 10 58 10q3 0 55.5 -1t75.5 -1q19 0 58.5 1t55.5 1q26 0 47 -12t27 -35q0 -20 -11 -41t-36 -52.5t-33 -43.5q-50 -72 -69 -91q-44 -55 -56 -65q-19 -14 -63 -14q-6 0 -32 1t-36 1q-9 0 -57 -1t-58 -1q-28 0 -40 2q-19 0 -33 32z" />
<glyph unicode="&#xe2;" d="M82 53q6 17 15.5 44.5t16.5 47.5t11 29q27 50 96 248q4 12 18.5 40.5t18.5 45.5q6 21 19.5 52t13.5 32q22 47 35.5 97.5t27.5 78.5q11 23 21 48t21.5 56t17.5 48q4 12 15 35t15 34q1 4 11 36.5t18 49.5q3 7 35 94q5 30 16 50.5t22.5 34t14.5 20.5q19 37 103 37 q26 0 90 -1t106 -1q16 0 53 1t68 1q49 0 86 -11q25 -7 40 -27.5t36 -72.5q56 -130 86 -213q7 -19 23 -58t28 -71t20 -61q8 -30 68.5 -170.5t63.5 -149.5q8 -35 14 -49q25 -52 62 -157t48 -128q23 -49 37 -94q0 -14 -15 -32.5t-28 -18.5q-24 0 -79 2t-78 2q-5 0 -27 -1 t-43 -1h-100q-19 0 -43 6q-24 24 -33 64q-3 15 -16 48t-17 44t-8 28t-7 26.5t-7 12.5q-16 0 -48 -2t-47 -2q-7 0 -38.5 2t-55.5 2q-48 0 -177.5 -1t-160.5 -1q-14 -49 -38.5 -108.5t-26.5 -67.5q-8 -30 -23 -42.5t-47 -12.5q-34 0 -101 2t-110 2q-12 0 -28.5 -2t-30.5 -2 q-6 0 -56 4q-22 2 -22 53zM444 1475q0 35 48 104q5 5 28.5 46.5t32.5 53.5q7 10 17 26.5t18 28t16 19.5q18 22 30.5 28.5t35.5 6.5q5 0 68 -1t91 -1q23 0 94 1t81 1q23 0 34 -9t37 -46q17 -26 65 -107.5t56 -93.5q21 -40 21 -57q0 -41 -68 -41q-6 0 -24.5 1t-24.5 1h-76 q-72 0 -88 14q-19 15 -42.5 38.5t-40 36.5t-34.5 17q-19 -13 -44.5 -37t-43.5 -43t-22 -20q-18 -6 -119 -6q-119 0 -127 8q-19 19 -19 31zM668 557q30 -6 110 -6q155 0 205 4q-11 48 -57 172.5t-58 165.5q-1 3 -5 17.5t-6.5 22.5t-6.5 19t-8 17t-8 8l-17 -10 q-14 -20 -40 -107.5t-36 -107.5z" />
<glyph unicode="&#xe3;" d="M82 53q6 17 15.5 44.5t16.5 47.5t11 29q27 50 96 248q4 12 18.5 40.5t18.5 45.5q6 21 19.5 52t13.5 32q22 47 35.5 97.5t27.5 78.5q11 23 21 48t21.5 56t17.5 48q4 12 15 35t15 34q1 4 11 36.5t18 49.5q3 7 35 94q5 30 16 50.5t22.5 34t14.5 20.5q19 37 103 37 q26 0 90 -1t106 -1q16 0 53 1t68 1q49 0 86 -11q25 -7 40 -27.5t36 -72.5q56 -130 86 -213q7 -19 23 -58t28 -71t20 -61q8 -30 68.5 -170.5t63.5 -149.5q8 -35 14 -49q25 -52 62 -157t48 -128q23 -49 37 -94q0 -14 -15 -32.5t-28 -18.5q-24 0 -79 2t-78 2q-5 0 -27 -1 t-43 -1h-100q-19 0 -43 6q-24 24 -33 64q-3 15 -16 48t-17 44t-8 28t-7 26.5t-7 12.5q-16 0 -48 -2t-47 -2q-7 0 -38.5 2t-55.5 2q-48 0 -177.5 -1t-160.5 -1q-14 -49 -38.5 -108.5t-26.5 -67.5q-8 -30 -23 -42.5t-47 -12.5q-34 0 -101 2t-110 2q-12 0 -28.5 -2t-30.5 -2 q-6 0 -56 4q-22 2 -22 53zM446 1511q0 21 2.5 56.5t2.5 58.5q0 53 59 96q64 44 115 56q27 6 55 6q99 0 143 -17q10 -4 44.5 -13.5t52.5 -18.5q6 -5 29 -11t36 -6q57 0 96 27q9 6 33 13t39 7q32 0 39 -45q0 -4 1 -19t1 -22q0 -30 -4 -104q-1 -23 -19 -45.5t-38 -32.5 q-65 -36 -84 -43l-28 -7q-28 -7 -46.5 -10t-36.5 -3q-115 0 -203 45q-41 20 -88 20q-17 0 -55 -12q-15 -4 -31.5 -13t-31.5 -14.5t-37 -5.5q-46 0 -46 57zM668 557q30 -6 110 -6q155 0 205 4q-11 48 -57 172.5t-58 165.5q-1 3 -5 17.5t-6.5 22.5t-6.5 19t-8 17t-8 8l-17 -10 q-14 -20 -40 -107.5t-36 -107.5z" />
<glyph unicode="&#xe4;" d="M82 53q6 17 15.5 44.5t16.5 47.5t11 29q27 50 96 248q4 12 18.5 40.5t18.5 45.5q6 21 19.5 52t13.5 32q22 47 35.5 97.5t27.5 78.5q11 23 21 48t21.5 56t17.5 48q4 12 15 35t15 34q1 4 11 36.5t18 49.5q3 7 35 94q5 30 16 50.5t22.5 34t14.5 20.5q19 37 103 37 q26 0 90 -1t106 -1q16 0 53 1t68 1q49 0 86 -11q25 -7 40 -27.5t36 -72.5q56 -130 86 -213q7 -19 23 -58t28 -71t20 -61q8 -30 68.5 -170.5t63.5 -149.5q8 -35 14 -49q25 -52 62 -157t48 -128q23 -49 37 -94q0 -14 -15 -32.5t-28 -18.5q-24 0 -79 2t-78 2q-5 0 -27 -1 t-43 -1h-100q-19 0 -43 6q-24 24 -33 64q-3 15 -16 48t-17 44t-8 28t-7 26.5t-7 12.5q-16 0 -48 -2t-47 -2q-7 0 -38.5 2t-55.5 2q-48 0 -177.5 -1t-160.5 -1q-14 -49 -38.5 -108.5t-26.5 -67.5q-8 -30 -23 -42.5t-47 -12.5q-34 0 -101 2t-110 2q-12 0 -28.5 -2t-30.5 -2 q-6 0 -56 4q-22 2 -22 53zM403 1591q0 62 34 116t73 67q38 10 70 10q41 0 82.5 -12.5t62.5 -34.5q26 -28 49 -119q4 -24 4 -33q0 -21 -10 -41q-9 -23 -33.5 -52t-46.5 -42q-30 -18 -96 -18q-78 0 -127 28q-25 14 -43.5 55.5t-18.5 75.5zM668 557q30 -6 110 -6q155 0 205 4 q-11 48 -57 172.5t-58 165.5q-1 3 -5 17.5t-6.5 22.5t-6.5 19t-8 17t-8 8l-17 -10q-14 -20 -40 -107.5t-36 -107.5zM887 1599q0 73 24 107q24 37 47 51t60 23q30 6 59 6q64 0 113.5 -35t60.5 -98q4 -18 4 -49q0 -54 -32 -99q-29 -40 -44.5 -50t-66.5 -17q-32 -4 -53 -4 q-64 0 -102 28.5t-62 89.5q-8 16 -8 47z" />
<glyph unicode="&#xe5;" d="M82 53q6 17 15.5 44.5t16.5 47.5t11 29q27 50 96 248q4 12 18.5 40.5t18.5 45.5q6 21 19.5 52t13.5 32q22 47 35.5 97.5t27.5 78.5q11 23 21 48t21.5 56t17.5 48q4 12 15 35t15 34q1 4 11 36.5t18 49.5q3 7 35 94q5 30 16 50.5t22.5 34t14.5 20.5q7 18 39 29 q-20 13 -31 30q-37 41 -49 88q-10 41 -10 99q0 40 6 67q54 119 107 152q93 53 215 53q59 0 120 -17t93 -53q6 -9 16.5 -21t15.5 -18q42 -39 56 -79q14 -49 14 -99q0 -58 -37 -141q-19 -40 -49 -64q25 -7 40 -27.5t36 -72.5q56 -130 86 -213q7 -19 23 -58t28 -71t20 -61 q8 -30 68.5 -170.5t63.5 -149.5q8 -35 14 -49q25 -52 62 -157t48 -128q23 -49 37 -94q0 -14 -15 -32.5t-28 -18.5q-24 0 -79 2t-78 2q-5 0 -27 -1t-43 -1h-100q-19 0 -43 6q-24 24 -33 64q-3 15 -16 48t-17 44t-8 28t-7 26.5t-7 12.5q-16 0 -48 -2t-47 -2q-7 0 -38.5 2 t-55.5 2q-48 0 -177.5 -1t-160.5 -1q-14 -49 -38.5 -108.5t-26.5 -67.5q-8 -30 -23 -42.5t-47 -12.5q-34 0 -101 2t-110 2q-12 0 -28.5 -2t-30.5 -2q-6 0 -56 4q-22 2 -22 53zM668 557q30 -6 110 -6q155 0 205 4q-11 48 -57 172.5t-58 165.5q-1 3 -5 17.5t-6.5 22.5t-6.5 19 t-8 17t-8 8l-17 -10q-14 -20 -40 -107.5t-36 -107.5zM735 1503q0 -55 35 -69q36 -19 66 -19q82 0 82 111q-1 31 -31.5 52t-63.5 21q-42 -1 -65 -28t-23 -68z" />
<glyph unicode="&#xe6;" horiz-adv-x="2242" d="M43 53q3 17 26 59t37 62q49 70 142 248q5 9 25 40.5t28 49.5q9 19 26 49t19 35q31 49 56.5 98t41.5 74q77 124 129 221q37 68 50 86q47 76 57 94q47 78 70 105q9 11 16 16.5t29.5 13t54.5 7.5q24 0 84 -1t98 -1q43 0 135 -1t142 -1q13 0 93 1t101 1q144 0 199 2 q42 0 128 -1t134 -1q80 0 98 -13q15 -11 15 -57v-98q-1 -8 -1 -48.5t-2 -74t-6 -41.5q-12 -10 -59 -10q-38 0 -156 3t-174 3q-18 0 -60.5 -3t-70.5 -3q-19 0 -67.5 2t-71.5 2h-23q-4 -36 -4 -92q0 -40 2 -58q23 0 76 -2t80 -2q18 0 54.5 2t56.5 2q16 0 49 -2t47 -2 q25 0 59.5 2t44.5 2q21 0 31 -9t10 -32q0 -16 1 -44.5t1 -41.5t-2 -47t-2 -57q0 -14 1 -27.5t1 -17.5q0 -37 -47 -37h-78q-25 1 -42.5 2.5t-28.5 1.5q-27 0 -54 -2t-88 -2q-34 0 -86.5 1t-64.5 1h-19q-2 -20 -2 -92v-35q0 -39 7 -51q21 8 41 8q16 0 49.5 1t52.5 1h37 q41 0 88 -2t72 -2q49 0 119.5 3t109.5 3q21 0 46 -2t32 -2q22 0 31 -17t10 -67v-94q0 -110 -15 -129q-8 -10 -13 -15t-19.5 -9.5t-36.5 -4.5q-9 0 -22 -2t-23 -2q-14 0 -46 -1t-36 -1q-29 0 -92 3t-95 3q-19 0 -59 -3t-61 -3q-27 0 -39 2q-20 2 -56 2q-26 0 -63 -3t-55 -3 q-39 0 -122.5 1t-150.5 1q-74 0 -88 12q-12 24 -12 107v108q-32 4 -64 4q-48 0 -177.5 -1t-160.5 -1q-22 -49 -57.5 -108.5t-38.5 -67.5q-15 -33 -27 -44t-42 -11q-34 0 -109 2t-119 2q-12 0 -28 -2t-29 -2q-5 0 -55 4q-23 2 -23 53zM735 557q30 -6 111 -6h129q0 27 3 80 t3 80q0 24 -3 86t-3 108v68q-2 0 -5.5 -1t-4.5 -1q-19 -21 -65 -111.5t-56 -107.5z" />
<glyph unicode="&#xe7;" horiz-adv-x="1558" d="M139 659q0 75 21 140q5 20 9.5 39.5t10 43t8.5 38.5q2 9 17 35t18 38q6 19 10 26t8.5 8.5t6.5 4.5l2 10q17 51 108 134t156 108q190 78 344 78q110 0 242 -23q30 -4 68 -15t62.5 -20t59 -23t37.5 -15q38 -15 60 -35.5t22 -42.5q0 -26 -14 -62.5t-31 -56.5 q-11 -13 -23 -42.5t-30 -47.5q-20 -32 -32.5 -42.5t-29.5 -10.5q-47 0 -86 20q-39 21 -95.5 39t-92.5 21q-60 6 -84 6q-39 0 -107 -15q-89 -28 -148.5 -96t-68.5 -143q-2 -16 -7 -55t-5 -50q0 -121 47 -204q30 -55 96 -101q23 -18 80 -33.5t99 -15.5q102 0 157 16 q96 26 127 43q50 31 88 31q7 0 11.5 -3t14.5 -15t19 -21q10 -10 22 -33.5t23 -37.5q20 -29 41 -82t21 -78q0 -16 -10 -27t-28.5 -20.5t-21.5 -12.5q-13 -9 -52 -25t-66 -22q-16 -3 -37 -11t-33 -11q-151 -34 -195 -35q-32 0 -40 -2v-35q16 -10 89.5 -29t106.5 -45 q45 -36 67.5 -77.5t22.5 -116.5q0 -86 -57 -152.5t-137 -87.5q-84 -24 -215 -24q-21 0 -86 11t-78 17q-39 11 -83 33.5t-44 42.5q0 13 10.5 52.5t20.5 58.5q3 6 12.5 36.5t21.5 45.5t33 16q5 0 40 -13.5t85 -27.5t90 -14q80 0 80 34q0 18 -15 28.5t-53 17.5q-4 1 -28.5 4.5 t-53.5 9.5t-51 14q-30 11 -38.5 31t-8.5 59q0 11 1 32.5t2.5 51.5t2.5 49q-53 12 -102 35q-21 11 -53.5 26.5t-51 25.5t-45 26.5t-51.5 36.5q-17 16 -28 27t-22.5 26t-16 21t-20.5 30t-23 35q-36 51 -59 121t-28 105t-5 47q-11 27 -11 122z" />
<glyph unicode="&#xe8;" horiz-adv-x="1478" d="M195 117q0 16 1 95.5t1 84.5q4 29 4 82q0 26 -2 81t-2 85q0 29 3 83t3 83q0 24 -3 86t-3 108q0 28 -1 97t-1 104q0 134 12 178q10 9 33 18t32 9h93q23 0 87 -2t85 -2q13 0 93 1t101 1q144 0 199 2q42 0 128 -1t134 -1q80 0 98 -13q15 -11 15 -57v-98q-1 -8 -1 -48.5 t-2 -74t-6 -41.5q-12 -10 -59 -10q-38 0 -156 3t-174 3q-18 0 -60.5 -3t-70.5 -3q-19 0 -67.5 2t-71.5 2h-23q-4 -36 -4 -92q0 -40 2 -58q23 0 76 -2t80 -2q18 0 54.5 2t56.5 2q16 0 49 -2t47 -2q25 0 59.5 2t44.5 2q21 0 31 -9t10 -32q0 -16 1 -44.5t1 -41.5t-2 -47t-2 -57 q0 -14 1 -27.5t1 -17.5q0 -37 -47 -37h-78q-25 1 -42.5 2.5t-28.5 1.5q-27 0 -54 -2t-88 -2q-34 0 -86.5 1t-64.5 1h-19q-2 -20 -2 -92v-35q0 -41 6 -51q21 8 41 8q16 0 50 1t53 1h37q41 0 87.5 -2t71.5 -2q48 0 119 3t111 3q21 0 46 -2t32 -2q22 0 31 -17t10 -67v-94 q0 -110 -15 -129q-8 -10 -13 -15t-19.5 -9.5t-36.5 -4.5q-9 0 -22 -2t-23 -2q-14 0 -46 -1t-36 -1q-29 0 -92 3t-95 3q-19 0 -59.5 -3t-61.5 -3q-26 0 -38 2q-20 2 -56 2q-26 0 -63.5 -3t-55.5 -3q-39 0 -125 1t-153 1q-74 0 -88 12q-12 24 -12 107zM430 1735 q1 32 27.5 42.5t77.5 10.5q26 0 81.5 -1t77.5 -1q6 0 18 1t15 1q7 0 16 -1t13 -1q61 0 78 -31q2 -3 8 -10.5t12 -17t10 -19.5l18 -50q17 -51 33 -83q35 -69 35 -102q0 -25 -18.5 -33t-57.5 -8q-12 0 -58 2t-64 2q-13 0 -39 -1t-41 -1q-34 0 -72 53l-65 82q-14 18 -41 55 t-37 47q-1 3 -8.5 17t-13 27.5t-5.5 19.5z" />
<glyph unicode="&#xe9;" horiz-adv-x="1478" d="M195 117q0 16 1 95.5t1 84.5q4 29 4 82q0 26 -2 81t-2 85q0 29 3 83t3 83q0 24 -3 86t-3 108q0 28 -1 97t-1 104q0 134 12 178q10 9 33 18t32 9h93q23 0 87 -2t85 -2q13 0 93 1t101 1q144 0 199 2q42 0 128 -1t134 -1q80 0 98 -13q15 -11 15 -57v-98q-1 -8 -1 -48.5 t-2 -74t-6 -41.5q-12 -10 -59 -10q-38 0 -156 3t-174 3q-18 0 -60.5 -3t-70.5 -3q-19 0 -67.5 2t-71.5 2h-23q-4 -36 -4 -92q0 -40 2 -58q23 0 76 -2t80 -2q18 0 54.5 2t56.5 2q16 0 49 -2t47 -2q25 0 59.5 2t44.5 2q21 0 31 -9t10 -32q0 -16 1 -44.5t1 -41.5t-2 -47t-2 -57 q0 -14 1 -27.5t1 -17.5q0 -37 -47 -37h-78q-25 1 -42.5 2.5t-28.5 1.5q-27 0 -54 -2t-88 -2q-34 0 -86.5 1t-64.5 1h-19q-2 -20 -2 -92v-35q0 -41 6 -51q21 8 41 8q16 0 50 1t53 1h37q41 0 87.5 -2t71.5 -2q48 0 119 3t111 3q21 0 46 -2t32 -2q22 0 31 -17t10 -67v-94 q0 -110 -15 -129q-8 -10 -13 -15t-19.5 -9.5t-36.5 -4.5q-9 0 -22 -2t-23 -2q-14 0 -46 -1t-36 -1q-29 0 -92 3t-95 3q-19 0 -59.5 -3t-61.5 -3q-26 0 -38 2q-20 2 -56 2q-26 0 -63.5 -3t-55.5 -3q-39 0 -125 1t-153 1q-74 0 -88 12q-12 24 -12 107zM547 1468q1 11 15 49 t22 54q3 7 12.5 33.5t17.5 44.5q6 10 19 47t22 47q32 32 39 35q27 10 58 10q3 0 55.5 -1t75.5 -1q19 0 58.5 1t55.5 1q26 0 47 -12t27 -35q0 -20 -11 -41t-36 -52.5t-33 -43.5q-50 -72 -69 -91q-44 -55 -56 -65q-19 -14 -63 -14q-7 0 -33 1t-35 1t-56.5 -1t-57.5 -1 q-29 0 -41 2q-19 0 -33 32z" />
<glyph unicode="&#xea;" horiz-adv-x="1478" d="M195 117q0 16 1 95.5t1 84.5q4 29 4 82q0 26 -2 81t-2 85q0 29 3 83t3 83q0 24 -3 86t-3 108q0 28 -1 97t-1 104q0 134 12 178q10 9 33 18t32 9h93q23 0 87 -2t85 -2q13 0 93 1t101 1q144 0 199 2q42 0 128 -1t134 -1q80 0 98 -13q15 -11 15 -57v-98q-1 -8 -1 -48.5 t-2 -74t-6 -41.5q-12 -10 -59 -10q-38 0 -156 3t-174 3q-18 0 -60.5 -3t-70.5 -3q-19 0 -67.5 2t-71.5 2h-23q-4 -36 -4 -92q0 -40 2 -58q23 0 76 -2t80 -2q18 0 54.5 2t56.5 2q16 0 49 -2t47 -2q25 0 59.5 2t44.5 2q21 0 31 -9t10 -32q0 -16 1 -44.5t1 -41.5t-2 -47t-2 -57 q0 -14 1 -27.5t1 -17.5q0 -37 -47 -37h-78q-25 1 -42.5 2.5t-28.5 1.5q-27 0 -54 -2t-88 -2q-34 0 -86.5 1t-64.5 1h-19q-2 -20 -2 -92v-35q0 -41 6 -51q21 8 41 8q16 0 50 1t53 1h37q41 0 87.5 -2t71.5 -2q48 0 119 3t111 3q21 0 46 -2t32 -2q22 0 31 -17t10 -67v-94 q0 -110 -15 -129q-8 -10 -13 -15t-19.5 -9.5t-36.5 -4.5q-9 0 -22 -2t-23 -2q-14 0 -46 -1t-36 -1q-29 0 -92 3t-95 3q-19 0 -59.5 -3t-61.5 -3q-26 0 -38 2q-20 2 -56 2q-26 0 -63.5 -3t-55.5 -3q-39 0 -125 1t-153 1q-74 0 -88 12q-12 24 -12 107zM373 1475q0 37 47 104 q5 5 28.5 46.5t32.5 53.5q7 10 17 26.5t18 28t16 19.5q18 22 30.5 28.5t35.5 6.5q5 0 68.5 -1t91.5 -1q22 0 93 1t81 1q23 0 35 -9.5t37 -45.5q17 -26 64.5 -107.5t55.5 -93.5q21 -40 21 -57q0 -41 -68 -41q-6 0 -24.5 1t-24.5 1h-76q-72 0 -88 14q-20 15 -42.5 38.5 t-39 36.5t-34.5 17q-19 -13 -45 -37t-44 -43t-22 -20q-18 -6 -119 -6q-119 0 -127 8q-18 18 -18 31z" />
<glyph unicode="&#xeb;" horiz-adv-x="1478" d="M195 117q0 16 1 95.5t1 84.5q4 29 4 82q0 26 -2 81t-2 85q0 29 3 83t3 83q0 24 -3 86t-3 108q0 28 -1 97t-1 104q0 134 12 178q10 9 33 18t32 9h93q23 0 87 -2t85 -2q13 0 93 1t101 1q144 0 199 2q42 0 128 -1t134 -1q80 0 98 -13q15 -11 15 -57v-98q-1 -8 -1 -48.5 t-2 -74t-6 -41.5q-12 -10 -59 -10q-38 0 -156 3t-174 3q-18 0 -60.5 -3t-70.5 -3q-19 0 -67.5 2t-71.5 2h-23q-4 -36 -4 -92q0 -40 2 -58q23 0 76 -2t80 -2q18 0 54.5 2t56.5 2q16 0 49 -2t47 -2q25 0 59.5 2t44.5 2q21 0 31 -9t10 -32q0 -16 1 -44.5t1 -41.5t-2 -47t-2 -57 q0 -14 1 -27.5t1 -17.5q0 -37 -47 -37h-78q-25 1 -42.5 2.5t-28.5 1.5q-27 0 -54 -2t-88 -2q-34 0 -86.5 1t-64.5 1h-19q-2 -20 -2 -92v-35q0 -41 6 -51q21 8 41 8q16 0 50 1t53 1h37q41 0 87.5 -2t71.5 -2q48 0 119 3t111 3q21 0 46 -2t32 -2q22 0 31 -17t10 -67v-94 q0 -110 -15 -129q-8 -10 -13 -15t-19.5 -9.5t-36.5 -4.5q-9 0 -22 -2t-23 -2q-14 0 -46 -1t-36 -1q-29 0 -92 3t-95 3q-19 0 -59.5 -3t-61.5 -3q-26 0 -38 2q-20 2 -56 2q-26 0 -63.5 -3t-55.5 -3q-39 0 -125 1t-153 1q-74 0 -88 12q-12 24 -12 107zM334 1591q0 62 33.5 116 t72.5 67q38 10 70 10q41 0 82.5 -12.5t62.5 -34.5q27 -29 50 -119q4 -24 4 -33q0 -19 -11 -41q-9 -23 -33.5 -52t-46.5 -42q-30 -18 -96 -18q-78 0 -127 28q-25 14 -43 55.5t-18 75.5zM817 1599q0 71 25 107q24 37 47 51.5t59 22.5q30 6 60 6q64 0 113.5 -35t60.5 -98 q4 -18 4 -49q0 -53 -33 -99q-29 -40 -44.5 -50t-66.5 -17q-32 -4 -53 -4q-64 0 -102 28.5t-62 89.5q-8 16 -8 47z" />
<glyph unicode="&#xec;" horiz-adv-x="802" d="M35 1735q1 32 27 42.5t77 10.5q26 0 82 -1t78 -1q7 0 18 1t15 1q6 0 15 -1t13 -1q61 0 78 -31l12 -17q13 -16 19 -30l17 -50q18 -51 34 -83q35 -69 35 -102q0 -25 -18.5 -33t-57.5 -8q-12 0 -59 2t-64 2q-13 0 -39 -1t-41 -1q-11 0 -19 2.5t-21.5 15t-30.5 35.5l-66 82 q-14 18 -41 55t-37 47q-1 2 -8 16.5t-12.5 28t-5.5 19.5zM182 37q2 12 2 74q0 18 4 30q-1 4 -2 18t-2 19l2 516q0 37 1 107t1 106q0 14 -2 42.5t-2 43.5v115q1 16 2 32.5t1.5 25.5t0.5 16q0 10 -1 30.5t-1 30.5q0 25 2 37q15 33 134 33q46 0 71 -2h127q54 0 74 -17 q14 -16 14 -149q0 -220 -4 -271v-323q2 -12 2 -125q0 -46 -1 -116.5t-1 -76.5v-71q0 -20 1 -61.5t1 -57.5q0 -13 -8 -37q-31 -8 -135 -8q-17 0 -44 1t-34 1h-16q-17 0 -49.5 -2t-47.5 -2q-39 3 -56.5 12t-33.5 29z" />
<glyph unicode="&#xed;" horiz-adv-x="802" d="M182 37q2 12 2 74q0 18 4 30q-1 4 -2 18t-2 19l2 516q0 37 1 107t1 106q0 14 -2 42.5t-2 43.5v115q1 16 2 32.5t1.5 25.5t0.5 16q0 10 -1 30.5t-1 30.5q0 25 2 37q15 33 134 33q46 0 71 -2h127q54 0 74 -17q14 -16 14 -149q0 -220 -4 -271v-323q2 -12 2 -125 q0 -46 -1 -116.5t-1 -76.5v-71q0 -20 1 -61.5t1 -57.5q0 -13 -8 -37q-31 -8 -135 -8q-17 0 -44 1t-34 1h-16q-17 0 -49.5 -2t-47.5 -2q-39 3 -56.5 12t-33.5 29zM238 1468q1 12 14.5 49.5t21.5 53.5q1 2 12 30.5t19 47.5q6 10 19 47t22 47q32 32 39 35q27 10 57 10 q3 0 55.5 -1t75.5 -1q19 0 59 1t56 1q26 0 47 -12t27 -35q0 -20 -11 -41t-36 -52.5t-33 -43.5q-48 -69 -70 -91q-46 -58 -55 -65q-19 -14 -63 -14q-7 0 -33 1t-35 1t-57 -1t-58 -1q-29 0 -41 2q-18 0 -32 32z" />
<glyph unicode="&#xee;" horiz-adv-x="802" d="M16 1475q0 37 47 104q5 5 29 46.5t33 53.5q7 10 17 26.5t18 28t16 19.5q18 22 30.5 28.5t35.5 6.5q5 0 68 -1t91 -1q23 0 93 1t81 1q23 0 35 -9.5t37 -45.5q17 -26 65 -107.5t56 -93.5q20 -39 20 -57q0 -41 -67 -41q-6 0 -24.5 1t-24.5 1h-76q-72 0 -88 14 q-19 15 -42.5 38.5t-40 36.5t-34.5 17q-19 -13 -44.5 -37t-43.5 -43t-22 -20q-18 -6 -119 -6q-119 0 -127 8q-19 19 -19 31zM182 37q2 12 2 74q0 18 4 30q-1 4 -2 18t-2 19l2 516q0 37 1 107t1 106q0 14 -2 42.5t-2 43.5v115q1 16 2 32.5t1.5 25.5t0.5 16q0 10 -1 30.5 t-1 30.5q0 25 2 37q15 33 134 33q46 0 71 -2h127q54 0 74 -17q14 -16 14 -149q0 -220 -4 -271v-323q2 -12 2 -125q0 -46 -1 -116.5t-1 -76.5v-71q0 -20 1 -61.5t1 -57.5q0 -13 -8 -37q-31 -8 -135 -8q-17 0 -44 1t-34 1h-16q-17 0 -49.5 -2t-47.5 -2q-39 3 -56.5 12 t-33.5 29z" />
<glyph unicode="&#xef;" horiz-adv-x="802" d="M-29 1591q0 62 34 116t73 67q38 10 69 10q41 0 83 -12.5t63 -34.5q26 -28 49 -119q4 -24 4 -33q0 -21 -10 -41q-9 -23 -33.5 -52t-46.5 -42q-30 -18 -96 -18q-78 0 -127 28q-25 14 -43.5 55.5t-18.5 75.5zM182 37q2 12 2 74q0 18 4 30q-1 4 -2 18t-2 19l2 516q0 37 1 107 t1 106q0 14 -2 42.5t-2 43.5v115q1 16 2 32.5t1.5 25.5t0.5 16q0 10 -1 30.5t-1 30.5q0 25 2 37q15 33 134 33q46 0 71 -2h127q54 0 74 -17q14 -16 14 -149q0 -220 -4 -271v-323q2 -12 2 -125q0 -46 -1 -116.5t-1 -76.5v-71q0 -20 1 -61.5t1 -57.5q0 -13 -8 -37 q-31 -8 -135 -8q-17 0 -44 1t-34 1h-16q-17 0 -49.5 -2t-47.5 -2q-39 3 -56.5 12t-33.5 29zM455 1599q0 73 24 107q24 37 47 51t60 23q30 6 59 6q64 0 113.5 -35t60.5 -98q4 -18 4 -49q0 -54 -32 -99q-29 -40 -44.5 -50t-66.5 -17q-32 -4 -53 -4q-64 0 -102 28.5t-62 89.5 q-8 16 -8 47z" />
<glyph unicode="&#xf0;" horiz-adv-x="1714" d="M78 547q0 5 1 28t1 31q-2 25 -2 111q0 54 16 67q10 4 33 4q13 0 41 -1t41 -1q27 0 39 2q6 18 6 70q0 4 1 47t1 66q0 29 2 78.5t2 76.5v86q0 36 6 56q34 43 70 43h59q19 0 68.5 2t60.5 2q1 0 88 -6q6 0 16 1t19 1q33 -2 70 -2q15 0 62.5 2t94.5 2q93 0 138 -4 q21 -2 52 -8.5t44 -6.5q55 0 133 -39q122 -59 170 -112q15 -21 42 -54t39 -50t26.5 -49.5t23.5 -74.5q4 -21 11.5 -54.5t9.5 -48t4.5 -51t3.5 -91.5q0 -117 -10 -148q-7 -20 -9.5 -39.5t-5.5 -31.5q-4 -18 -10.5 -37.5t-18.5 -47.5t-16 -38q-12 -35 -34 -67.5t-38 -49 t-53.5 -51t-50.5 -47.5q-61 -58 -171 -85.5t-273 -35.5l-430 -2q-15 1 -76.5 1.5t-89.5 6.5q-35 9 -35 76q0 12 1 39.5t1 42.5q0 20 -2 80t-2 83q0 5 2 29t2 37q0 21 2 52t2 46q0 27 -4 37q-5 0 -15.5 1t-15.5 1q-17 0 -37 -2t-34 -2q-33 0 -60 8q-1 1 -3.5 4t-5 7.5 t-3.5 9.5zM659 348q13 -10 66 -10h166q61 0 139 33q79 36 111 153q14 70 14 121q0 97 -18 156q-14 44 -35 72t-66 57q-9 5 -22 9.5t-29.5 9t-23.5 7.5q-29 11 -140 11q-135 0 -153 -11q-4 -38 -6 -112q0 -12 2 -32t2 -30q8 0 47.5 2t58.5 2q22 0 52 -1t59 -1q17 0 25 -8 t16 -31q0 -13 1 -47.5t1 -50.5q0 -4 -1 -27.5t-1 -33.5q0 -17 -4 -35t-9 -21q-20 -12 -59 -12q-20 2 -61 2q-8 0 -28 -1t-28 -1q-10 0 -22 1t-21 1q-20 0 -26 -2q0 -9 -2 -27.5t-2 -27.5q0 -43 -1.5 -76.5t-1.5 -38.5z" />
<glyph unicode="&#xf1;" horiz-adv-x="1718" d="M186 53q0 17 3.5 56t3.5 43q0 7 -1.5 31.5t-1.5 41.5v240q0 125 7 207q0 17 -2 36t-2 33q0 29 -1.5 89t-1.5 94t2.5 134.5t2.5 135.5q0 60 9.5 82t35.5 33q7 0 22 1t23 1q14 0 56 -1t73 -1h69q13 0 34.5 1t66.5 1q34 0 59.5 -20.5t56.5 -71.5q4 -6 30.5 -34t31.5 -38 l14 -35q3 -6 13 -20t23 -31.5t15 -20.5q11 -16 19 -25t11.5 -14.5t10.5 -25.5q7 -2 12.5 -5t11 -9.5t8.5 -10.5t10 -14t10 -14q4 -7 36.5 -50t49.5 -71q18 -33 81 -128t68 -104q0 35 -5 101.5t-5 70.5q0 12 1 66t1 92q0 26 -1 83t-1 85q0 139 6 176q3 24 8.5 35.5t13 17 t9.5 9.5q5 0 32 2t43 2q17 0 39 -1l23 -1q21 0 63.5 2t71.5 2q41 0 51 -4q25 -25 25 -119q0 -16 -1 -42t-1 -34q0 -76 -1 -242.5t-1 -253.5q0 -134 4 -380q0 -12 -4 -55t-4 -64q0 -52 -11 -74q-20 -41 -61 -41q-14 0 -45.5 -1t-42.5 -1q-82 0 -117 -2q-95 1 -121.5 7 t-48.5 28q-17 17 -55 71.5t-53 69.5q-3 3 -12 11t-14.5 14t-15 19t-18.5 30q-40 70 -91 135.5t-79 105.5q-18 29 -39 50q-1 1 -20.5 33t-42 69.5t-45.5 73.5t-31 45q0 -5 -1 -17t-1 -18q0 -35 6 -119t6 -112q0 -14 -2 -68t-2 -78q0 -62 4 -180v-62q0 -69 -15.5 -88.5 t-72.5 -19.5q-13 0 -51 2t-68 2q-14 0 -62.5 -2t-66.5 -2q-29 0 -38 13.5t-9 41.5zM457 1511q0 21 2 56.5t2 58.5q0 53 59 96q64 44 115 56q27 6 55 6q100 0 144 -17q10 -3 44 -13t52 -19q6 -5 29 -11t36 -6q58 0 97 27q9 6 33 13t38 7q32 0 39 -45q0 -4 1 -19t1 -22 q0 -30 -4 -104q-1 -23 -19 -45.5t-38 -32.5q-65 -36 -84 -43l-28 -7q-28 -7 -46.5 -10t-36.5 -3q-115 0 -203 45q-41 20 -88 20q-17 0 -55 -12q-15 -4 -31.5 -13t-31.5 -14.5t-37 -5.5q-45 0 -45 57z" />
<glyph unicode="&#xf2;" horiz-adv-x="1789" d="M139 625q0 123 43 262q44 155 161.5 273.5t238.5 144.5q46 10 64.5 15t36 10t46.5 13q78 19 172 19q55 0 120 -13.5t73 -13.5q41 -1 119 -35t130 -65q237 -147 295 -442q13 -69 13 -123q0 -69 -29 -205q-18 -83 -78 -180t-125 -154l-102 -80q-42 -25 -99 -50t-94 -32 q-110 -20 -225 -20q-111 0 -199 18q-113 23 -253.5 109.5t-188.5 175.5q-7 14 -23.5 43.5t-23 41.5t-18.5 37t-18 42.5t-13 43t-12 52.5q-11 71 -11 113zM545 1735q1 32 27 42.5t77 10.5q26 0 82 -1t78 -1q7 0 18.5 1t14.5 1q6 0 15 -1t13 -1q61 0 78 -31l12 -17 q13 -16 19 -30l17 -50q18 -51 34 -83q35 -69 35 -102q0 -25 -18.5 -33t-57.5 -8q-11 0 -58 2t-65 2q-13 0 -39 -1t-41 -1q-11 0 -19 2.5t-21.5 15t-30.5 35.5l-66 82q-14 18 -41 55t-37 47q-1 2 -8 16.5t-12.5 28t-5.5 19.5zM557 635q0 -88 43 -169t119 -124 q26 -14 66 -28.5t63 -14.5q145 0 214 34t130 140q41 75 41 197q0 63 -12 100q-22 74 -60 121q-58 72 -147 104q-7 1 -23 5.5t-29 7t-20 2.5q-27 0 -44 1t-21 1q-45 0 -110 -22t-93 -50q-117 -117 -117 -305z" />
<glyph unicode="&#xf3;" horiz-adv-x="1789" d="M139 625q0 123 43 262q44 155 161.5 273.5t238.5 144.5q46 10 64.5 15t36 10t46.5 13q78 19 172 19q55 0 120 -13.5t73 -13.5q41 -1 119 -35t130 -65q237 -147 295 -442q13 -69 13 -123q0 -69 -29 -205q-18 -83 -78 -180t-125 -154l-102 -80q-42 -25 -99 -50t-94 -32 q-110 -20 -225 -20q-111 0 -199 18q-113 23 -253.5 109.5t-188.5 175.5q-7 14 -23.5 43.5t-23 41.5t-18.5 37t-18 42.5t-13 43t-12 52.5q-11 71 -11 113zM557 635q0 -88 43 -169t119 -124q26 -14 66 -28.5t63 -14.5q145 0 214 34t130 140q41 75 41 197q0 63 -12 100 q-22 74 -60 121q-58 72 -147 104q-7 1 -23 5.5t-29 7t-20 2.5q-27 0 -44 1t-21 1q-45 0 -110 -22t-93 -50q-117 -117 -117 -305zM721 1468q1 11 15 49t22 54q3 7 12.5 33.5t17.5 44.5q6 10 19 47t22 47q32 32 39 35q27 10 58 10q3 0 55.5 -1t75.5 -1q19 0 58.5 1t55.5 1 q26 0 47 -12t27 -35q0 -20 -11 -41t-36 -52.5t-33 -43.5q-50 -72 -69 -91q-44 -55 -56 -65q-19 -14 -63 -14q-7 0 -33 1t-35 1t-56.5 -1t-57.5 -1q-29 0 -41 2q-19 0 -33 32z" />
<glyph unicode="&#xf4;" horiz-adv-x="1789" d="M139 625q0 123 43 262q44 155 161.5 273.5t238.5 144.5q46 10 64.5 15t36 10t46.5 13q78 19 172 19q55 0 120 -13.5t73 -13.5q41 -1 119 -35t130 -65q237 -147 295 -442q13 -69 13 -123q0 -69 -29 -205q-18 -83 -78 -180t-125 -154l-102 -80q-42 -25 -99 -50t-94 -32 q-110 -20 -225 -20q-111 0 -199 18q-113 23 -253.5 109.5t-188.5 175.5q-7 14 -23.5 43.5t-23 41.5t-18.5 37t-18 42.5t-13 43t-12 52.5q-11 71 -11 113zM510 1475q0 37 47 104q5 5 28.5 46.5t32.5 53.5q7 9 17.5 26.5t18.5 28.5t16 19q18 23 30 29t35 6q5 0 68.5 -1 t91.5 -1q23 0 93 1t81 1q23 0 35 -9.5t37 -45.5q17 -26 65 -107.5t56 -93.5q20 -39 20 -57q0 -41 -68 -41q-6 0 -24.5 1t-24.5 1h-75q-73 0 -89 14q-20 15 -42.5 38.5t-39 36.5t-34.5 17q-19 -13 -45 -37t-44 -43t-22 -20q-18 -6 -119 -6q-119 0 -127 8q-18 18 -18 31z M557 635q0 -88 43 -169t119 -124q26 -14 66 -28.5t63 -14.5q145 0 214 34t130 140q41 75 41 197q0 63 -12 100q-22 74 -60 121q-58 72 -147 104q-7 1 -23 5.5t-29 7t-20 2.5q-27 0 -44 1t-21 1q-45 0 -110 -22t-93 -50q-117 -117 -117 -305z" />
<glyph unicode="&#xf5;" horiz-adv-x="1789" d="M139 625q0 123 43 262q44 155 161.5 273.5t238.5 144.5q46 10 64.5 15t36 10t46.5 13q78 19 172 19q55 0 120 -13.5t73 -13.5q41 -1 119 -35t130 -65q237 -147 295 -442q13 -69 13 -123q0 -69 -29 -205q-18 -83 -78 -180t-125 -154l-102 -80q-42 -25 -99 -50t-94 -32 q-110 -20 -225 -20q-111 0 -199 18q-113 23 -253.5 109.5t-188.5 175.5q-7 14 -23.5 43.5t-23 41.5t-18.5 37t-18 42.5t-13 43t-12 52.5q-11 71 -11 113zM524 1511q0 21 2 56.5t2 58.5q0 52 60 96q64 44 115 56q27 6 55 6q99 0 143 -17q10 -3 44 -13t52 -19q6 -5 29.5 -11 t36.5 -6q57 0 96 27q9 6 33 13t39 7q32 0 39 -45q0 -4 1 -19t1 -22q0 -30 -4 -104q-1 -23 -19 -45.5t-39 -32.5q-65 -36 -84 -43q-1 0 -28 -7t-45.5 -10t-36.5 -3q-115 0 -203 45q-41 20 -88 20q-17 0 -55 -12q-10 -3 -41 -18t-60 -15q-45 0 -45 57zM557 635q0 -88 43 -169 t119 -124q26 -14 66 -28.5t63 -14.5q145 0 214 34t130 140q41 75 41 197q0 63 -12 100q-22 74 -60 121q-58 72 -147 104q-7 1 -23 5.5t-29 7t-20 2.5q-27 0 -44 1t-21 1q-45 0 -110 -22t-93 -50q-117 -117 -117 -305z" />
<glyph unicode="&#xf6;" horiz-adv-x="1789" d="M139 625q0 123 43 262q44 155 161.5 273.5t238.5 144.5q46 10 64.5 15t36 10t46.5 13q78 19 172 19q55 0 120 -13.5t73 -13.5q41 -1 119 -35t130 -65q237 -147 295 -442q13 -69 13 -123q0 -69 -29 -205q-18 -83 -78 -180t-125 -154l-102 -80q-42 -25 -99 -50t-94 -32 q-110 -20 -225 -20q-111 0 -199 18q-113 23 -253.5 109.5t-188.5 175.5q-7 14 -23.5 43.5t-23 41.5t-18.5 37t-18 42.5t-13 43t-12 52.5q-11 71 -11 113zM459 1591q0 62 33.5 116t72.5 67q38 10 70 10q41 0 82.5 -12.5t62.5 -34.5q26 -28 49 -119q5 -30 5 -33q0 -19 -11 -41 q-9 -23 -33.5 -52t-46.5 -42q-30 -18 -96 -18q-78 0 -127 28q-25 14 -43 55.5t-18 75.5zM557 635q0 -88 43 -169t119 -124q26 -14 66 -28.5t63 -14.5q145 0 214 34t130 140q41 75 41 197q0 63 -12 100q-22 74 -60 121q-58 72 -147 104q-7 1 -23 5.5t-29 7t-20 2.5 q-27 0 -44 1t-21 1q-45 0 -110 -22t-93 -50q-117 -117 -117 -305zM942 1599q0 71 25 107q24 37 47 51.5t59 22.5q30 6 60 6q64 0 113.5 -35t60.5 -98q4 -18 4 -49q0 -53 -33 -99q-29 -40 -44.5 -50t-66.5 -17q-32 -4 -53 -4q-64 0 -102 28.5t-62 89.5q-8 16 -8 47z" />
<glyph unicode="&#xf7;" horiz-adv-x="1120" d="M113 559q0 17 2 52t2 57q0 43 -2 61q0 31 19 46.5t36 15.5q29 0 56.5 -2.5t33.5 -2.5q15 0 25 2q49 5 129 5q17 0 57.5 -2.5t65.5 -2.5q16 0 49.5 3.5t52.5 3.5h20q31 -2 74 -2q13 0 50.5 -2.5t54.5 -2.5q1 0 8 1.5t14 1.5h37q58 0 96 -31q0 -1 1 -3t1 -3q6 -21 8.5 -71 t4.5 -65v-8q0 -9 -1 -20t-1 -21q0 -28 -11 -47q-29 -14 -63 -14h-94q-78 0 -127 -4q-9 0 -49 4q-30 6 -142 6h-20q-4 0 -12 -1t-9 -1q-25 -2 -51 -2q-16 0 -49 2t-53 2q-90 0 -156 -2q-26 0 -41.5 12.5t-15.5 34.5zM373 260q0 56 30 96q11 20 51.5 45t55.5 27q12 2 90 2 q55 -15 93 -50.5t50 -80.5q5 -25 5 -27q0 -44 -13 -79q-19 -56 -39 -68q-8 -6 -71 -33q-23 -12 -93 -12q-38 0 -81 24q-36 26 -57 68.5t-21 87.5zM373 1040q0 47 21.5 83t64.5 77q13 8 45 16.5t55 8.5q120 0 158 -95q26 -54 26 -81v-15q0 -33 -14 -65q-14 -28 -29 -42 t-32 -23.5t-27 -20.5q-33 -11 -86 -11q-54 0 -78 15q-7 5 -27 17.5t-29 19t-20 18.5t-16 25q-12 41 -12 73z" />
<glyph unicode="&#xf8;" horiz-adv-x="1789" d="M139 625q0 123 43 262q44 155 161.5 273.5t238.5 144.5q46 10 64.5 15t36 10t46.5 13q78 19 172 19q55 0 120 -13.5t73 -13.5q29 -4 59 -14l66 90q15 23 27 32t34 9h178q56 0 70 -14q8 -12 8 -31q0 -21 -15 -46t-40 -58t-37 -54q-18 -29 -39 -59q182 -143 233 -397 q13 -69 13 -123q0 -69 -29 -205q-18 -83 -78 -180t-125 -154l-102 -80q-42 -25 -99 -50t-94 -32q-110 -20 -225 -20q-111 0 -199 18l-55 15l-49 -76q-9 -17 -29 -31t-35 -16q-32 0 -112 2t-103 2q-9 3 -16 10t-14 17t-11 14q1 18 11.5 41t23 42t39.5 57.5t45 66.5 q-97 68 -137 141q-7 14 -23.5 43.5t-23 41.5t-18.5 37t-18 42.5t-13 43t-12 52.5q-11 71 -11 113zM553 635q0 -107 65 -201q131 213 179 279q19 41 48.5 88t76.5 115.5t59 87.5q-5 1 -14 4.5t-15 5.5t-10 2q-27 0 -44 1t-21 1q-44 0 -111.5 -24t-95.5 -52 q-60 -60 -88.5 -132t-28.5 -175zM823 301q2 -1 11 -4.5t14 -3.5q144 0 215.5 36t132.5 142q41 75 41 199q0 63 -12 100q-12 38 -47 98q-93 -160 -123 -200q-15 -20 -80.5 -130.5t-97.5 -148.5q-25 -28 -54 -88z" />
<glyph unicode="&#xf9;" horiz-adv-x="1681" d="M174 647q0 64 8 160l-6 203q8 92 8 155q0 15 -1 47t-1 43q0 10 5 20t13 19t9 11q12 6 55 6l129 4q50 -4 101 -4q13 0 40.5 1t30.5 1q11 0 17.5 -6.5t12 -31.5t5.5 -69v-59q0 -82 -4 -242l-2 -80q0 -27 1 -85t1 -89q0 -177 33 -254q20 -43 82 -72.5t123 -29.5 q124 0 188 67q21 23 33 52t20.5 73.5t9.5 47.5q0 30 1 79.5t1 71.5q0 49 -2 74q0 80 1.5 130.5t2.5 70.5t1 26q0 32 -3.5 97t-3.5 102q0 8 -1 27t-1 28q0 29 10.5 46t41.5 18h43q27 0 45 4l196 2q48 0 64 -19q2 -2 18 -30q0 -20 -1 -60t-1 -51q0 -2 2 -44t2 -99q0 -8 -2 -25 t-2 -25q0 -7 1 -23t1 -24q0 -9 -2 -27t-2 -24q0 -40 4 -120t4 -124q0 -54 -4 -90q-3 -18 -12 -102q-2 -12 -4 -32.5t-5 -36.5t-8 -31q-17 -54 -28 -95q-8 -27 -28.5 -56t-50 -61t-36.5 -40q-1 -1 -19.5 -12.5t-23.5 -18.5q-7 -5 -59 -27.5t-68 -27.5q-132 -37 -291 -37 q-170 0 -301 28q-21 5 -114 37q-16 6 -32.5 16t-36.5 23.5t-28 18.5q-23 15 -42.5 44.5t-32.5 41.5q-35 30 -64 114t-31 140q-2 49 -6 123t-4 112zM487 1735q1 32 27.5 42.5t77.5 10.5q26 0 82 -1t78 -1q6 0 17 1t15 1q6 0 16 -1t13 -1q61 0 78 -31l13 -17q12 -16 18 -30 l18 -50q17 -51 33 -83q35 -69 35 -102q0 -25 -18.5 -33t-57.5 -8q-12 0 -59 2t-64 2q-13 0 -39 -1t-41 -1q-34 0 -72 53l-65 82q-14 18 -41 55t-37 47q-1 3 -8.5 17t-13 27.5t-5.5 19.5z" />
<glyph unicode="&#xfa;" horiz-adv-x="1681" d="M174 647q0 64 8 160l-6 203q8 92 8 155q0 15 -1 47t-1 43q0 10 5 20t13 19t9 11q12 6 55 6l129 4q50 -4 101 -4q13 0 40.5 1t30.5 1q11 0 17.5 -6.5t12 -31.5t5.5 -69v-59q0 -82 -4 -242l-2 -80q0 -27 1 -85t1 -89q0 -177 33 -254q20 -43 82 -72.5t123 -29.5 q124 0 188 67q21 23 33 52t20.5 73.5t9.5 47.5q0 30 1 79.5t1 71.5q0 49 -2 74q0 80 1.5 130.5t2.5 70.5t1 26q0 32 -3.5 97t-3.5 102q0 8 -1 27t-1 28q0 29 10.5 46t41.5 18h43q27 0 45 4l196 2q48 0 64 -19q2 -2 18 -30q0 -20 -1 -60t-1 -51q0 -2 2 -44t2 -99q0 -8 -2 -25 t-2 -25q0 -7 1 -23t1 -24q0 -9 -2 -27t-2 -24q0 -40 4 -120t4 -124q0 -54 -4 -90q-3 -18 -12 -102q-2 -12 -4 -32.5t-5 -36.5t-8 -31q-17 -54 -28 -95q-8 -27 -28.5 -56t-50 -61t-36.5 -40q-1 -1 -19.5 -12.5t-23.5 -18.5q-7 -5 -59 -27.5t-68 -27.5q-132 -37 -291 -37 q-170 0 -301 28q-21 5 -114 37q-16 6 -32.5 16t-36.5 23.5t-28 18.5q-23 15 -42.5 44.5t-32.5 41.5q-35 30 -64 114t-31 140q-2 49 -6 123t-4 112zM668 1468q1 11 15 49t22 54q3 7 12.5 33.5t17.5 44.5q6 10 19 47t22 47q32 32 39 35q27 10 57 10q3 0 56 -1t76 -1 q19 0 58.5 1t55.5 1q26 0 47 -12t27 -35q0 -20 -11 -41t-36 -52.5t-33 -43.5q-48 -69 -70 -91q-46 -58 -55 -65q-19 -14 -63 -14q-6 0 -32 1t-36 1q-9 0 -57 -1t-58 -1q-29 0 -41 2q-18 0 -32 32z" />
<glyph unicode="&#xfb;" horiz-adv-x="1681" d="M174 647q0 64 8 160l-6 203q8 92 8 155q0 15 -1 47t-1 43q0 10 5 20t13 19t9 11q12 6 55 6l129 4q50 -4 101 -4q13 0 40.5 1t30.5 1q11 0 17.5 -6.5t12 -31.5t5.5 -69v-59q0 -82 -4 -242l-2 -80q0 -27 1 -85t1 -89q0 -177 33 -254q20 -43 82 -72.5t123 -29.5 q124 0 188 67q21 23 33 52t20.5 73.5t9.5 47.5q0 30 1 79.5t1 71.5q0 49 -2 74q0 80 1.5 130.5t2.5 70.5t1 26q0 32 -3.5 97t-3.5 102q0 8 -1 27t-1 28q0 29 10.5 46t41.5 18h43q27 0 45 4l196 2q48 0 64 -19q2 -2 18 -30q0 -20 -1 -60t-1 -51q0 -2 2 -44t2 -99q0 -8 -2 -25 t-2 -25q0 -7 1 -23t1 -24q0 -9 -2 -27t-2 -24q0 -40 4 -120t4 -124q0 -54 -4 -90q-3 -18 -12 -102q-2 -12 -4 -32.5t-5 -36.5t-8 -31q-17 -54 -28 -95q-8 -27 -28.5 -56t-50 -61t-36.5 -40q-1 -1 -19.5 -12.5t-23.5 -18.5q-7 -5 -59 -27.5t-68 -27.5q-132 -37 -291 -37 q-170 0 -301 28q-21 5 -114 37q-16 6 -32.5 16t-36.5 23.5t-28 18.5q-23 15 -42.5 44.5t-32.5 41.5q-35 30 -64 114t-31 140q-2 49 -6 123t-4 112zM461 1475q0 37 47 104q5 5 28.5 46.5t32.5 53.5q7 9 17.5 26.5t18.5 28.5t16 19q18 23 30 29t35 6q5 0 68.5 -1t91.5 -1 q22 0 93 1t81 1q23 0 35 -9.5t37 -45.5q17 -26 64.5 -107.5t55.5 -93.5q21 -40 21 -57q0 -41 -68 -41q-6 0 -24.5 1t-24.5 1h-76q-72 0 -88 14q-20 15 -42.5 38.5t-39 36.5t-34.5 17q-19 -13 -45 -37t-44 -43t-22 -20q-18 -6 -119 -6q-119 0 -127 8q-18 18 -18 31z" />
<glyph unicode="&#xfc;" horiz-adv-x="1681" d="M174 647q0 64 8 160l-6 203q8 92 8 155q0 15 -1 47t-1 43q0 10 5 20t13 19t9 11q12 6 55 6l129 4q50 -4 101 -4q13 0 40.5 1t30.5 1q11 0 17.5 -6.5t12 -31.5t5.5 -69v-59q0 -82 -4 -242l-2 -80q0 -27 1 -85t1 -89q0 -177 33 -254q20 -43 82 -72.5t123 -29.5 q124 0 188 67q21 23 33 52t20.5 73.5t9.5 47.5q0 30 1 79.5t1 71.5q0 49 -2 74q0 80 1.5 130.5t2.5 70.5t1 26q0 32 -3.5 97t-3.5 102q0 8 -1 27t-1 28q0 29 10.5 46t41.5 18h43q27 0 45 4l196 2q48 0 64 -19q2 -2 18 -30q0 -20 -1 -60t-1 -51q0 -2 2 -44t2 -99q0 -8 -2 -25 t-2 -25q0 -7 1 -23t1 -24q0 -9 -2 -27t-2 -24q0 -40 4 -120t4 -124q0 -54 -4 -90q-3 -18 -12 -102q-2 -12 -4 -32.5t-5 -36.5t-8 -31q-17 -54 -28 -95q-8 -27 -28.5 -56t-50 -61t-36.5 -40q-1 -1 -19.5 -12.5t-23.5 -18.5q-7 -5 -59 -27.5t-68 -27.5q-132 -37 -291 -37 q-170 0 -301 28q-21 5 -114 37q-16 6 -32.5 16t-36.5 23.5t-28 18.5q-23 15 -42.5 44.5t-32.5 41.5q-35 30 -64 114t-31 140q-2 49 -6 123t-4 112zM408 1591q0 62 33.5 116t72.5 67q38 10 70 10q41 0 82.5 -12.5t62.5 -34.5q26 -28 49 -119q4 -24 4 -33q0 -21 -10 -41 q-9 -23 -33.5 -52t-46.5 -42q-30 -18 -96 -18q-78 0 -127 28q-25 14 -43 55.5t-18 75.5zM891 1599q0 73 24 107q24 37 47 51t60 23q30 6 59 6q64 0 113.5 -35t60.5 -98q5 -22 5 -49q0 -53 -33 -99q-29 -40 -44.5 -50t-66.5 -17q-32 -4 -53 -4q-64 0 -102 28.5t-62 89.5 q-8 16 -8 47z" />
<glyph unicode="&#xfd;" horiz-adv-x="1507" d="M100 1251q0 20 19 45q20 13 45 13q10 0 38.5 1t47.5 1q18 0 81 -2t97 -2q96 0 119 -27q4 -4 18 -39.5t36.5 -85.5t43.5 -82q8 -13 36 -77.5t32 -71.5q3 -6 13.5 -34.5t21.5 -53t18 -29.5q14 23 47 104q6 11 15 28t15 30.5t13 34.5q14 19 31 67q8 16 20.5 34.5t14.5 24.5 q6 8 10 25.5t8 28.5q3 14 19.5 40t19.5 36q6 14 19 27t24 18q23 8 108 8q10 0 66 -2t66 -2q15 0 44.5 1t47.5 1q28 0 39 -19q14 -17 14 -49q0 -9 -4.5 -18.5t-11.5 -22t-11 -20.5q-10 -19 -31.5 -65.5t-40.5 -81t-38 -58.5q-17 -21 -44 -68t-38 -73q-9 -17 -58.5 -106.5 t-78.5 -143.5q-16 -30 -37 -63.5t-32 -52t-13 -26.5q-11 -49 -11 -108q0 -20 -1 -52.5t-1 -50.5q0 -15 1 -37.5t1 -33.5q0 -6 -1 -19t-1 -20q0 -10 2.5 -32t2.5 -32q0 -23 -9 -41q-16 -18 -110 -18h-35q-28 0 -86 -1t-76 -1q-36 0 -57 6q-25 7 -32 22.5t-7 55.5v57 q0 17 -1 48t-1 46q0 22 1 58.5t1 56.5v58q0 21 -17 49q-9 13 -61 104q-70 123 -104 191q-19 30 -55.5 98t-55.5 98q-90 146 -109 184q-4 11 -15 28.5t-13 31.5q-19 32 -19 61zM588 1468q1 11 15 49t22 54q3 7 12.5 33.5t17.5 44.5q6 10 19 47t22 47q32 32 39 35q27 10 58 10 q3 0 55.5 -1t75.5 -1q19 0 58.5 1t55.5 1q26 0 47 -12t27 -35q0 -20 -11 -41t-36 -52.5t-33 -43.5q-50 -72 -69 -91q-44 -55 -56 -65q-19 -14 -63 -14q-6 0 -32 1t-36 1q-9 0 -56.5 -1t-57.5 -1q-29 0 -41 2q-19 0 -33 32z" />
<glyph unicode="&#xfe;" horiz-adv-x="1552" d="M193 143q0 13 1 49t1 58q0 37 8 115l-8 120l6 287l-2 55q0 33 1 99.5t1 111.5q0 23 -1 76t-1 84q0 16 3 46.5t3 35.5q2 2 11 10.5t13.5 12t14 7t20.5 3.5q18 0 68 -1t88 -1q17 0 40 1t36 1q63 0 79 -4q10 -4 16 -9.5t13 -19t8 -14.5q4 -14 4 -35q0 -12 -1 -31t-1 -33 q0 -16 2 -26q39 -4 127 -4h203q97 0 168 -13t127 -53q86 -62 150 -164q21 -33 35 -117t14 -151q0 -142 -60 -248q-16 -27 -54.5 -68.5t-45.5 -50.5q-23 -29 -85.5 -54.5t-139.5 -37.5q-44 -8 -51 -8q-6 0 -19.5 -1t-23.5 -1q-15 0 -57.5 1t-65.5 1q-1 0 -52.5 1t-74.5 1h-19 q-4 0 -36 -2t-44 -4q0 -7 1 -26.5t1 -26.5q0 -40 -10 -92q-28 -25 -53 -25q-15 0 -60 2t-67 2q-13 0 -30 -2t-32 -2q-20 0 -34 2h-62q-19 0 -30.5 4.5t-22.5 18.5t-15.5 43.5t-4.5 76.5zM614 643q0 -97 7 -125q43 -6 98 -6q16 0 64 1t57 1q81 0 129 25q17 10 33 46t16 60 q0 29 -9 65.5t-24 47.5q-30 23 -59.5 32t-77.5 9h-199q-17 0 -33 -4q-2 -12 -2 -43v-109z" />
<glyph unicode="&#xff;" horiz-adv-x="1507" d="M100 1251q0 20 19 45q20 13 45 13q10 0 38.5 1t47.5 1q18 0 81 -2t97 -2q96 0 119 -27q4 -4 18 -39.5t36.5 -85.5t43.5 -82q8 -13 36 -77.5t32 -71.5q3 -6 13.5 -34.5t21.5 -53t18 -29.5q14 23 47 104q6 11 15 28t15 30.5t13 34.5q14 19 31 67q8 16 20.5 34.5t14.5 24.5 q6 8 10 25.5t8 28.5q3 14 19.5 40t19.5 36q6 14 19 27t24 18q23 8 108 8q10 0 66 -2t66 -2q15 0 44.5 1t47.5 1q28 0 39 -19q14 -17 14 -49q0 -9 -4.5 -18.5t-11.5 -22t-11 -20.5q-10 -19 -31.5 -65.5t-40.5 -81t-38 -58.5q-17 -21 -44 -68t-38 -73q-9 -17 -58.5 -106.5 t-78.5 -143.5q-16 -30 -37 -63.5t-32 -52t-13 -26.5q-11 -49 -11 -108q0 -20 -1 -52.5t-1 -50.5q0 -15 1 -37.5t1 -33.5q0 -6 -1 -19t-1 -20q0 -10 2.5 -32t2.5 -32q0 -23 -9 -41q-16 -18 -110 -18h-35q-28 0 -86 -1t-76 -1q-36 0 -57 6q-25 7 -32 22.5t-7 55.5v57 q0 17 -1 48t-1 46q0 22 1 58.5t1 56.5v58q0 21 -17 49q-9 13 -61 104q-70 123 -104 191q-19 30 -55.5 98t-55.5 98q-90 146 -109 184q-4 11 -15 28.5t-13 31.5q-19 32 -19 61zM334 1591q0 62 33.5 116t72.5 67q38 10 70 10q41 0 82.5 -12.5t62.5 -34.5q27 -29 50 -119 q4 -24 4 -33q0 -19 -11 -41q-9 -23 -33.5 -52t-46.5 -42q-30 -18 -96 -18q-78 0 -127 28q-25 14 -43 55.5t-18 75.5zM817 1599q0 71 25 107q24 37 47 51.5t59 22.5q30 6 60 6q64 0 113.5 -35t60.5 -98q4 -18 4 -49q0 -53 -33 -99q-29 -40 -44.5 -50t-66.5 -17q-32 -4 -53 -4 q-64 0 -102 28.5t-62 89.5q-8 16 -8 47z" />
<glyph unicode="&#x152;" horiz-adv-x="2476" d="M139 625q0 123 43 262q44 155 161.5 273.5t238.5 144.5q46 10 64.5 15t36 10t46.5 13q78 19 172 19q55 0 120 -13.5t73 -13.5q52 -3 145 -47q37 23 59 23h72q23 0 87 -2t85 -2q13 0 93.5 1t101.5 1q143 0 198 2q42 0 128.5 -1t134.5 -1q80 0 98 -13q14 -10 14 -57v-98 q-1 -9 -1 -49t-1.5 -73.5t-5.5 -41.5q-12 -10 -59 -10q-38 0 -156 3t-174 3q-18 0 -60.5 -3t-70.5 -3q-19 0 -68 2t-72 2h-22q-4 -36 -4 -92q0 -40 2 -58q23 0 76 -2t80 -2q18 0 54 2t56 2q16 0 49 -2t47 -2q25 0 60 2t45 2q21 0 31 -9t10 -32q0 -16 1 -44.5t1 -41.5t-2 -47 t-2 -57q0 -14 1 -27.5t1 -17.5q0 -37 -47 -37h-78q-25 1 -43 2.5t-29 1.5q-26 0 -53 -2t-88 -2q-34 0 -87 1t-65 1h-18q-2 -20 -2 -92v-35q0 -41 6 -51q21 8 41 8q16 0 49.5 1t52.5 1h37q41 0 88 -2t72 -2q49 0 119.5 3t109.5 3q21 0 46 -2t32 -2q22 0 31 -17t10 -67v-94 q0 -44 -0.5 -63.5t-3.5 -38t-10 -27.5q-8 -10 -13.5 -15t-20 -9.5t-36.5 -4.5q-9 0 -22 -2t-23 -2q-14 0 -46 -1t-36 -1q-29 0 -91.5 3t-94.5 3q-19 0 -59.5 -3t-61.5 -3q-27 0 -39 2q-20 2 -55 2q-26 0 -63.5 -3t-55.5 -3q-39 0 -115 1t-143 1q-69 0 -86 10 q-79 -32 -111 -39q-110 -20 -225 -20q-111 0 -199 18q-113 23 -253.5 109.5t-188.5 175.5q-7 14 -23.5 43.5t-23 41.5t-18.5 37t-18 42.5t-13 43t-12 52.5q-11 71 -11 113zM557 635q0 -88 43 -169t119 -124q26 -14 66 -28.5t63 -14.5q145 0 214 34t130 140q41 75 41 197 q0 63 -12 100q-22 74 -60 121q-58 72 -147 104q-7 1 -23 5.5t-29 7t-20 2.5q-27 0 -44 1t-21 1q-45 0 -110 -22t-93 -50q-60 -60 -88.5 -131t-28.5 -174z" />
<glyph unicode="&#x153;" horiz-adv-x="2476" d="M139 625q0 123 43 262q44 155 161.5 273.5t238.5 144.5q46 10 64.5 15t36 10t46.5 13q78 19 172 19q55 0 120 -13.5t73 -13.5q52 -3 145 -47q37 23 59 23h72q23 0 87 -2t85 -2q13 0 93.5 1t101.5 1q143 0 198 2q42 0 128.5 -1t134.5 -1q80 0 98 -13q14 -10 14 -57v-98 q-1 -9 -1 -49t-1.5 -73.5t-5.5 -41.5q-12 -10 -59 -10q-38 0 -156 3t-174 3q-18 0 -60.5 -3t-70.5 -3q-19 0 -68 2t-72 2h-22q-4 -36 -4 -92q0 -40 2 -58q23 0 76 -2t80 -2q18 0 54 2t56 2q16 0 49 -2t47 -2q25 0 60 2t45 2q21 0 31 -9t10 -32q0 -16 1 -44.5t1 -41.5t-2 -47 t-2 -57q0 -14 1 -27.5t1 -17.5q0 -37 -47 -37h-78q-25 1 -43 2.5t-29 1.5q-26 0 -53 -2t-88 -2q-34 0 -87 1t-65 1h-18q-2 -20 -2 -92v-35q0 -41 6 -51q21 8 41 8q16 0 49.5 1t52.5 1h37q41 0 88 -2t72 -2q49 0 119.5 3t109.5 3q21 0 46 -2t32 -2q22 0 31 -17t10 -67v-94 q0 -44 -0.5 -63.5t-3.5 -38t-10 -27.5q-8 -10 -13.5 -15t-20 -9.5t-36.5 -4.5q-9 0 -22 -2t-23 -2q-14 0 -46 -1t-36 -1q-29 0 -91.5 3t-94.5 3q-19 0 -59.5 -3t-61.5 -3q-27 0 -39 2q-20 2 -55 2q-26 0 -63.5 -3t-55.5 -3q-39 0 -115 1t-143 1q-69 0 -86 10 q-79 -32 -111 -39q-110 -20 -225 -20q-111 0 -199 18q-113 23 -253.5 109.5t-188.5 175.5q-7 14 -23.5 43.5t-23 41.5t-18.5 37t-18 42.5t-13 43t-12 52.5q-11 71 -11 113zM557 635q0 -88 43 -169t119 -124q26 -14 66 -28.5t63 -14.5q145 0 214 34t130 140q41 75 41 197 q0 63 -12 100q-22 74 -60 121q-58 72 -147 104q-7 1 -23 5.5t-29 7t-20 2.5q-27 0 -44 1t-21 1q-45 0 -110 -22t-93 -50q-60 -60 -88.5 -131t-28.5 -174z" />
<glyph unicode="&#x178;" horiz-adv-x="1507" d="M100 1251q0 20 19 45q20 13 45 13q10 0 38.5 1t47.5 1q18 0 81 -2t97 -2q96 0 119 -27q4 -4 18 -39.5t36.5 -85.5t43.5 -82q8 -13 36 -77.5t32 -71.5q3 -6 13.5 -34.5t21.5 -53t18 -29.5q14 23 47 104q6 11 15 28t15 30.5t13 34.5q14 19 31 67q8 16 20.5 34.5t14.5 24.5 q6 8 10 25.5t8 28.5q3 14 19.5 40t19.5 36q6 14 19 27t24 18q23 8 108 8q10 0 66 -2t66 -2q15 0 44.5 1t47.5 1q28 0 39 -19q14 -17 14 -49q0 -9 -4.5 -18.5t-11.5 -22t-11 -20.5q-10 -19 -31.5 -65.5t-40.5 -81t-38 -58.5q-17 -21 -44 -68t-38 -73q-9 -17 -58.5 -106.5 t-78.5 -143.5q-16 -30 -37 -63.5t-32 -52t-13 -26.5q-11 -49 -11 -108q0 -20 -1 -52.5t-1 -50.5q0 -15 1 -37.5t1 -33.5q0 -6 -1 -19t-1 -20q0 -10 2.5 -32t2.5 -32q0 -23 -9 -41q-16 -18 -110 -18h-35q-28 0 -86 -1t-76 -1q-36 0 -57 6q-25 7 -32 22.5t-7 55.5v57 q0 17 -1 48t-1 46q0 22 1 58.5t1 56.5v58q0 21 -17 49q-9 13 -61 104q-70 123 -104 191q-19 30 -55.5 98t-55.5 98q-90 146 -109 184q-4 11 -15 28.5t-13 31.5q-19 32 -19 61zM334 1591q0 62 33.5 116t72.5 67q38 10 70 10q41 0 82.5 -12.5t62.5 -34.5q27 -29 50 -119 q4 -24 4 -33q0 -19 -11 -41q-9 -23 -33.5 -52t-46.5 -42q-30 -18 -96 -18q-78 0 -127 28q-25 14 -43 55.5t-18 75.5zM817 1599q0 71 25 107q24 37 47 51.5t59 22.5q30 6 60 6q64 0 113.5 -35t60.5 -98q4 -18 4 -49q0 -53 -33 -99q-29 -40 -44.5 -50t-66.5 -17q-32 -4 -53 -4 q-64 0 -102 28.5t-62 89.5q-8 16 -8 47z" />
<glyph unicode="&#x2c6;" horiz-adv-x="1050" d="M139 1475q0 37 47 104q5 5 29 46.5t33 53.5q7 10 17 26.5t18 28t16 19.5q18 22 30.5 28.5t35.5 6.5q5 0 68 -1t91 -1q22 0 93 1t81 1q23 0 35 -9.5t37 -45.5q17 -26 65 -107.5t56 -93.5q20 -39 20 -57q0 -41 -67 -41q-6 0 -24.5 1t-24.5 1h-76q-72 0 -88 14 q-19 15 -42.5 38.5t-40 36.5t-34.5 17q-19 -13 -45 -37t-44 -43t-22 -20q-18 -6 -118 -6q-119 0 -127 8q-19 19 -19 31z" />
<glyph unicode="&#x2dc;" horiz-adv-x="1034" d="M143 1511q0 21 2 56.5t2 58.5q0 52 60 96q64 44 115 56q27 6 55 6q99 0 143 -17q10 -3 44 -13t52 -19q6 -5 29.5 -11t36.5 -6q57 0 96 27q9 6 33.5 13t38.5 7q32 0 39 -45q0 -4 1 -19t1 -22q0 -30 -4 -104q-1 -23 -19 -45.5t-39 -32.5q-65 -36 -84 -43q-1 0 -28 -7 t-45.5 -10t-36.5 -3q-115 0 -203 45q-41 20 -88 20q-18 0 -55 -12q-10 -3 -41 -18t-60 -15q-45 0 -45 57z" />
<glyph unicode="&#x2000;" horiz-adv-x="896" />
<glyph unicode="&#x2001;" horiz-adv-x="1792" />
<glyph unicode="&#x2002;" horiz-adv-x="896" />
<glyph unicode="&#x2003;" horiz-adv-x="1792" />
<glyph unicode="&#x2004;" horiz-adv-x="597" />
<glyph unicode="&#x2005;" horiz-adv-x="448" />
<glyph unicode="&#x2006;" horiz-adv-x="298" />
<glyph unicode="&#x2007;" horiz-adv-x="298" />
<glyph unicode="&#x2008;" horiz-adv-x="224" />
<glyph unicode="&#x2009;" horiz-adv-x="358" />
<glyph unicode="&#x200a;" horiz-adv-x="99" />
<glyph unicode="&#x2010;" horiz-adv-x="1026" d="M113 555q0 9 2 44t2 73q0 6 -2 35t-2 38l2 43q3 37 22.5 47.5t61.5 10.5q1 0 41.5 -6t103.5 -6q34 0 77.5 1t72.5 2l30 1l49 -4q25 -5 35 -5q24 0 36 5.5t28 5.5q22 0 57 -2t51 -2q7 0 15.5 0.5t22.5 1.5l28 2q20 0 29.5 -1t19.5 -7t14 -19t4 -35v-135q0 -56 -3 -75 t-15 -31q-28 -35 -43 -39q-20 0 -74 -2t-80 -2q-31 0 -41 2l-350 -2q-138 2 -149 3q-35 5 -42 28q-3 11 -3 30z" />
<glyph unicode="&#x2011;" horiz-adv-x="1026" d="M113 555q0 9 2 44t2 73q0 6 -2 35t-2 38l2 43q3 37 22.5 47.5t61.5 10.5q1 0 41.5 -6t103.5 -6q34 0 77.5 1t72.5 2l30 1l49 -4q25 -5 35 -5q24 0 36 5.5t28 5.5q22 0 57 -2t51 -2q7 0 15.5 0.5t22.5 1.5l28 2q20 0 29.5 -1t19.5 -7t14 -19t4 -35v-135q0 -56 -3 -75 t-15 -31q-28 -35 -43 -39q-20 0 -74 -2t-80 -2q-31 0 -41 2l-350 -2q-138 2 -149 3q-35 5 -42 28q-3 11 -3 30z" />
<glyph unicode="&#x2012;" horiz-adv-x="1026" d="M113 555q0 9 2 44t2 73q0 6 -2 35t-2 38l2 43q3 37 22.5 47.5t61.5 10.5q1 0 41.5 -6t103.5 -6q34 0 77.5 1t72.5 2l30 1l49 -4q25 -5 35 -5q24 0 36 5.5t28 5.5q22 0 57 -2t51 -2q7 0 15.5 0.5t22.5 1.5l28 2q20 0 29.5 -1t19.5 -7t14 -19t4 -35v-135q0 -56 -3 -75 t-15 -31q-28 -35 -43 -39q-20 0 -74 -2t-80 -2q-31 0 -41 2l-350 -2q-138 2 -149 3q-35 5 -42 28q-3 11 -3 30z" />
<glyph unicode="&#x2013;" horiz-adv-x="1439" d="M113 555q0 33 6 63q0 20 -2 61t-2 62q0 8 2 23.5t2 23.5q0 33 16 43.5t51 10.5q17 0 55.5 1t63.5 1q24 0 115.5 -3t107.5 -3q39 0 112 -2t99 -2q8 0 55.5 1t55.5 1l194 -5q4 0 26.5 3.5t25.5 3.5q4 0 49 -1t104 -1q57 0 70 -23q4 -24 4 -47q0 -9 2 -52t2 -67 q0 -48 -8 -59q6 -8 6 -47q0 -24 -25 -39q-20 -8 -186 -8q-38 0 -199 3t-196 3q-86 0 -113 -4q-20 -4 -80 -4q-34 0 -157.5 2t-143.5 2h-53q-33 0 -46 14.5t-13 44.5z" />
<glyph unicode="&#x2014;" horiz-adv-x="1800" d="M113 557q0 6 1 40.5t1 41.5v139q0 58 37 64q9 0 27 -2t28 -2q15 0 38 2t38 2q33 0 243.5 -1t241.5 -1q47 0 119.5 -3t132.5 -3q23 0 90.5 4t81.5 4q3 0 41.5 -1t87.5 -2t80 -1q10 4 84 4q14 0 39 -2t37 -2q16 0 40 1t33 1q40 0 52 -27q0 -9 1 -31t1 -26q0 -2 -2.5 -77 t-2.5 -79q0 -7 1.5 -21t1.5 -22q0 -3 -3 -14.5t-7 -24.5t-5 -16q-12 -8 -67 -8q-34 0 -119 3t-101 3q-21 -1 -61 -3.5t-100 -2.5q-5 0 -89.5 -2.5t-117.5 -2.5q-30 0 -82 2.5t-109 2.5q-14 0 -109 2t-138 2q-52 0 -123.5 -3t-110.5 -3q-61 0 -80 2t-41 2q-7 0 -21 -1t-18 -1 q-29 0 -42 4.5t-23 21.5q-6 9 -6 37z" />
<glyph unicode="&#x2018;" horiz-adv-x="686" d="M113 883q0 17 3.5 39t10 47t11 42t12 40.5t8.5 25.5q4 15 19.5 35.5t21.5 32.5q8 20 30 77.5t23 61.5q28 76 51 106.5t59 30.5q7 0 29.5 -1t36.5 -1q6 0 17 1t20 1q24 0 32.5 -0.5t23.5 -2t21.5 -6.5t10.5 -13q0 -41 -37 -99q-12 -20 -55 -124q-33 -79 -37 -123 q6 -3 18 -8t16 -7t12.5 -7.5t13 -10t10.5 -12.5t12 -19q24 -44 24 -123q0 -49 -36 -95t-88 -58q-5 -1 -22 -8t-35.5 -11t-43.5 -4q-19 0 -49.5 10t-48.5 23q-84 64 -94 160z" />
<glyph unicode="&#x2019;" horiz-adv-x="684" d="M133 729q0 32 37 84q16 23 41 92q48 123 53 154q-39 14 -62 32t-34 52q-14 47 -14 96q0 19 7 38.5t13.5 30t23 32t21.5 28.5q14 24 58.5 37.5t93.5 13.5q35 0 73 -15.5t66 -41.5q8 -7 16 -23t15 -24q2 -8 16 -35.5t14 -48.5q0 -53 -16 -105.5t-16 -54.5q-1 -8 -8.5 -24.5 t-19.5 -40.5t-19 -41q-2 -5 -14 -35.5t-21 -50.5q-13 -25 -31 -70.5t-32.5 -71t-33.5 -39.5q-9 -6 -16 -6q-2 0 -15 -0.5t-33 -1t-40 -0.5q-62 0 -115 6q-8 10 -8 33z" />
<glyph unicode="&#x201a;" horiz-adv-x="643" d="M96 -313q0 6 2.5 13.5t6 13.5t10.5 19.5t12 22.5q8 16 22 51t17 43q4 18 30 79.5t29 93.5q-60 15 -80 57q-32 58 -32 106q0 3 1 9.5t1 9.5q10 69 49 117q48 59 151 59q25 0 67 -12t60 -25q65 -53 84 -131l2 -68q-3 -48 -17.5 -86t-38 -82t-36.5 -79q-9 -22 -28 -61 t-27 -62q-27 -83 -59 -113q-39 -10 -68 -10q-12 0 -16 2q-8 0 -31.5 -1t-36.5 -1q-57 0 -70 18q-4 12 -4 17z" />
<glyph unicode="&#x201c;" horiz-adv-x="1212" d="M113 903q0 35 7.5 61.5t24.5 65t27 72.5q6 19 53.5 121.5t53.5 119.5q20 49 38 60.5t56 11.5q19 0 56.5 1t53.5 1q32 0 46 -8.5t14 -28.5q0 -19 -20.5 -58t-24.5 -50q-13 -41 -41.5 -98t-36.5 -82q-13 -40 -14 -45q15 -1 29.5 -7.5t30.5 -17.5t17 -12q11 -4 29 -43 q16 -37 16 -82q0 -18 -3 -35t-7 -29t-10.5 -25t-10.5 -18.5t-11.5 -16t-8.5 -11.5q-16 -27 -66 -43.5t-98 -16.5q-45 0 -100 26t-72 68q-7 16 -17.5 57.5t-10.5 61.5zM641 879q0 53 16.5 104.5t16.5 54.5q1 8 8.5 24.5t19.5 41.5t19 41q2 5 14 36t21 50q13 26 31 70.5t32 70 t33 39.5q9 6 16 6q2 0 15 0.5t33 1t40 0.5q62 0 115 -6q8 -10 8 -33q0 -32 -37 -84q-16 -23 -41 -92q-49 -124 -53 -153q39 -14 62 -32t34 -52q15 -50 15 -97q0 -19 -7 -38.5t-14 -30t-23.5 -31.5t-21.5 -29q-14 -24 -58 -37.5t-93 -13.5q-35 0 -73.5 16t-66.5 42 q-8 7 -15 23t-15 24q-2 8 -16.5 35.5t-14.5 48.5z" />
<glyph unicode="&#x201d;" horiz-adv-x="1214" d="M133 713q0 40 37 98q11 18 55 125q33 79 37 123q-6 3 -20.5 9t-19 9t-14 9.5t-15.5 14.5t-13 21q-24 44 -24 123q0 49 36.5 95.5t88.5 58.5q5 1 21.5 7.5t35 10.5t43.5 4q20 0 50 -9.5t48 -22.5q84 -64 94 -160q0 -47 -45 -195q-4 -15 -19.5 -34.5t-21.5 -32.5 q-8 -19 -29.5 -76.5t-23.5 -63.5q-28 -76 -51 -106.5t-59 -30.5q-7 0 -29.5 1t-36.5 1q-6 0 -17 -1t-20 -1q-29 0 -42 1t-27 6t-19 16zM670 727q0 12 30 70q8 16 22 51t17 43q4 18 30.5 79t29.5 93q-60 15 -80 57q-33 60 -33 107q0 3 1 9t1 9q10 69 49 117q48 59 152 59 q25 0 67 -12t60 -25q65 -53 84 -131l2 -67q-3 -48 -17.5 -86.5t-38 -82.5t-36.5 -79q-9 -23 -28.5 -61.5t-27.5 -61.5q-27 -83 -59 -113q-39 -10 -68 -10q-12 0 -16 2q-8 0 -31.5 -1t-36.5 -1q-55 0 -69 19q-4 12 -4 16z" />
<glyph unicode="&#x201e;" horiz-adv-x="1171" d="M90 -309q0 32 37 84q16 23 41 92q49 124 53 153q-39 14 -62 32t-34 52q-14 47 -14 97q0 19 7 38.5t13.5 30t23 32t21.5 28.5q14 24 58.5 37.5t93.5 13.5q35 0 73 -15.5t66 -41.5q8 -7 15.5 -23.5t15.5 -24.5q2 -8 16 -35t14 -48q0 -53 -16 -105.5t-16 -54.5 q-1 -8 -8.5 -24.5t-19.5 -41.5t-19 -41q-2 -5 -14 -35.5t-21 -50.5q-13 -25 -31 -70.5t-32.5 -70.5t-33.5 -39q-9 -6 -16 -6q-2 0 -15 -0.5t-33 -1t-40 -0.5q-63 0 -115 6q-8 10 -8 33zM627 -309q0 19 20.5 58t24.5 50q13 41 41.5 98.5t36.5 82.5q13 40 14 45q-11 1 -24 5.5 t-21.5 10t-19 12.5t-13.5 8q-11 4 -29 43q-16 37 -16 82q0 18 3 35.5t6.5 29t11 25t11 19t11.5 16t8 11.5q16 27 66 43t98 16q45 0 100 -26t72 -68q7 -16 18 -57.5t11 -61.5q0 -35 -8 -61.5t-25 -65t-27 -72.5q-6 -19 -53 -121.5t-53 -119.5q-20 -49 -38 -60.5t-56 -11.5 q-19 0 -57 -1t-54 -1q-32 0 -45.5 8.5t-13.5 28.5z" />
<glyph unicode="&#x2022;" horiz-adv-x="856" d="M98 664q0 16 10 33.5t29.5 36.5t35.5 32.5t40.5 33t32.5 25.5q20 16 46 42t46 40q4 3 21.5 19t34.5 26.5t32 10.5q36 0 68 -35q7 -9 44.5 -39t51.5 -49q7 -9 45.5 -36t42.5 -32q13 -17 35 -36t33.5 -33t11.5 -29q0 -14 -17 -47q-6 -9 -21 -21t-20 -18q-23 -24 -90 -84 q-9 -8 -35 -33t-43 -37q-20 -14 -37 -29t-23.5 -20.5t-16 -9.5t-23.5 -4q-25 0 -80 41q-29 33 -106.5 95.5t-102.5 84.5q-17 13 -31 36.5t-14 35.5z" />
<glyph unicode="&#x2026;" horiz-adv-x="1976" d="M113 209q12 18 28 57t31 56q54 61 150 61q30 0 63.5 -6t44.5 -10q4 -4 26 -24t30.5 -29t23 -26.5t20 -33.5t5.5 -33q0 -40 -15 -102q-38 -129 -190 -129q-16 0 -46 2.5t-40 3.5q-66 44 -95.5 86.5t-35.5 126.5zM782 180q0 201 232 207q116 -21 147 -84q39 -66 39 -110 q0 -95 -57 -149t-148 -54q-32 0 -59 5.5t-44 12.5t-34.5 20.5t-24.5 21t-20 23t-16 19.5q-15 47 -15 88zM1446 168q0 70 15 103.5t59 68.5q7 6 35 15t36 16q23 6 68 6q96 0 150.5 -57.5t54.5 -141.5q0 -38 -27 -88t-59 -76q-66 -30 -109 -30q-17 0 -33 4.5t-28 5.5 q-50 4 -97 44.5t-65 129.5z" />
<glyph unicode="&#x202f;" horiz-adv-x="358" />
<glyph unicode="&#x2039;" horiz-adv-x="743" d="M102 625q0 49 9 73q10 18 26.5 51.5t29 56.5t23.5 34l33 53q32 52 78 141q3 2 26 32t44 30q15 0 66.5 -1t70.5 -1q37 0 51 -2q12 -1 22.5 -5.5t16.5 -8.5l6 -5q6 -9 6 -22q0 -20 -20 -56q-17 -28 -39 -100q-5 -16 -26.5 -69t-22.5 -72q0 -8 -14.5 -46t-14.5 -51 q0 -17 9 -42t10 -37q1 -7 55 -179q5 -14 20 -51.5t23 -62.5t8 -41q0 -37 -76 -37q-11 0 -48.5 1t-51.5 1q-15 0 -35.5 -2t-28.5 -2q-23 0 -45 33q-17 25 -69 119t-86 151q-13 21 -24.5 46.5t-14.5 29.5q-17 23 -17 41z" />
<glyph unicode="&#x203a;" horiz-adv-x="755" d="M133 240q0 25 27 73l35 90q10 38 18 48q10 27 23.5 70t23.5 73t16 41q-6 19 -23 86.5t-26 93.5q-8 23 -24 79.5t-23 80.5q-2 6 -13.5 30t-12.5 44q4 33 41 43q44 0 78.5 0.5t53.5 1t25 0.5q9 0 29 -1t29 -1q14 -3 25.5 -23.5t30 -60t40.5 -70.5q5 -7 33 -60t30 -57 q82 -119 82 -147q0 -1 1 -10.5t1 -16.5q0 -25 -8 -49q-18 -36 -76 -123q-13 -22 -42.5 -70t-50 -82.5t-27.5 -50.5q-14 -34 -28.5 -47.5t-39.5 -13.5t-73 -4t-54 -4q-55 0 -84 6q-13 0 -29 8q-8 8 -8 23z" />
<glyph unicode="&#x205f;" horiz-adv-x="448" />
<glyph unicode="&#x20ac;" horiz-adv-x="1695" d="M113 477q0 8 1 13t1 12v43q0 28 8 41q9 16 76 16h28q34 0 52 4v84q-24 4 -48 4q-16 0 -21.5 -1t-23.5 -1q-46 0 -65 8q-8 8 -8 52v24q0 65 10 92l9 10q8 9 15 9q6 0 25.5 2t38.5 2q50 0 74 -1t30 -1q8 48 19.5 69t13.5 27q12 43 49 96q39 50 54.5 66t50.5 43q9 19 45 44 t74 38q108 47 137 55q144 35 219 35q76 0 169.5 -9.5t149.5 -27.5q30 -11 70 -22t60 -17.5t49.5 -23.5t60.5 -45l6 -33q0 -47 -35 -99q-6 -9 -20.5 -41t-22.5 -45q-42 -71 -71 -71q-17 0 -37 4q-15 3 -44.5 16.5t-37.5 16.5q-9 3 -31.5 10t-34.5 12q-69 31 -180 31 q-137 0 -225 -60q-56 -38 -66 -65q14 -2 170 -2q32 0 106 -1t103 -1q54 0 62 -17q10 -20 10 -24q0 -9 -14 -55q-21 -70 -33 -80q-29 -21 -74 -21q-13 0 -38 1t-38 1q-1 0 -7.5 -0.5t-25.5 -1t-51 -0.5q-14 0 -65.5 1t-93.5 1q-34 0 -54 -4q-4 -12 -4 -24q0 -36 6 -66 q66 2 189 2q94 0 139 -2q14 0 35.5 1t25.5 1q17 0 28 -9t11 -18q0 -19 -8 -44.5t-8 -26.5q-2 -10 -11 -30.5t-10 -27.5q-15 -40 -92 -40h-237q2 -11 20.5 -28t42 -33.5t27.5 -20.5q20 -5 51.5 -15t51.5 -14.5t38 -5.5q25 -2 64 -2q41 0 66.5 4.5t49 12.5t41.5 11 q24 6 77.5 31.5t66.5 30.5q15 6 26 6q41 0 78 -84q0 -1 16 -26.5t31 -67.5q0 -1 13.5 -36t13.5 -52q0 -18 -16 -32.5t-66 -43.5q-18 -10 -58.5 -24.5t-52.5 -16.5q-87 -24 -129 -39q-84 -16 -151 -16q-17 0 -32 1t-23 2t-9 1q-127 0 -235 35q-135 46 -193 84 q-54 37 -84.5 63t-60.5 66q-49 64 -80 122q-4 12 -17.5 44t-17.5 36q-23 7 -63 7q-14 0 -32.5 -1.5t-35.5 -1.5q-38 0 -51 15q-12 14 -12 59z" />
</font>
</defs>
</svg>
